<?xml version="1.0" standalone="no"?>
<!DOCTYPE svg PUBLIC "-//W3C//DTD SVG 1.1//EN" "http://www.w3.org/Graphics/SVG/1.1/DTD/svg11.dtd" >
<svg>
<metadata>
Created by FontForge 20120731 at Sat Aug 10 17:58:09 2019
 By www
Copyright (c) 2011 by Brian J. Bonislawsky DBA Astigmatic (AOETI) (astigma@astigmatic.com), with ReservedFont Name "Devonshire"
</metadata>
<defs>
<font id="Devonshire-Regular" horiz-adv-x="400" >
  <font-face 
    font-family="Devonshire"
    font-weight="400"
    font-stretch="normal"
    units-per-em="1000"
    panose-1="3 6 7 2 3 7 6 7 13 4"
    ascent="800"
    descent="-200"
    x-height="439"
    cap-height="728"
    bbox="-240 -433 1000 981"
    underline-thickness="20"
    underline-position="-113"
    unicode-range="U+0020-FB02"
  />
<missing-glyph horiz-adv-x="1000" 
 />
    <glyph glyph-name="fi" unicode="fi" horiz-adv-x="597" 
d="M56 435l-3 -29q0 -16 9 -16q4 0 9 5q35 35 75 126t81 167q11 23 30 23t29.5 -14t10.5 -31.5t-10 -30.5q-61 -92 -126 -302q46 11 121 43t93.5 53.5t52.5 21.5q16 0 41.5 -18.5t25.5 -41.5q0 -37 -15 -133q-18 -115 -18 -128.5t9 -13.5q20 0 101 128q8 17 15 17
q5 0 7.5 -25t2.5 -66.5t-19.5 -89t-56.5 -76.5q-21 -16 -38.5 -16t-29 7.5t-21.5 24.5q-14 24 -28.5 62t-14.5 90t16 155q-51 -24 -152 -58q48 -52 69.5 -103t21.5 -139q0 -174 -136 -380q-14 -20 -31.5 -26t-41 -6t-32 6t-16 18t-22 34t-21.5 35q-34 67 -34 164
q0 107 42 373q-17 11 -17 30.5t13 37.5q-4 10 -10.5 24t-9.5 21q-8 20 -8 50q0 54 19 54q7 0 12 -9.5t5 -17.5zM267 89q0 53 -24.5 93.5t-66.5 62.5q-9 -2 -44 -10q-48 -209 -48 -459q0 -74 25 -74q9 0 21 14q60 64 98.5 172t38.5 201zM562 688q0 -33 -28 -91.5t-53 -84.5
q-5 -6 -12 -6q-25 0 -25 40t35 112q7 15 9 31t2.5 18.5t1 4t1 4t1 4t1.5 3t3 2.5q2 2 15 2t31 -11t18 -28z" />
    <glyph glyph-name="fl" unicode="fl" horiz-adv-x="598" 
d="M56 435l-3 -29q0 -16 9 -16q4 0 9 5q35 35 75 126t81 167q11 23 30 23t29.5 -14t10.5 -31.5t-10 -30.5q-61 -92 -126 -302q43 16 91 60q19 16 41.5 16t53 -18.5t30.5 -41t-39.5 -50.5t-75.5 -45q43 -57 62.5 -109t19.5 -118q0 -174 -136 -380q-14 -20 -31.5 -26t-41 -6
t-32 6t-16 18t-22 34t-21.5 35q-34 67 -34 164q0 82 10 160q14 98 30 205q-15 18 -15 37.5t16 30.5q-24 54 -27.5 70.5t-3.5 32.5q0 54 19 54q7 0 12 -9.5t5 -17.5zM228.5 -112q38.5 108 38.5 204.5t-75 135.5q-32 -8 -63 -12q-45 -196 -45 -440q0 -74 25 -74q9 0 21 14
q60 64 98.5 172zM449 705l-5 30q0 12 13 12q5 0 13 -2q60 -12 60 -69q0 -14 -3 -30.5t-11.5 -68.5t-11.5 -75l-11 -69q-24 -158 -24 -291q0 -29 14 -29q5 0 11 6q70 88 81.5 107.5t17 19.5t5.5 -13.5t-5.5 -51t-6.5 -48t-4.5 -23.5t-6 -20.5t-10.5 -21t-11 -17.5
q-21 -28 -33.5 -43.5t-29 -15.5t-31.5 15t-21.5 27t-18.5 37q-35 68 -35 143q0 64 14.5 157t17.5 116q-23 0 -23 20q0 8 2.5 15.5t19.5 55.5q33 97 33 127z" />
    <glyph glyph-name=".notdef" horiz-adv-x="1000" 
 />
    <glyph glyph-name=".null" horiz-adv-x="0" 
 />
    <glyph glyph-name="nonmarkingreturn" horiz-adv-x="333" 
 />
    <glyph glyph-name="space" unicode=" " horiz-adv-x="202" 
 />
    <glyph glyph-name="exclam" unicode="!" horiz-adv-x="247" 
d="M135 584q-35 22 -35 39q0 11 25 15t68 19t51.5 15t18 -8.5t9.5 -23.5t-21.5 -65.5t-53.5 -120.5t-48 -113.5t-22.5 -81.5t-7 -49.5t-6.5 -11.5q-14 0 -26.5 38.5t-12.5 97.5t16.5 131.5t44.5 118.5zM153 6q-13 -20 -37.5 -20t-40 23.5t-15.5 56.5t12 54t34 21t41 -22.5
t19 -57.5t-13 -55z" />
    <glyph glyph-name="quotedbl" unicode="&#x22;" horiz-adv-x="249" 
d="M60 473q-10 25 -10 198q0 23 24 23q41 0 50 -18t9 -74t-9 -107t-24 -51q-5 0 -20.5 10t-19.5 19zM175 604l-5 73q0 15 29 15q18 0 31 -6t17 -14.5t6.5 -13t3.5 -16.5t1 -17v-39q0 -53 -8 -97t-20 -44q-42 0 -52 32q-3 8 -3 50v77z" />
    <glyph glyph-name="numbersign" unicode="#" horiz-adv-x="464" 
d="M345 313q50 10 61 10t20.5 -21.5t9.5 -32t-6 -15t-18.5 -5.5t-23 -0.5t-28.5 2.5t-27 2q-2 -11 -11.5 -62.5t-14.5 -129.5q-1 -3 -8 -6t-13.5 -3t-25.5 20t-21.5 27.5t-1 20.5t4 28t5.5 36t12 66l-75 -3q-2 -10 -6 -30.5t-12 -62.5t-13 -120q-3 -10 -8 -10q-8 0 -29 23.5
t-25 33.5q-5 19 -1.5 49.5t18.5 109.5q-25 -4 -46 -4t-29 6q-14 10 -14 20t3 22q5 24 11 24l88 -4q18 86 27 124q-55 -4 -64 -3q-24 0 -24 28q0 14 10.5 26t15.5 12q30 0 76 -2q15 63 19 77q0 3 -4 18t-3 22q2 9 23.5 14.5t35.5 5.5q18 0 21 -20.5t-8 -83.5q-1 -3 -10 -33
l77 2q24 105 19 105q0 40 54 40q18 0 21 -20.5t-8 -83.5q-8 -28 -11 -37q38 4 54 4q20 0 20 -44q0 -25 -90 -21q-13 -49 -27 -121zM221 431q-5 -21 -27 -126l76 2q2 9 29 126z" />
    <glyph glyph-name="dollar" unicode="$" horiz-adv-x="351" 
d="M136 -95q-25 59 -21 130h-10q-46 0 -64 19.5t-18 72.5q0 80 36 114q48 43 79 43h2q6 46 9 70q-74 43 -76 45q-37 25 -37 71.5t51 110.5t108 98q12 81 9.5 98.5t-2.5 21.5q1 12 12 12q35 0 45.5 -29t2.5 -71l-3 -12q34 -4 67 -32.5t33 -67t-22.5 -62t-53 -23.5t-48.5 32
q-17 -120 -19 -138q118 -82 118 -152t-45 -126.5t-111 -81.5q-11 -166 -28 -166q-7 0 -14 23zM253 262q0 19 -47 54q-4 -29 -13 -118q60 32 60 64zM99 165q7 0 29 5q2 25 11 98q-21 -14 -43 -40.5t-22 -45.5q0 -17 25 -17zM137 527q-17 -22 -17 -34t1.5 -17t6.5 -9.5t8 -7
t11.5 -7t12.5 -7.5q4 32 16 119q-22 -15 -39 -37z" />
    <glyph glyph-name="percent" unicode="%" horiz-adv-x="595" 
d="M274 533q0 -99 -70 -178q-26 -26 -56 -26t-48 12q-65 45 -65 153q0 76 49 192q4 8 7 10.5t10.5 2.5t18.5 8.5t36.5 8.5t51.5 -16t38 -42q28 -62 28 -125zM175 486.5q16 49.5 16 107.5t-23 58q-10 0 -20 -12q-40 -70 -40 -165q0 -13 5.5 -25.5t18.5 -12.5q27 0 43 49.5z
M248 3l2 -28q0 -7 -7 -7q-22 0 -42 42.5t-20 51t7 49t37.5 133t54.5 150.5q52 131 132 313q3 10 8 10q10 0 23 -28.5t13 -34.5q0 -55 -114 -298q-36 -76 -65 -174.5t-29 -178.5zM539 71q-36 -72 -91 -72t-81.5 53.5t-26.5 106.5t6.5 83t24.5 74q5 12 19 12q32 63 65 63
t57.5 -18.5t37.5 -48.5q25 -56 25 -118.5t-36 -134.5zM493 250q0 77 -23 77t-38 -71.5t-15 -112.5t16 -41q22 0 41 49.5t19 98.5z" />
    <glyph glyph-name="ampersand" unicode="&#x26;" horiz-adv-x="515" 
d="M330 273l-37 -10q-3 0 -3 1.5t4 9.5q17 34 58 64.5t62 30.5q10 0 21 -17t13 -28q0 -24 -38.5 -92t-80.5 -121q54 -60 75 -60q11 0 54.5 28.5t55 28.5t11.5 -15t-8 -31q-32 -80 -117 -80q-51 0 -110 84q-77 -87 -163 -87q-27 0 -49 22t-34 53q-24 62 -24 105q0 74 35 127
t107 112q-17 53 -17 96q0 84 53 141.5t139 85.5q20 5 35.5 5t39.5 -24t28 -46q0 -85 -63.5 -182t-142.5 -162q3 -17 16.5 -51t24.5 -50q8 9 21 25q30 35 34 37zM115 72.5q5 -5.5 13.5 -5.5t15.5 3.5t15 10.5t14.5 14t16 19t14.5 19q15 21 27 37q-25 35 -46 108
q-1 -2 -11 -15t-13 -18t-11.5 -18.5t-12.5 -22t-10.5 -23t-9 -26.5t-5 -28.5t-2.5 -32.5t5 -21.5zM373 588l6 25q-1 6 -8 6t-15 -4q-54 -24 -96 -73.5t-42 -89.5l1 -18q108 76 155 153q-1 0 -1 1z" />
    <glyph glyph-name="quotesingle" unicode="'" horiz-adv-x="134" 
d="M77.5 454q-19.5 10 -23.5 18.5t-4 55.5t8 143q1 23 35.5 23t42 -15.5t7.5 -68.5t-11.5 -109.5t-28.5 -56.5q-6 0 -25.5 10z" />
    <glyph glyph-name="parenleft" unicode="(" horiz-adv-x="344" 
d="M262 -223q1 -5 -13.5 -14t-23.5 -10q-67 16 -109 135.5t-42 265t57.5 295t164.5 274.5q9 11 30.5 28.5t34.5 17.5t13 -13t-5.5 -42t-15.5 -39q-169 -176 -169 -542q0 -189 78 -356z" />
    <glyph glyph-name="parenright" unicode=")" horiz-adv-x="344" 
d="M120 658q-9 -5 -19.5 -13.5t-16.5 -12.5t-12 -2q-6 24 23 78t56 62q20 -1 37.5 -13.5t23.5 -39.5q62 -114 62 -358q0 -139 -58.5 -290.5t-157.5 -269.5q-9 -10 -33.5 -28t-36 -18t-14.5 11q-10 42 5 57q95 100 140 251t45 312q0 3 0.5 35.5t0 41.5t-3 39.5t-7.5 49.5
q-16 65 -34 108z" />
    <glyph glyph-name="asterisk" unicode="*" horiz-adv-x="293" 
d="M202 486l1 -27q0 -38 -15 -57.5t-34 -19.5q-8 0 -15 7t-7 24.5t1 31t3 25.5l2 20q-16 -11 -29 -19l-21 -13q-12 -7 -21 -7q-6 0 -10 14.5t-4 24t2.5 16t50.5 40.5q-61 49 -61 62t10 19t28.5 6t60.5 -24v50q0 55 30 55q15 0 20 -13.5t6 -43.5l-1 -51q9 7 23 20
q32 28 44.5 28t20.5 -14.5t8 -24.5q0 -14 -58 -56q18 -12 29 -20q21 -15 29 -15l8 3q5 0 5 -19.5t-13.5 -32t-36 -12.5t-56.5 23z" />
    <glyph glyph-name="plus" unicode="+" 
d="M233 245l9 -107q0 -23 -30 -23q-15 0 -36 33.5t-21 54.5q0 2 3.5 20t3.5 34v19q-74 -2 -98 -2q-34 0 -34 48q0 29 25 29q40 0 106 -3q3 44 15.5 90t30.5 46q13 0 36 -14t23 -27t-3.5 -26.5t-9.5 -34t-10 -37.5q87 -3 103.5 -3t25 -19t8.5 -27q0 -26 -37 -26l-109 5
q-1 -10 -1 -30z" />
    <glyph glyph-name="comma" unicode="," horiz-adv-x="190" 
d="M61 159l-4 27q0 6 5 6q34 0 57 -40.5t23 -64t-4.5 -44.5t-31 -86.5t-41 -65.5t-22.5 33.5t-8 67t6.5 66l10.5 52.5q9 36 9 49z" />
    <glyph glyph-name="hyphen" unicode="-" horiz-adv-x="350" 
d="M144 163q-39 0 -72 15t-33 53q0 18 15 18q24 0 39.5 -2.5t42.5 -2t61.5 8t55.5 7.5t39.5 -13t18.5 -36q0 -45 -167 -48z" />
    <glyph glyph-name="period" unicode="." horiz-adv-x="180" 
d="M127 9q-15 -23 -39.5 -23t-38.5 21t-14 53.5t14 56.5t37 24t39.5 -19.5t16.5 -54.5t-15 -58z" />
    <glyph glyph-name="slash" unicode="/" horiz-adv-x="494" 
d="M70 -111q0 -11 -11 -11q-25 0 -42 46.5t-17 60.5t8 33q31 85 91.5 198t106.5 188t132.5 210t101.5 160t22 25q13 0 25 -41q7 -19 7 -28q0 -36 -57.5 -129t-111 -173t-107 -166.5t-94.5 -182t-53 -177.5z" />
    <glyph glyph-name="zero" unicode="0" horiz-adv-x="402" 
d="M392 452q0 -120 -38.5 -233.5t-116.5 -187.5q-42 -40 -77 -40q-23 0 -40 19q-90 100 -90 254q0 103 37.5 225t100.5 191q14 18 21 18q1 0 7 -3q17 28 51 28q18 0 40 -11q105 -52 105 -260zM311 518q0 78 -50 113q-7 5 -14 5q-22 0 -35 -33q-34 -90 -34 -169
q0 -42 6.5 -70t6.5 -36t-8 -8q-11 0 -19.5 14t-12.5 21.5t-9 17.5l-6 12q-15 -87 -15 -157q0 -126 22 -126q7 0 19 15q108 150 143 341q6 40 6 60z" />
    <glyph glyph-name="one" unicode="1" horiz-adv-x="205" 
d="M193 584q0 -47 -29 -229.5t-29 -249.5q0 -16 9 -46t9 -42.5t-15 -12.5q-56 0 -61 24l-12 42q-19 65 -19 105q0 223 88 504q10 31 17 31q3 0 12 -9q30 -31 30 -117z" />
    <glyph glyph-name="two" unicode="2" horiz-adv-x="380" 
d="M236 172l59 5q27 0 27 -46q0 -22 -18 -40q-75 -80 -187 -80q-21 0 -31 15q-27 44 -27 106.5t9.5 80t18.5 26.5q77 74 128.5 144.5t82.5 154.5q4 9 4 19.5t-2 17.5t-7.5 11.5t-9.5 7.5t-12.5 5t-12.5 3q-32 3 -55 3t-29 -24q-14 -61 -68 -102q-15 -11 -27 -11
q-20 0 -31 36.5t-11 63.5q0 56 73 101q-2 16 10 16q4 0 10 -4q50 22 89 22t74 -29q7 -6 21.5 -17.5t28.5 -24t26 -44.5t12 -71t-30 -105q-55 -121 -144 -221q-7 -11 -7 -12q0 -7 36 -7z" />
    <glyph glyph-name="three" unicode="3" horiz-adv-x="360" 
d="M87 346l-1 75q0 8 3.5 10.5t9 5t6.5 3.5q90 48 129 144q3 6 3 16q0 15 -26 15q-12 0 -19 -1q-2 -30 -55.5 -52.5t-60.5 -22.5q-32 0 -32 64l3 48q1 21 20 30q33 13 71 23q-3 8 -3 16t5.5 8t9.5 -2.5t9 -9t7 -8.5q10 2 30 2q38 0 76 -38q6 -6 15.5 -21t15.5 -22
q23 -26 23 -66.5t-23 -84.5t-46.5 -72.5t-23.5 -33.5t26.5 -31t53.5 -69t27 -84t-20 -81q-46 -92 -170 -119q-15 -3 -27.5 -3t-24 3t-19.5 11t-14.5 14t-10.5 20t-7 21t-5 25t-2 23q-3 28 -3 48v6q0 25 29 32q18 4 51 8.5t41.5 6.5t12.5 2t4 -7.5t-19 -34.5t-19 -29.5
t3.5 -2.5t12.5 3q85 30 85 93q0 30 -23.5 54.5t-53.5 24.5q-11 0 -32 -8.5t-30 -8.5t-10.5 13t-1.5 44z" />
    <glyph glyph-name="four" unicode="4" horiz-adv-x="442" 
d="M420 372.5q19 -18.5 19 -39t-19 -31.5q-22 -11 -68 -27l-15 -141q-4 -40 -4 -119q0 -12 -5 -23.5t-13 -11.5t-12.5 3t-9 8.5t-8 11t-7 13.5t-6 13t-5 12.5t-3.5 9.5q-17 41 -17 88q0 1 6 103q-63 -21 -90 -21q-84 0 -103 79q-23 92 -23 151q0 134 271 277q14 6 27.5 6
t20.5 -14q9 -14 16.5 -57t7.5 -61q0 -55 -17 -212q5 1 21.5 1t35.5 -18.5zM266 543q-21 0 -80 -74t-59 -97q0 -12 21 -12q9 0 24 2q60 8 92 12q2 23 6 66q8 70 8 86.5t-12 16.5z" />
    <glyph glyph-name="five" unicode="5" horiz-adv-x="375" 
d="M119 718l41 -2q50 0 81.5 5.5t32.5 5.5q22 0 41.5 -20t19.5 -38t-13 -28q-61 -52 -140 -54q-12 -14 -29 -52q97 -26 144 -103.5t47 -176.5t-48 -167q-71 -101 -143 -101q-58 0 -77 73q-15 56 -15 80.5t28 40.5q44 27 99 82q6 6 11 6q9 0 9 -18.5t-15.5 -54t-15.5 -41
t2 -5.5q4 0 16 9q73 61 73 160q0 46 -26.5 72t-74.5 26t-87 -47q-36 85 -36 131t56 190q6 19 9.5 23t9.5 4z" />
    <glyph glyph-name="six" unicode="6" horiz-adv-x="410" 
d="M100 205l-1 -16q0 -44 27 -51q-4 20 -4 46q0 72 36.5 138.5t96.5 110.5q22 15 42 15q40 0 66.5 -36.5t26.5 -77.5v-11q-14 -177 -129 -293q-37 -39 -74.5 -39t-59.5 16q-7 5 -24 24q-67 77 -67 243q0 110 36 200t109 182q20 25 50.5 46t55 21t35 -19t10.5 -50t-18.5 -64
t-52.5 -33q-3 0 -13 2q-123 -137 -148 -354zM303 302q0 16 -19 16q-10 0 -18 -8q-33 -32 -66.5 -81.5t-43.5 -87.5q33 14 75.5 60t66.5 86q5 8 5 15z" />
    <glyph glyph-name="seven" unicode="7" horiz-adv-x="344" 
d="M152 553l-42 4q-16 0 -24 -10.5t-16 -10.5q-20 0 -29 38t-9 69q0 69 16 69q6 0 10 -9t9 -12.5t9.5 -5.5t13 -3t12.5 -1h31.5t131.5 5q15 1 31 9t21 8q16 0 39 -27t23 -43.5t-12 -28t-18.5 -26.5t-44.5 -99q-95 -210 -95 -219t13 -24.5t13 -30t-22 -85t-31 -94.5t-28 -24
t-26 18q-19 53 -19 115.5t12 122.5t24 98.5t37.5 110t34.5 97.5q-33 -11 -65 -11z" />
    <glyph glyph-name="eight" unicode="8" horiz-adv-x="368" 
d="M303 640q49 -54 49 -115.5t-90 -170.5q77 -80 77 -200q0 -78 -39.5 -118.5t-116.5 -40.5q-105 0 -144 91q-19 47 -19 81t12 65t38 63q33 42 89 98q-56 71 -56 128q0 71 73 153q41 45 79 45q20 0 35 -15q9 -9 11 -25.5t4 -34.5zM293 572q0 15 -24 30q-73 -61 -89 -81
q-10 -10 -10 -26t29 -62q65 67 91 126q3 6 3 13zM258 170q25 16 25 45.5t-58 97.5q-21 -23 -66.5 -67t-60.5 -61t-15 -25q0 -18 71 -18q62 0 104 28z" />
    <glyph glyph-name="nine" unicode="9" horiz-adv-x="372" 
d="M144 224q-8 -64 -8 -68q0 -16 11 -16q33 0 60.5 65.5t27.5 104.5q0 8 -3.5 8t-10.5 -8.5t-15 -19t-22.5 -19t-27.5 -8.5t-29 6q-45 17 -66.5 65.5t-21.5 99.5t16 90q44 106 133 178q21 16 40 16t33 -11q97 -66 97 -257q0 -237 -153 -428q-21 -26 -50 -26t-44 28
q-12 21 -23 64.5t-11 68.5t27 33q9 3 17.5 9.5t10 8.5t12.5 16zM265 559q0 72 -13 72q-6 0 -13 -7q-53 -50 -120 -213q-4 -12 -4 -13.5t2.5 -1.5t22.5 7t47.5 35t41 48.5t36.5 58.5v14z" />
    <glyph glyph-name="colon" unicode=":" horiz-adv-x="231" 
d="M132 9q-15 -23 -39.5 -23t-38.5 21t-14 53.5t14 56.5t37 24t39.5 -19.5t16.5 -54.5t-15 -58zM166.5 246.5q-14.5 -20.5 -40 -20.5t-41 24t-15.5 52.5t16 53.5t39.5 25t39.5 -23.5t16 -57t-14.5 -54z" />
    <glyph glyph-name="semicolon" unicode=";" horiz-adv-x="232" 
d="M167 249q-15 -23 -39.5 -23t-38.5 21t-14 53.5t14 56.5t37 24t39.5 -19.5t16.5 -54.5t-15 -58zM56 132l-4 23q0 14 12 14q27 0 52.5 -29t25.5 -77q0 -37 -28.5 -104.5t-43 -67.5t-22.5 32.5t-8 55.5t3 60.5t8 61.5t5 31z" />
    <glyph glyph-name="less" unicode="&#x3c;" 
d="M294 365q-1 0 -47 -18.5t-81 -31.5q29 -8 86.5 -41t93.5 -39q42 -6 6 -71q-20 -35 -38 -37.5t-44 12.5t-64 42t-54 36.5t-44 20.5q-66 26 -68 37q0 11 25 56q8 15 18.5 19.5t50.5 21.5q106 47 151 71q6 26 20 27q11 2 26.5 -13t16.5 -33q6 -39 -54 -59z" />
    <glyph glyph-name="equal" unicode="=" 
d="M236 417l60 1q69 0 69 -67q0 -16 -15 -16l-182 3q-87 0 -99 -7q-4 -2 -5 -2q-13 0 -20 22t-7 35.5t7 25t19 11.5q82 -6 173 -6zM190 202l-106 -2q-19 0 -27 18.5t-8 36.5q0 30 26 30q63 0 91.5 -2.5t48 -3t51.5 -1.5t49.5 -1.5t30.5 -0.5t21.5 -22t8.5 -32q0 -26 -37 -26
z" />
    <glyph glyph-name="greater" unicode="&#x3e;" 
d="M105 257q3 1 58 20.5t90 31.5q-36 9 -87.5 40.5t-76 41.5t-26 23.5t10.5 33t30.5 22t44.5 -12.5t64 -42t54 -36.5t44 -20.5q66 -26 68 -37q0 -11 -25 -56q-8 -15 -17 -19t-97 -39.5t-126 -55.5q-6 -26 -20 -27q-7 -1 -17 12q-24 31 -26 62q-6 39 54 59z" />
    <glyph glyph-name="question" unicode="?" horiz-adv-x="307" 
d="M151 280q16 11 41.5 17t34.5 6t16 -4t7 -11q0 -18 -48 -52.5t-84 -34.5q-43 0 -43 74q0 47 28 91.5t71.5 92t59.5 76.5q9 24 9 28q0 24 -29.5 37.5t-52 13.5t-38 -15.5t-24 -34t-24.5 -34t-36 -15.5q-5 0 -10 21.5t-5 32.5q0 59 57.5 96t103.5 37q31 0 63 -32
q63 -63 63 -151q0 -47 -24 -89.5t-53 -67t-55 -47.5t-28 -35zM174.5 -4.5q-13.5 -19.5 -38 -19.5t-40 24.5t-15.5 57t12 53t34.5 20.5t41.5 -22.5t19 -58t-13.5 -55z" />
    <glyph glyph-name="at" unicode="@" horiz-adv-x="583" 
d="M406 412l-1 -12q-2 -23 -8 -64.5t-8 -68.5v-2q0 -21 9 -21q80 76 80 283q0 86 -100 86q-82 0 -145 -50.5t-93 -126t-30 -160.5q0 -122 41 -187q22 -36 58 -36q18 0 70 16t60 23l12 10q26 12 10 -75q-19 -20 -57 -33.5t-76.5 -13.5t-91.5 32q-36 21 -67.5 94t-31.5 149
t24.5 150.5t68.5 136t114 99.5t153.5 38t124.5 -52t41 -183t-59 -220q-34 -52 -84 -64q-31 0 -53.5 38t-28.5 75q0 -1 -7.5 -14.5t-11 -20.5t-12 -20.5t-14.5 -21.5t-14 -17q-16 -18 -35.5 -18t-38.5 28q-6 8 -11.5 24.5t-14.5 30t-9 37t9 41.5q63 124 132 169q8 7 21 7
t24 -8.5t13.5 -11.5t4 -8t2.5 -7q3 -14 3 -18q27 -9 27 -33zM350 448q-97 -87 -122 -200q77 67 122 200z" />
    <glyph glyph-name="A" unicode="A" horiz-adv-x="601" 
d="M324 299q49 221 49 332v26q0 17 8.5 25.5t18 10t38 1.5t60 -21t31.5 -57q0 -7 -9 -87t-12 -205q34 14 54.5 29.5t27.5 15.5q11 0 11 -20.5t-31 -52t-62 -51.5q0 -22 2 -70q3 2 8.5 2t11 -3t10 -7t10.5 -11.5t9 -11.5t8 -11.5t6 -8.5q18 -27 18 -42.5t-6 -35.5
q-23 -59 -31 -103q-4 -21 -24 -21q-22 0 -30.5 11.5t-13 18.5t-8 20t-5.5 20.5t-4 23.5q-3 21 -4 42l-1 16q-4 48 -10 146q-26 -9 -80 -11q-16 -72 -32.5 -132.5t-54 -96.5t-91.5 -36q-16 0 -38 5q-129 35 -176 163q-12 33 -12 58q0 60 50 82q108 49 211 49zM450 309
q-4 88 -8 268q-8 -46 -24.5 -138t-24.5 -138q38 4 57 8zM301 208h-64q-122 0 -195 -17q-41 -8 -41 -30q0 -17 27 -44t70 -41.5t72 -14.5t48.5 10t31 21t22.5 36q14 31 29 80z" />
    <glyph glyph-name="B" unicode="B" horiz-adv-x="478" 
d="M13 564q-6 0 -10 2.5t-6 8.5t-3.5 11.5t-2 14t-0.5 13.5v27q0 25 10 25q2 0 6 -2q93 38 194 38q140 0 193 -88q30 -51 30 -97t-42.5 -91.5t-121.5 -100.5q167 -51 197 -163q6 -19 6 -40q0 -118 -213 -161q-40 -9 -65 -9t-44 11.5t-19 30t12 42.5q-3 33 -3 82.5t12 136.5
q-10 1 -16.5 8t-6.5 17.5t3.5 29.5t4.5 26q5 38 30 55q13 168 16 201q-46 0 -78.5 -4t-54.5 -14t-28 -10zM334 545q0 14 -34.5 30.5t-112.5 16.5q31 -17 31 -58v-8q-5 -38 -5 -62.5t1 -33.5q120 91 120 115zM370 104q21 12 21 29.5t-15 36.5q-41 52 -144 83q-12 4 -18.5 4
t-12.5 -3q-17 -96 -18 -153q8 21 31.5 39t38.5 18t15 -5q0 -7 -22.5 -14.5t-36 -22t-13.5 -43t27 -28.5q50 0 147 59z" />
    <glyph glyph-name="C" unicode="C" horiz-adv-x="384" 
d="M359 224q0 -130 -100 -235q-21 -22 -58 -22q-60 0 -99 30q-72 55 -72 220q0 109 44 230t112 221q10 12 15 12t11.5 -3t14 -7t10.5 -5v30q-6 12 -6 21t8 9t17 -3q88 -30 88 -144q0 -65 -33 -133q-9 -18 -16 -18q-5 0 -15 16q-32 66 -41 171q-15 0 -22 -11t-24 -58
q-63 -170 -63 -349q0 -99 22 -169q65 61 112.5 151.5t70.5 185.5q24 -79 24 -140z" />
    <glyph glyph-name="D" unicode="D" horiz-adv-x="490" 
d="M14 566l-4 39q0 13 11 20q57 38 161 63q43 9 71 9q142 0 205 -174q22 -62 22 -131q0 -104 -55 -210t-113 -171q-32 -34 -68 -34t-56 28t-20 71.5t16 97.5t50 68q-5 -23 -5 -48.5t17.5 -62.5t41.5 -37t39 28q62 112 62 255q0 170 -89 220q-26 14 -50 14t-52 -14
q8 -43 8 -108.5t-22.5 -209t-22.5 -218.5v-32q0 -26 -12 -34t-25 -8q-37 0 -52 137q-6 55 -10 74q3 1 9 1q18 0 42 -26v26q-1 79 21 288q1 8 1 29.5t-4 44.5q-7 -4 -28 -21q-49 -40 -69.5 -40t-20.5 35z" />
    <glyph glyph-name="E" unicode="E" horiz-adv-x="452" 
d="M145 443q0 -34 139 -34h17q27 15 34 15q17 0 42.5 -27.5t25.5 -63.5q0 -12 -13 -12q-4 0 -37 6q-10 -3 -37.5 -11t-37.5 -11t-33 -11t-33.5 -13.5t-29 -15.5t-30.5 -21q-38 -37 -52 -58q-26 -36 -26 -74.5t18 -58t59.5 -19.5t99 20.5t57.5 59.5q0 13 -6 25.5t-19.5 12.5
t-82 -40.5t-72.5 -40.5t-4 8.5t7 20.5q29 49 76 78t98 29t86.5 -30t35.5 -68.5t-20 -64.5q-61 -80 -232 -80q-106 0 -157 82q-28 43 -28 83t25 97.5t66.5 86.5t106.5 52q-97 31 -97 123q0 55 46 94q39 34 102.5 70.5t79.5 47t34 10.5t41 -27q12 2 17 2q23 0 33 -20
q8 -19 8 -25q0 -36 -153 -97q-6 -2 -8 -2q-6 0 -6 8.5t10 38.5l-33 -16q-58 -30 -71 -44q-24 -29 -35 -54t-11 -31z" />
    <glyph glyph-name="F" unicode="F" horiz-adv-x="501" 
d="M402 418q133 57 141 57t8 -12.5t-26 -51.5q-48 -75 -137 -110q-23 -127 -89 -251q-44 -86 -99 -86q-31 0 -67 30q-25 22 -34 44q-13 31 -21.5 59t-8.5 61.5t20 69t54 62.5q60 49 139 81l41 16q2 19 2 77.5t-12 117.5q-7 44 -46 44q-18 0 -32 -8t-18 -33
q-27 -132 -100 -221q-30 -37 -51.5 -37t-36.5 28q-3 8 -4.5 23.5t-3 24.5t-1.5 17q0 50 64 118q24 26 44 64.5t20 79.5l-1 25q0 13 7 13q9 0 56 -47q32 21 74.5 21t72.5 -35.5t38.5 -92t6.5 -148.5zM305 276l-47 -12q-21 -5 -61.5 -9t-59.5 -8q-37 -7 -37 -38t41 -71.5
t67.5 -40.5t36.5 20q38 68 60 159z" />
    <glyph glyph-name="G" unicode="G" horiz-adv-x="443" 
d="M248 276l-17 -1q-29 0 -47 15.5t-18 25.5t13 16.5t85.5 39.5t101 47t42 14t30.5 -14.5t17 -28t-5 -22t-15.5 -16t-18 -12t-22 -11t-17.5 -8.5q-22 -10 -22 -22l3 -9q26 -49 26 -97q0 -72 -51 -149q-46 -66 -121 -66q-50 0 -92 19.5t-59 60.5q-31 78 -31 166q0 64 9 103
t13.5 60t17.5 55.5t18 49.5t22.5 54.5t21.5 48.5q28 63 47 101q10 23 38.5 23t60.5 -10.5t47 -26.5q28 -30 28 -58.5t-36 -85.5q-11 -16 -11 -48q-2 -14 -15 -14q-8 0 -14 5t-7.5 10.5t-4 15.5t-3.5 13q-10 28 -10 92q0 13 -8 13t-42 -86q-79 -196 -79 -339q0 -77 12 -125
q5 -21 26 -21t45 31q67 87 67 164q0 27 -25 27z" />
    <glyph glyph-name="H" unicode="H" horiz-adv-x="472" 
d="M62 297l34 -9q18 0 77 17q11 51 35 145q38 145 38 161t-10 16q-12 0 -35.5 -6t-23.5 -16q0 -7 15.5 -24t15.5 -23.5t-1 -8.5q-78 -99 -139 -145q-10 -8 -20 -8q-22 0 -31 30q-2 7 -10 24q-17 38 -17 57.5t16 37.5q70 70 174 145q12 10 33 10t47 -8.5t46.5 -52.5
t20.5 -68.5t-8 -65t-38 -172.5l49 11q19 164 66 330q2 6 2 11.5t-5 14.5t-5 13.5t5.5 4.5t12.5 -5q41 -27 41 -52q0 -12 -3 -24q-27 -124 -42 -278q6 1 17 1t39.5 -10.5t28.5 -26.5q0 -6 -7 -12t-33 -28.5t-35 -25.5t-19 -6q-6 -66 -6 -90.5t8 -68t8 -57t-6 -31.5t-19 -18
q-8 0 -21 11q-45 42 -45 92.5t8 138.5q-31 -8 -68 -21q-26 -113 -26 -139l10 -68q0 -16 -10 -32t-22.5 -16t-20.5 9t-17.5 28t-9.5 20q-19 35 -19 64t11 106q-32 4 -45 20t-30.5 47.5t-17.5 41t7 9.5z" />
    <glyph glyph-name="I" unicode="I" horiz-adv-x="293" 
d="M207 634q0 34 -14 34t-28.5 -21t-14.5 -29t5 -30t5 -45.5t-17 -98t-27.5 -99t-24.5 -24.5q-11 0 -19.5 9.5t-20 28.5t-21.5 32.5t-10 30.5t31 86.5t52 110.5q-14 17 -14 23q0 12 17 12q5 0 13 -4q2 3 9 16.5t10 18.5t10.5 15.5t13.5 15.5q19 12 36 12q75 0 74 -218v-9
q0 -231 -54 -529q-5 -22 -22 -22q-19 0 -44 24t-38 37q-35 35 -47 51q-15 17 -15 32t11.5 37.5t24.5 22.5t25.5 -21t20.5 -21t10.5 15.5t5.5 43.5q8 59 32.5 209t24.5 223v31z" />
    <glyph glyph-name="J" unicode="J" horiz-adv-x="376" 
d="M344 710l117 1q25 0 45 -12.5t20 -32.5q0 -40 -78 -58q-40 -9 -76 -8t-71 1q-40 -59 -40 -122q0 -34 15 -100q28 -116 28 -160.5t-4 -68t-9 -43t-15 -42.5q-19 -47 -63 -59t-88 -12q-82 0 -155 42q-30 17 -30 49q0 17 3 33q5 38 21 44q79 32 159 32t80 -13
q0 -9 -27 -21.5t-36 -17.5q-23 -11 -40 -30q7 1 19 4q26 5 41 5q89 6 89 151q0 42 -14 124t-14 125.5t11 81.5q-73 3 -149 9q-55 4 -58 41q-2 28 -2 41q0 21 18 21z" />
    <glyph glyph-name="K" unicode="K" horiz-adv-x="532" 
d="M210 624v-10v-13q0 -54 -46.5 -108.5t-102.5 -90.5q-14 -8 -23 -8q-17 0 -27.5 25.5t-10.5 43t13 35.5q86 114 189 184q20 14 45.5 14t55.5 -16q42 -22 42 -84q0 -30 -13.5 -73.5t-25 -78t-13.5 -41.5q48 45 114 149q25 40 35 55q52 82 63 105q0 25 15 25
q10 0 23.5 -12.5t21 -18.5t7.5 -13t-6 -17q-75 -170 -247 -352q-2 -2 -2 -5q0 -15 34 -15q49 -13 77 -75q4 -8 20.5 -48.5t26.5 -61.5q10 -24 25 -24q6 0 14 5t11 5q15 0 15 -37.5t-5 -51t-30.5 -32.5t-42 -19t-45.5 34.5t-58 120.5t-38 105q-11 26 -26.5 26t-26 -17.5
t-26.5 -16.5q-15 -70 -15 -112.5t3 -60.5t3 -28t-14 -23t-27.5 -13t-33.5 22q-13 13 -14 23q-2 19 -4 50t-2 54q0 77 17.5 154t49.5 174q47 142 47 162t-18 20q-22 0 -24 -15z" />
    <glyph glyph-name="L" unicode="L" horiz-adv-x="396" 
d="M230 672l-4 25q0 4 3 4t18 -10t35.5 -23t26.5 -40t6 -79.5t-31 -91.5q-11 -14 -17 -14q-12 0 -14.5 23t-12.5 23q-7 0 -8 -15q-3 -24 -3 -89q-8 -171 -58 -278q28 -5 52 -5q95 0 140 52q9 12 15.5 12t6.5 -18q0 -51 -10 -94q-15 -63 -83 -63t-162 49q-35 -48 -65.5 -48
t-77.5 47.5t-47 76.5q0 16 17.5 25t37.5 9t88 -22q33 62 41 141t30 230.5t26 182t13 30.5t37 -46v6zM51 83l-18 8q-3 0 -3 -10.5t8 -10.5q4 0 13 13z" />
    <glyph glyph-name="M" unicode="M" horiz-adv-x="715" 
d="M710 322q5 0 5 -11t-1 -22q-16 -190 -95 -278q-26 -29 -85 -31q-72 26 -72 127q0 18 4 45.5t67 387.5q-88 -178 -113 -434q-3 -30 -5 -45q-4 -32 -27 -32q-31 0 -66 47q-12 16 -12 40t1.5 53t5.5 64t6 56t9.5 64t9.5 55.5t11.5 63.5t10.5 57q-15 -15 -26.5 -45
t-18.5 -48.5t-14 -44.5t-12 -45t-11.5 -46t-9.5 -41q-7 -26 -23 -97t-20.5 -89.5t-7 -30t-4 -16t-5.5 -12.5q-8 -14 -25.5 -14t-30 12.5t-16.5 22t-10.5 27t-6.5 27.5t6 35t14.5 62t11 47.5t10 44.5t10.5 48t9 44.5t9 48t8 45t8 48.5q10 66 12 92v7q0 18 -8 18t-26 -28
t-25 -43t-10 -41q-14 -139 -72 -226q-7 -10 -22 -10t-31.5 16t-16.5 33q0 102 69 236q27 51 44 151q27 -40 33.5 -53t14.5 -13q4 0 18 12t41.5 12t44.5 -14t21.5 -32t6.5 -54q6 5 21 19q32 28 56.5 28t44 -26.5t17.5 -54.5q12 14 44 69q23 36 61 36q63 0 63 -57
q0 -26 -24 -144t-35 -194.5t-11 -144.5v-19q33 28 64.5 70.5t46.5 68t47 82.5q9 14 12 14z" />
    <glyph glyph-name="N" unicode="N" horiz-adv-x="601" 
d="M308 22l2 -18q0 -21 -16.5 -36.5t-38.5 -15.5t-45.5 29.5t-23.5 50.5q0 25 13 51q1 7 7 70t31.5 212.5t32.5 203.5v10q0 24 -17.5 24t-35.5 -18q2 -4 2 -16t-27 -76.5t-77 -195.5q-15 -36 -40 -36t-45 30t-20 51.5t7 40.5q25 60 57 119.5t50.5 94.5t28 51t19.5 16t18 -2
q19 23 51 23t64.5 -20t32.5 -100q0 -28 -5 -80.5t-6 -66.5q81 231 144 289q11 11 31 11q45 0 56.5 -17.5t11.5 -64t-9 -100.5t-28 -136.5t-24.5 -109t-5.5 -51.5t3 -25q8 0 40.5 53.5t38.5 53.5t6 -19q0 -67 -15.5 -142t-44 -114t-51.5 -39q-10 0 -25 11.5t-18 14.5
q-33 36 -33 105q0 61 62 362q19 96 26 133q-75 -126 -116.5 -266.5t-64.5 -319.5z" />
    <glyph glyph-name="O" unicode="O" horiz-adv-x="427" 
d="M427 398q0 -81 -60 -137q-39 -146 -95 -232q-33 -49 -77 -49q-23 0 -54 18q-83 51 -97 118t-14 140q0 190 96 390q12 23 25 23q2 0 47 -18q25 58 102 58q40 0 59 -15q43 -34 43 -172q0 -46 -7 -107l24 48q8 -34 8 -65zM321 594q0 17 -7.5 33t-20.5 16t-22.5 -11
t-21.5 -31q-57 -92 -57 -223q0 -33 18.5 -68.5t48.5 -35.5q5 0 13 2q49 147 49 318zM254 228q-31 8 -57 28.5t-38 48.5q-22 58 -22 103t6 75q-43 -89 -43 -200.5t25 -193.5q9 -30 28 -30q13 0 24 18q43 60 77 151z" />
    <glyph glyph-name="P" unicode="P" horiz-adv-x="416" 
d="M80 143l-3 98q0 190 48 350q-20 -14 -33 -31q-33 -43 -65.5 -43t-32.5 43q0 68 46 93q40 23 93.5 41.5t92.5 18.5q88 0 144 -69t56 -158q0 -55 -19 -114q-30 -90 -115 -119q-46 -16 -85 -16t-59 19v-43q0 -78 9 -156l1 -15q0 -33 -31 -49q-22 -12 -40 -12t-38 33
q-33 53 -56 151q-3 13 -3 21.5t7.5 8.5t39 -35t37.5 -35t6 18zM373 520q0 58 -40 86t-102 28q-37 0 -60 -15q5 -22 5 -35.5t-2 -32.5t-7 -64t-7 -68q27 32 84 32q15 0 15 -4.5t-10 -4.5q-68 0 -68 -41q0 -48 37 -48q7 0 19 2q136 29 136 165z" />
    <glyph glyph-name="Q" unicode="Q" horiz-adv-x="418" 
d="M384 59q14 0 14 -34.5t-20 -55.5t-53 -21q-50 0 -94 46q-22 -27 -49 -27t-58 24q-2 2 -12 8.5t-14 9.5t-11 9q-13 11 -19 25q-38 77 -38 189q0 157 72 357q7 17 13 17t15 -9q3 6 15 30.5t18.5 36t20 31.5t25.5 30q31 26 59 26t48 -11q49 -28 61 -73q16 -67 16 -170.5
t-32.5 -230.5t-92.5 -222q31 -29 51.5 -29t38 22t26.5 22zM310 609q0 26 -10.5 52t-30.5 26t-35 -19q-96 -115 -96 -302q0 -38 2 -58t14 -47t37 -42q5 -3 5 -6q0 -9 -10 -9t-18 3q-38 16 -63 74q-5 -38 -5 -70q0 -136 55 -174q17 21 31 48q-6 28 -6 40t2.5 12t18.5 -21
q45 99 77 243t32 250z" />
    <glyph glyph-name="R" unicode="R" horiz-adv-x="460" 
d="M8 677l24 -4q11 0 31 6q108 34 168.5 34t109.5 -18.5t84 -58.5t35 -86t-18.5 -82.5t-51.5 -65.5q-58 -49 -135 -87q66 -35 66 -123l-1 -43q0 -69 36 -69q37 0 76 32q13 10 16 10q8 0 8 -12q0 -35 -44 -93q-26 -31 -59 -31q-45 0 -74.5 49t-29.5 97l2 53q0 67 -21 85
q-11 9 -29 18l-32 -15q-13 -97 -13 -156l1 -87q0 -37 -21 -37q-8 0 -24 9q-64 40 -86 144q-1 5 -1 8q0 9 14.5 9t25 -8.5t15.5 -17t8 -8.5q9 0 9 17l-4 47q3 155 25 321q7 44 10 56t3 17.5t-1 8.5q-39 -11 -54.5 -26.5t-27 -15.5t-18 2t-12 8.5t-8.5 9.5q-20 29 -20 51
q0 52 18 52zM380 566q0 25 -44.5 36.5t-78 11.5t-58.5 -4q-3 -12 -3 -68.5t-12 -157.5q120 45 190 162q6 12 6 20z" />
    <glyph glyph-name="S" unicode="S" horiz-adv-x="419" 
d="M400 690q44 -52 44 -62t-10 -22q-47 -53 -110 -107q-14 -12 -21 -12q-10 0 -10 15.5t13.5 41.5t13.5 30t-3.5 4t-9.5 -2q-115 -41 -160 -129q-10 -20 -10 -33q0 -26 40 -49q6 -4 54 -29q97 -52 122 -84q40 -50 40 -98q0 -19 -10.5 -39.5t-26.5 -30.5q-169 -105 -301 -105
q-70 0 -70 64q0 21 14 40q-24 17 -24 36.5t27 39.5q64 48 206 48q15 0 36 -10.5t34 -22.5q25 14 25 25t-13 22q-19 14 -70.5 37t-65.5 31q-42 24 -64.5 69t-22.5 95.5t25.5 92t71.5 72.5q70 47 175 86q14 4 22 4q23 0 39 -18zM210 136q-10 2 -23 2t-50.5 -12t-37.5 -27
q0 -6 7 -6q27 0 104 43z" />
    <glyph glyph-name="T" unicode="T" horiz-adv-x="381" 
d="M176 132l-3 79q0 188 60 355q-43 5 -52 5q-40 0 -65.5 -15.5t-51.5 -36.5q-38 -32 -79 -32q-17 0 -26 7.5t-11 15.5t-3 24t-3 25t-2 18t15 22q86 76 257 76q33 0 66 -3l8 18q5 -7 13 -19h19q94 0 206 38q8 2 11 2q16 0 16 -17t-18 -35q-89 -98 -237 -96q-25 -97 -34 -237
t-11 -159t-2 -33t9 -55t9 -47q0 -29 -30 -29q-46 0 -96 102q-10 18 -10 34.5t8 16.5t19.5 -16t14.5 -16t3 8z" />
    <glyph glyph-name="U" unicode="U" horiz-adv-x="563" 
d="M486 648q-56 -171 -56 -354t28 -183q6 0 11 5q58 60 64 136q0 20 5 20t15 -16.5t10 -59.5t-34.5 -111t-77.5 -68q-24 0 -44 19t-27 49.5t-12.5 71t-10.5 90.5t-9 77q-7 -27 -26 -109t-30 -122q-27 -92 -85 -92q-28 0 -49 16.5t-26 43.5q-12 56 -12 134.5t18.5 162.5
t38 145.5t19.5 72.5t-5 11t-16 -12t-25.5 -34.5t-22 -38t-21.5 -47.5t-20 -44q-14 -29 -36.5 -29t-36 27t-13.5 50t17 42q64 72 133 193l14 -11q23 7 28.5 7t12.5 -2.5t25 -7.5t24.5 -7.5t18.5 -9t16 -13.5q12 -23 12 -50t-6 -51.5t-46 -168t-49 -221.5v-9q0 -17 6 -17
t12 16q74 180 159 440q6 20 6 30l-7 30q0 11 11 17q16 11 44.5 23t44.5 12t16 -16.5t-6 -36.5z" />
    <glyph glyph-name="V" unicode="V" horiz-adv-x="479" 
d="M239 188q0 -93 17 -93q7 0 18 16q16 27 37 72q90 191 90 395q0 50 -4 88.5t-4 42.5q0 37 28 37q18 0 27 -32q21 -80 21 -180q0 -244 -142 -493q-30 -51 -68 -51q-22 0 -44 20q-63 58 -63 176q0 188 86 404q4 10 4 16q0 15 -12 15q-6 0 -17 -7.5t-17.5 -17t-13.5 -22.5
t-11 -19q-57 -78 -90 -97q-15 -8 -30.5 -8t-33 18t-17.5 32t6 30q37 81 169 162q24 15 58 15t61 -28.5t27 -70.5q0 -24 -5 -40.5t-13.5 -45.5t-11 -38t-10 -35.5t-10 -37.5t-8.5 -35t-8.5 -38t-6 -36t-4.5 -38q-5 -50 -5 -76z" />
    <glyph glyph-name="W" unicode="W" horiz-adv-x="611" 
d="M505 702q81 -146 81 -313t-92 -324q-32 -55 -90 -55q-63 0 -87 73q-11 33 -17.5 72.5t-8.5 49.5q-8 -16 -28.5 -66.5t-34.5 -76.5q-21 -42 -60 -42q-29 0 -52 22q-19 20 -24 78q-1 19 -2.5 35t-1.5 30t3 34t6.5 38t11.5 43t14 42.5t17.5 45.5t17.5 42.5t19.5 43.5
t18.5 40q13 31 33 71q-65 -69 -139 -95q-21 -7 -42.5 -7t-34.5 17t-13 48t38.5 67t86.5 57t86.5 21t72 -25t33.5 -66q0 -15 -11.5 -46t-44.5 -112q-72 -179 -96 -282q-2 -8 -2 -15.5t7 -7.5q30 0 120 271q-7 9 -7 18q0 13 24 13q49 0 66 -2t17 -11t-7 -14q-11 -117 -11 -157
t8 -103t25 -63q15 0 30 37q67 147 67 288.5t-74 261.5q-11 16 -11 31q0 24 35 24t53 -31zM165 645q-67 -11 -100 -44q-11 -11 -11 -20t12 -9q33 0 99 73z" />
    <glyph glyph-name="X" unicode="X" horiz-adv-x="473" 
d="M456 677q17 -15 17 -36.5t-18 -73.5t-34 -52q-12 0 -18 79q-59 -87 -113 -201q0 -155 16 -218q15 -56 45 -95q29 19 75 99q11 18 17 18q13 0 13 -54.5t-32 -118.5q-17 -34 -53 -34q-9 0 -34 6.5t-49.5 30.5t-39.5 59q-23 56 -33 134q-48 -118 -70 -168.5t-43 -50.5
q-11 0 -29 10q-30 16 -40 45.5t-10 73.5q0 15 10.5 15t26.5 -15l15 -16q5 0 9 13q97 212 118 253q0 72 -6 139q-11 110 -30 110q-6 0 -16 -18.5t-31.5 -65.5t-36 -73.5t-33 -26.5t-34 19t-15.5 42t30.5 82.5t52.5 84.5q3 18 7 49q7 -4 13 -31q23 17 48.5 17t50.5 -10
q78 -29 82 -106q2 -36 2 -55q59 101 101 162q14 19 23.5 19t17.5 -7.5t16 -19t12 -14.5z" />
    <glyph glyph-name="Y" unicode="Y" horiz-adv-x="517" 
d="M522 727q65 0 65 -22q0 -9 -9 -25q-123 -215 -155 -480q-11 -86 -11 -120q0 -17 12 -17q4 0 7 10t6 10q7 0 19.5 -22.5t12.5 -33.5q0 -29 -47 -132q-17 -39 -37 -39q-4 0 -12 4q-42 25 -42 134.5t30 295.5q-8 -10 -28 -38.5t-33.5 -45t-34.5 -36.5q-41 -41 -86 -41
t-75 32q-9 10 -27.5 48.5t-18.5 83t20.5 93.5t41.5 86.5t36 61.5q28 41 87 127q6 10 6 16q0 14 -23.5 14t-43.5 -9t-23 -13t-5 -14l1 -13q0 -23 -17.5 -40.5t-37.5 -32t-45 -14.5t-34.5 4.5t-14.5 14.5q-6 14 -6 44t23 46q3 2 28 18.5t32.5 21.5t30 17.5t35.5 16.5
q42 15 76.5 15t65.5 -25.5t31 -67.5q0 -27 -17.5 -66.5t-69 -116t-66.5 -101.5q-39 -71 -39 -110t18 -39q17 0 49 28.5t49 47.5t40.5 52t34 50t33.5 55t36 59q55 93 89 157q-2 10 -2 17q0 34 45 34z" />
    <glyph glyph-name="Z" unicode="Z" horiz-adv-x="436" 
d="M292 671l29 1q105 0 139 -87q6 -17 6 -34q0 -47 -42 -90.5t-120.5 -110.5t-110.5 -98q-75 -72 -75 -118q0 -28 37 -28q74 0 236 27l9 1q13 0 13 -13t-6 -29q-26 -86 -195 -86q-58 0 -95 14t-57 60q-12 26 -12 55q0 58 49.5 117t141.5 156.5t118 128t26 38.5q0 17 -71 17
q-37 0 -107 -6q-57 -34 -147 -34q-25 0 -36.5 7.5t-11.5 35.5t7.5 46t38 31.5t98 37.5t81.5 24t19.5 -7.5t11.5 -24.5l7 -17q6 -14 19 -14z" />
    <glyph glyph-name="bracketleft" unicode="[" horiz-adv-x="350" 
d="M331 766l25 2q16 0 24 -20.5t8 -32.5q-3 -19 -34 -29.5t-60.5 -10.5t-75.5 7q-5 -307 -64 -660q-16 -97 -21 -131q-1 -12 6 -12l127 5q19 0 33.5 -11.5t11.5 -36.5q-6 -51 -173 -51q-45 0 -72 48.5t-21 93.5t94 680q6 44 11 142q1 9 13 16t24 9z" />
    <glyph glyph-name="backslash" unicode="\" horiz-adv-x="543" 
d="M3 772q-3 6 -3 12t11 6t45.5 -24t52.5 -47q120 -159 212 -321t194 -373q28 -57 28 -81t-10.5 -45t-16.5 -21q-14 0 -23 18q-3 6 -21 49q-62 143 -83 185q-135 278 -323 556q-45 48 -63 86z" />
    <glyph glyph-name="bracketright" unicode="]" horiz-adv-x="350" 
d="M40 787l165 -5q39 0 70 -53.5t27 -88.5q-9 -88 -30 -300q-43 -420 -60 -534q-7 -27 -109 -29q-46 -1 -111 15q-33 8 -28 48.5t23 42.5q21 0 72.5 -6.5t87.5 -6.5q0 270 39 582q20 155 26 216q1 20 -6.5 25t-35.5 5t-56 -4t-46 -4q-23 0 -34 34q-22 63 6 63z" />
    <glyph glyph-name="asciicircum" unicode="^" horiz-adv-x="500" 
d="M336 446q-13 67 -46 154q-11 -28 -54.5 -91t-53.5 -99q-5 -20 -21.5 -20t-40 21.5t-23.5 40t17.5 42.5t48.5 59.5t42 50t25 40.5q34 64 44 64q8 0 53 -30q12 -9 16.5 -20t17.5 -54q29 -95 54 -157q25 -9 25 -23q0 -11 -16.5 -24.5t-34.5 -13.5q-38 0 -53 60z" />
    <glyph glyph-name="underscore" unicode="_" horiz-adv-x="521" 
d="M149 -192q-149 0 -149 59q0 21 26 21q38 0 62 -2.5t82 -2.5q41 2 270 2q33 0 57 -11.5t24 -31.5q0 -24 -105 -30q-94 -4 -175 -4h-92z" />
    <glyph glyph-name="grave" unicode="`" 
d="M206 538q-8 12 -20 27.5t-37 39.5t-37 35.5t-12 18.5q0 10 21 22t34 12t17 -1t8.5 -4.5t7.5 -6.5t8 -11t9.5 -15t13 -21t12.5 -20.5t23 -34.5q38 -58 38 -71t-12 -13t-22 2.5t-16.5 5t-13.5 9.5l-11 11q-3 3 -11 15z" />
    <glyph glyph-name="a" unicode="a" horiz-adv-x="418" 
d="M237 132q-82 -147 -125 -147q-31 0 -56 38q-7 10 -15 31.5t-19.5 39.5t-11.5 48.5t12 54.5q82 162 173 222q12 9 28 9t40 -18q14 -14 17 -24q5 -22 5 -27q35 -12 35 -44q0 -22 -12 -99.5t-14 -115.5q0 -21 14 -21q16 0 57.5 56t47.5 56q10 0 10 -33l-2 -49
q0 -28 -25 -76.5t-64 -48.5q-24 0 -38 16q-5 5 -15 20q-31 45 -42 112zM246 363q-126 -115 -160 -263q101 87 160 263z" />
    <glyph glyph-name="b" unicode="b" horiz-adv-x="332" 
d="M126 113l29 -5q34 0 48 33q9 20 23 68.5t14 63.5q0 28 -22 28q-3 0 -7 -1q-56 -13 -77 -54q-30 -56 -30 -122q0 -32 7.5 -69t7.5 -47q0 -40 -23 -40q-25 0 -60 100q-15 43 -20.5 56t-5.5 29q0 31 39 103q20 261 74 473q6 20 15 20q11 0 16.5 -17t5.5 -27.5t-9.5 -90
t-20.5 -248.5q53 48 93 48q25 0 43.5 -19.5t28.5 -48.5q19 -57 19 -108q0 -131 -91 -253q-18 -24 -37 -24q-25 0 -48 53t-23 84q0 15 11 15z" />
    <glyph glyph-name="c" unicode="c" horiz-adv-x="277" 
d="M269 162q0 -64 -41 -124t-104 -60q-50 0 -79.5 60.5t-29.5 128t36.5 147.5t95.5 128q13 12 33 12t47 -23q14 -13 14 -54t-24 -128q-6 -22 -16 -22q-19 0 -29 107q-1 17 -2 21q-49 -54 -76.5 -122.5t-27.5 -132.5q0 -33 22 -33q38 0 120 68q15 13 22 19.5t21 19t16 14.5
q2 -9 2 -26z" />
    <glyph glyph-name="d" unicode="d" horiz-adv-x="384" 
d="M382 142l3 -52q0 -55 -29 -55q-23 0 -40 24t-26 43.5t-18 37t-16 41.5q-1 -3 -6 -21l-8 -27q-12 -44 -18.5 -58.5t-14 -32t-15.5 -28t-17 -20.5q-18 -21 -43.5 -21t-49.5 29q-41 48 -60 120q-9 30 -9 69t24 86.5t72 104.5t89 57q22 0 50 -21q6 54 20 153t17 129.5
t21.5 30.5t27 -19.5t8.5 -38.5t-3 -35q-28 -286 -28 -465q0 -27 15 -27t32.5 23.5t23 23.5t5.5 -8zM224 333q0 12 -11.5 12t-27.5 -10q-52 -29 -85.5 -90t-33.5 -122q0 -37 23 -37q9 0 20 11q56 59 111 218q4 10 4 18z" />
    <glyph glyph-name="e" unicode="e" horiz-adv-x="337" 
d="M317 132q0 -152 -154 -152q-64 0 -93.5 33t-51.5 101q-8 26 -8 55.5t26.5 79t58.5 86.5q4 55 25 55q11 0 15 -13q21 19 51 37t54 18t49.5 -28t25.5 -57.5t-41 -80.5q-77 -96 -121 -96q-32 0 -50 53q-1 -2 -9.5 -16.5t-12 -21.5l-9.5 -19q-10 -23 -10 -41q0 -41 41 -41
q68 0 115.5 28.5t94.5 86.5q4 -44 4 -67zM201.5 292q31.5 39 31.5 53.5t-10.5 14.5t-36 -26t-40.5 -45q-2 -12 -2 -18q0 -18 10 -18q16 0 47.5 39z" />
    <glyph glyph-name="f" unicode="f" horiz-adv-x="367" 
d="M56 435l-3 -29q0 -16 9 -16q4 0 9 5q35 35 75 126t81 167q11 23 30 23t29.5 -14t10.5 -31.5t-10 -30.5q-61 -92 -126 -302q43 16 91 60q19 16 41.5 16t53 -18.5t30.5 -41t-39.5 -50.5t-75.5 -45q43 -57 62.5 -109t19.5 -118q0 -174 -136 -380q-14 -20 -31.5 -26t-41 -6
t-32 6t-16 18t-22 34t-21.5 35q-34 67 -34 164q0 82 10 160q14 98 30 205q-15 18 -15 37.5t16 30.5q-24 54 -27.5 70.5t-3.5 32.5q0 54 19 54q7 0 12 -9.5t5 -17.5zM228.5 -112q38.5 108 38.5 204.5t-75 135.5q-32 -8 -63 -12q-45 -196 -45 -440q0 -74 25 -74q9 0 21 14
q60 64 98.5 172z" />
    <glyph glyph-name="g" unicode="g" horiz-adv-x="347" 
d="M134 -154l2 11q0 8 6 10.5t10 5t10 7.5q14 10 23.5 10t16 -3t8.5 -3q11 0 11 41q5 97 19 229q-29 -46 -76 -97.5t-75 -51.5t-46 25q-33 47 -33 108q0 90 95 196q33 36 49.5 51.5t51.5 48t63 32.5t43 -20t15 -45.5t-12 -69.5q8 -5 8 -14.5t-2 -19.5q-45 -282 -50.5 -370
t-5.5 -139l1 -53q0 -13 -7 -21.5t-18 -8.5t-36.5 19.5t-48.5 19.5l-23 -2q-12 0 -12 11zM253 321q5 12 5 23t-8 11q-3 0 -7 -2q-59 -29 -104 -77t-67 -107q-4 -12 -4 -21q0 -20 15 -20q8 0 18 6q46 31 87 82t65 105z" />
    <glyph glyph-name="h" unicode="h" horiz-adv-x="347" 
d="M340 140q0 -79 -29 -121q-22 -28 -38 -28t-32 16q-56 65 -56 156q0 30 7 62q12 55 12 71t-2 16q-6 0 -79 -275q-9 -28 -19 -28q-27 0 -64 93q-20 44 -20 106q0 70 8.5 118t10.5 59.5t7.5 37t7.5 33.5q12 50 16 71q-25 0 -25 15q0 7 6 15q55 87 78 154q4 17 16 17
q16 0 24 -31t8 -54q0 -58 -38 -93q-45 -279 -45 -293t4 -14t14.5 18.5t33.5 71t38 77.5q22 37 56 37q54 0 54 -101q0 -82 -38 -207q-1 -4 -1 -8q0 -11 10.5 -11t37 29t32 29t5.5 -38z" />
    <glyph glyph-name="i" unicode="i" horiz-adv-x="240" 
d="M205 688q0 -33 -28 -91.5t-53 -84.5q-4 -6 -12 -6q-25 0 -25 40t35 112q7 15 9 31t2.5 18.5t1 4t1 4t1 4t1.5 3t2 2.5q3 2 16 2t31 -11t18 -28zM215 244q11 17 15.5 17t7 -25t2.5 -66.5t-19.5 -89t-56.5 -76.5q-21 -16 -38.5 -16t-29 7.5t-20.5 24.5q-15 24 -29.5 62
t-14.5 82t7 89t7 60.5t-16 40t-16 29.5t3.5 10.5t9 11t11 9.5t12.5 10q23 19 42 19t33.5 -13t14 -45t-15.5 -121q-19 -114 -19 -131t9 -17q20 0 101 128z" />
    <glyph glyph-name="j" unicode="j" horiz-adv-x="184" 
d="M182.5 685.5q15.5 -18.5 15.5 -41.5t-15.5 -66t-33.5 -43q-14 0 -23 33.5t-9 55.5t8 64q3 16 22.5 16t35 -18.5zM153 76q10 0 10 -11t-4 -26.5t-10 -34.5t-8 -26q-9 -37 -49 -52q-39 -186 -96 -308q-23 -51 -69 -51q-33 0 -59 29q-57 60 -100 195q-8 26 -8 43.5t12 30.5
q86 94 268 170q43 179 60 412q2 21 14 21q18 0 30.5 -19.5t12.5 -37t-1 -25.5q-17 -187 -39 -321q33 11 36 11zM3 -102q-44 -17 -105 -60t-61 -64q0 -14 26.5 -29t43.5 -15t31 22q36 54 65 146z" />
    <glyph glyph-name="k" unicode="k" horiz-adv-x="342" 
d="M302 88q20 0 18 -35q0 -11 2 -17t2 -11q0 -16 -21.5 -24t-47.5 -8t-54.5 30.5t-101.5 138.5v-25q0 -49 4.5 -74t4.5 -31q0 -33 -38 -33q-20 0 -27.5 15.5t-15.5 48.5t-8 47t4.5 40.5t6 42t4.5 52.5q14 220 62 506q-4 16 -4 28.5t10 12.5t22 -14q17 -17 27 -50t10 -53
t-4.5 -48.5t-14.5 -84.5q-22 -123 -30 -189q2 2 14 13.5t15 14.5t14 12.5t16.5 12.5t16 9.5t18.5 8.5q19 7 38 7q44 0 66 -32t22 -79q0 -32 -9 -48.5t-14 -25t-17 -18.5l-18 -15q-13 -11 -50 -29t-42.5 -21.5t-5.5 -7t5 -8.5q50 -50 110 -58zM256 347q-58 -26 -109 -84
q59 18 109 84z" />
    <glyph glyph-name="l" unicode="l" horiz-adv-x="241" 
d="M92 705l-5 30q0 12 13 12q5 0 13 -2q60 -12 60 -69q0 -14 -3 -30.5t-11.5 -68.5t-12.5 -75l-10 -69q-24 -158 -24 -291q0 -29 14 -29q5 0 11 6q70 88 81.5 107.5t17 19.5t5.5 -13.5t-5.5 -51t-6.5 -48t-4.5 -23.5t-6 -20.5t-10.5 -21t-11 -17.5q-21 -28 -33.5 -43.5
t-29 -15.5t-31.5 15t-21.5 27t-18.5 37q-35 68 -35 143q0 64 14.5 157t17.5 116q-23 0 -23 20q0 8 2.5 15.5l18.5 55.5q34 97 34 127z" />
    <glyph glyph-name="m" unicode="m" horiz-adv-x="516" 
d="M339 131l8 207q0 12 -2 12q-4 0 -9 -16q-18 -46 -84 -287q-10 -35 -21 -35q-5 0 -18 8q-51 37 -51 91q0 43 14 117q16 92 16 99.5t-2.5 7.5t-7.5 -10q-51 -122 -62 -291q-2 -30 -20 -30q-24 0 -43 28q-35 50 -35 112q0 39 9.5 99t11.5 73q17 105 31 105q11 0 17 -28.5
t6 -41.5t4 -13q11 0 22 23.5t27 47t39.5 23.5t43.5 -17.5t25 -42.5q12 17 40 47q15 21 30.5 21t45.5 -15q41 -21 41 -110t-6 -153v-7q0 -15 6 -15q9 0 44 50.5t43 50.5q14 0 14 -71.5t-51 -142.5q-24 -33 -41 -33l-11 3q-40 21 -57 48t-17 86z" />
    <glyph glyph-name="n" unicode="n" horiz-adv-x="351" 
d="M351 222q0 -49 -5 -85t-36 -96.5t-61 -60.5q-13 0 -25 14q-59 71 -59 135q0 19 13 87q18 102 18 113.5t-3.5 11.5t-7.5 -8q-26 -46 -42 -104.5t-21 -98.5t-11 -112q0 -25 -13 -25q-6 0 -20 11q-54 46 -54 126q0 34 6.5 94t7.5 83q11 139 27 139q9 0 13 -19.5t4 -44
t1.5 -44.5t7.5 -20t17 32t32.5 64.5t46.5 32.5t44 -11q43 -22 43 -92q0 -24 -6 -59t-10.5 -76.5t-4.5 -47t4 -5.5q8 0 40.5 40t44.5 40q9 0 9 -14z" />
    <glyph glyph-name="o" unicode="o" horiz-adv-x="275" 
d="M257 236q0 -121 -70 -215q-25 -32 -55.5 -32t-48.5 15q-65 54 -65 185q0 91 49 232q4 10 7 12.5t10.5 2.5t18.5 10.5t36.5 10.5t51.5 -19t38 -51q28 -75 28 -151zM174 301q0 92 -23 92q-11 0 -20 -17q-40 -95 -40 -227q0 -33 1 -50q82 63 82 202z" />
    <glyph glyph-name="p" unicode="p" horiz-adv-x="331" 
d="M45 243l1 17q0 26 -15.5 43.5t-15.5 22.5t6.5 8t14.5 4.5t16 12t13 44.5t5 48.5t9 14.5t16 -6t10.5 -11.5t8.5 -16.5t7 -14q33 11 55 11q57 0 98.5 -55.5t41.5 -113.5q0 -21 -5 -48q-31 -134 -96 -184q-22 -18 -40 -18t-30 14.5t-17 37.5q-9 41 -9 95t12 54q2 0 10.5 -26
t26.5 -26t27 18q16 28 31 70.5t15 66t-22 23.5q-13 0 -29 -7q-62 -25 -82 -113q-35 -156 -35 -272q0 -55 6 -91l3 -23q0 -12 -10 -23t-22 -11q-32 0 -32 150q0 94 27 304z" />
    <glyph glyph-name="q" unicode="q" horiz-adv-x="337" 
d="M312.5 361.5q9.5 -19.5 9.5 -28.5t-5 -42q-16 -71 -98 -475q18 3 39.5 25t27 22t5.5 -37t-19 -85t-55 -48q-48 0 -56 69q-5 33 -5 94t34 244q-34 -48 -48 -63q-14 -19 -34.5 -19t-41.5 16q-48 38 -48 129t41.5 160.5t113.5 116.5q25 18 56 18t50.5 -19t21.5 -38.5
t11.5 -39zM236 337q4 10 4 18t-8 8q-2 0 -6 -2q-112 -55 -136 -205q-1 -7 -1 -16.5t5.5 -9.5t14.5 9q74 65 127 198z" />
    <glyph glyph-name="r" unicode="r" horiz-adv-x="307" 
d="M319 225q7 0 7 -41.5t-28 -83.5q-12 -24 -38.5 -55.5t-35.5 -38.5q-27 -19 -43.5 -19t-24.5 2t-15.5 8.5t-12 10t-11 14t-8.5 13.5t-9 16t-7 14q-19 35 -19 66.5t5.5 59t17.5 67.5t15 51q-15 -19 -40 -41q-10 -8 -21.5 -8t-19 10.5t-19.5 45.5t-12 47.5t16 39t19 35.5
q5 18 15 18q5 0 24 -10.5t25 -40.5q2 -12 9 -12q3 0 17.5 11t32 11t52.5 -32q12 -12 12 -34t-2.5 -31t-5.5 -12q-9 -7 -13.5 -19.5t-27 -94t-22.5 -89.5t6 -8q8 0 64 48t81 71q15 11 17 11z" />
    <glyph glyph-name="s" unicode="s" horiz-adv-x="322" 
d="M286 429.5q36 -20.5 36 -48t-21.5 -49.5t-48.5 -22q-41 0 -57 38q-2 6 -6.5 6t-33 -12t-38.5 -17t-10 -9.5t14 -11.5q178 -48 178 -147q0 -35 -27.5 -72.5t-77.5 -61.5t-96 -24t-64.5 25t-18.5 72t33 70q44 29 72 29q7 0 7 -3.5t-15.5 -12.5t-33 -26t-17.5 -27.5
t24 -10.5q64 0 126 36q14 7 14 16.5t-21 19.5t-70.5 29t-78 32.5t-28.5 44.5q0 9 4.5 25.5t5.5 22.5q5 35 31.5 48t114.5 54q15 7 41 7t62 -20.5z" />
    <glyph glyph-name="t" unicode="t" horiz-adv-x="269" 
d="M164 440l79 4q31 0 31 -40q0 -20 -13 -30q-32 -29 -110 -40q-10 -95 -10 -158t9 -63q6 0 42 32t40 32q17 0 17 -51.5t-19 -101.5t-54 -50q-15 0 -30 10.5t-22.5 21t-21 31.5t-16.5 25q-27 37 -29.5 73.5t-2.5 85.5t6 106q-31 1 -51.5 22t-32 50.5t-11.5 33.5q0 13 15 13
l96 -6q5 31 16 86q17 80 17 93l-2 19q0 16 18 16t44 -18t26 -34q0 -7 -7 -28q-9 -32 -24 -134z" />
    <glyph glyph-name="u" unicode="u" horiz-adv-x="338" 
d="M42 455l48 9q23 0 43 -17q2 -2 12.5 -10t16.5 -13q16 -15 16 -25.5t-18 -60.5t-38 -106q-26 -69 -26 -76t5 -7q8 0 60 95t79 149q10 19 28 19q42 0 42 -35q0 -20 -26 -113q-33 -123 -33 -133.5t5.5 -10.5t22.5 52.5t24 52.5q4 0 10 -9q25 -52 25 -96t-31 -101
q-14 -27 -39 -27q-16 0 -23 8q-20 23 -24 31q-19 24 -31 86q-7 -13 -18 -37q-23 -53 -42 -77q-12 -17 -30.5 -17t-40.5 26q-33 45 -33.5 101t11 105t35.5 119l3 12q0 8 -7 8l-23 -6q-17 0 -24 20q-16 36 -16 78q0 12 10 12z" />
    <glyph glyph-name="v" unicode="v" horiz-adv-x="278" 
d="M22 459l48 4q34 0 70 -34q19 -18 19 -35q0 -31 -53 -250q-2 -10 -2 -18t4 -8t13 9q32 40 45 79t19 57.5t11 52.5t7 48q3 19 11 102q3 19 11.5 19t11.5 -15q21 -114 21 -232t-55 -200q-28 -44 -64 -44q-15 0 -29 8q-39 18 -62 65t-23 94q0 33 7.5 59.5t14.5 49.5
q11 36 11 45.5t-18.5 17.5t-24 21.5t-15.5 53t-10 46.5t7 7z" />
    <glyph glyph-name="w" unicode="w" horiz-adv-x="411" 
d="M214 323h15t12 -0.5t9 -1t7.5 -2t6.5 -4t4 -5.5q5 -5 5 -13t-5 -55t-5 -75q0 -80 11 -80q4 0 10 12q30 61 30 166q0 103 -9.5 123t-18.5 27.5t-16.5 13.5t-7.5 9q0 10 17 10h15q22 -1 37 -33q62 -131 62 -250q0 -55 -12 -100q-23 -83 -80 -83q-22 0 -46 17.5t-36.5 45.5
t-20.5 73q-11 -36 -36 -80.5t-47 -44.5q-8 0 -16 6q-62 46 -62 162q0 63 17 117q6 17 23 63q-38 -25 -55.5 -25t-27.5 22q-14 30 -14 80q0 12 10 12l14 -2q10 0 43 16t45 16q28 0 46 -34.5t18 -57t-5 -46t-24 -92.5q-27 -99 -27 -110.5t4 -11.5t11 10q40 62 70 181
q6 24 29 24z" />
    <glyph glyph-name="x" unicode="x" horiz-adv-x="295" 
d="M335 451v-8q-1 -14 -12 -36q-55 -98 -135 -213q59 -143 59 -169q0 -11 -6 -19.5t-15.5 -8.5t-16.5 7q-37 36 -79 107q-2 -3 -11 -15t-11 -16l-7 -14q-7 -12 -9.5 -37.5t-13.5 -25.5t-39.5 28.5t-28.5 58.5q0 45 63 134q-63 154 -63 166.5t9 30.5t20 18t47 -55t50 -83
q28 30 102.5 100.5t86.5 70.5q10 0 10 -21z" />
    <glyph glyph-name="y" unicode="y" horiz-adv-x="379" 
d="M-2 407q0 15 20 13h15t38 9.5t46 9.5t32.5 -13.5t28.5 -34.5t13 -43.5t-43.5 -119t-43.5 -103.5t8 -7q16 0 67 58q11 13 24.5 34.5t20.5 32.5t19.5 38t16.5 35q19 40 33 76q8 17 24 17t30 -19t14 -38q0 -33 -52 -278t-57.5 -272t-10.5 -122q0 -31 -21 -31q-7 0 -13 3
q-73 30 -73 128v67q0 21 13 21q12 0 25.5 -17t14.5 -19l54 267q-45 -54 -71 -72.5t-62.5 -18.5t-58.5 34t-22 77q0 89 63 210q-28 -7 -45.5 -7t-25.5 18q-4 8 -12.5 34.5t-8.5 32.5z" />
    <glyph glyph-name="z" unicode="z" horiz-adv-x="303" 
d="M144 428l20 1q51 0 78 -16t51 -61q10 -17 10 -35.5t-14 -32.5q-33 -35 -103.5 -93t-84.5 -70l95 4q30 0 42 -4.5t16 -14t4 -31.5t-19 -25q-31 -6 -122 -39q-19 -7 -39 -7t-34 21q-29 52 -29 78t17 48q31 38 98 102.5t77 75.5q-128 -21 -144 -21t-25 3.5t-14 13.5
q-14 28 -14 54q0 42 82 75q6 3 13 3q13 0 15 -16q3 -13 24 -13z" />
    <glyph glyph-name="braceleft" unicode="{" horiz-adv-x="450" 
d="M247 -127l108 10q11 0 23.5 -13t9.5 -39q-6 -46 -130 -46q-44 0 -84.5 31t-48.5 54q-9 23 -6.5 42.5t18 58.5t29 75.5t21.5 86t-5 84t-33.5 49.5t-37 15t-28 7t-8.5 27q4 34 35 31q21 -3 31 -3q63 0 63 232q0 78 1 89q5 39 38 72t91 33l81 -3l19 2q11 0 20 -12q10 2 16 2
q23 0 30 -20q6 -20 5 -25q-4 -36 -166 -97q-6 -2 -8 -2q-15 0 9 41l17 24q-55 -4 -63 -24q-16 -45 -20.5 -118t-7.5 -96q-12 -99 -69 -117q90 -44 76 -147q-7 -54 -49 -146t-45 -112.5t19.5 -33t48.5 -12.5z" />
    <glyph glyph-name="bar" unicode="|" horiz-adv-x="250" 
d="M135 755l-5 30q0 12 13 12q34 0 53.5 -19.5t19.5 -51.5q0 -14 -3 -29q-19 -117 -31 -351.5t-12 -390.5q0 -87 -20 -87q-8 0 -19 23q-45 70 -45 143q0 102 4.5 273t12.5 230q-23 0 -23 20q0 5 27.5 88t27.5 110z" />
    <glyph glyph-name="braceright" unicode="}" horiz-adv-x="450" 
d="M378 251l-36 7q-33 0 -62 -30q-51 -51 -32 -160q27 -143 12 -196q-19 -64 -62 -82q-57 -24 -120 -6q-19 6 -28 8q-33 8 -27 52q2 16 8 27.5t14.5 11.5t48.5 -7t62 -7q50 0 54 34q2 13 -6 41q-81 259 -2 330q31 29 87 39q-85 47 -72 152q4 31 20.5 86.5t18.5 75.5
q5 36 -19.5 53t-57.5 18q22 -37 22 -67q0 -8 -7 -8q-2 0 -8 2q-145 62 -141 97q1 7 19 35l-2 11q2 13 151 13q58 0 103 -63t25 -113q-49 -110 -59 -177q-13 -104 74 -104l20 1q16 0 23.5 -9t7.5 -26t-7.5 -28t-21.5 -11z" />
    <glyph glyph-name="asciitilde" unicode="~" 
d="M261 292q16 0 24 8t9.5 17.5t9 17.5t25.5 8t31.5 -20t13.5 -43t-28.5 -42t-65 -19t-86.5 33.5t-64.5 33.5t-22 -10.5t-10.5 -23.5t-13 -23.5t-24 -10.5t-23 19.5t-9 34.5q0 37 38.5 58t70 21t70 -29.5t54.5 -29.5z" />
    <glyph glyph-name="nbspace" unicode="&#xa0;" horiz-adv-x="202" 
 />
    <glyph glyph-name="exclamdown" unicode="&#xa1;" horiz-adv-x="247" 
d="M122 -123l10 -3q26 -9 30.5 -15t4.5 -11q0 -18 -52 -39.5t-74 -21.5q-40 0 -40 37q0 70 62 300q41 155 62 155q7 0 12 -9.5t5 -16.5t-4 -28.5t-12 -102t-8 -144.5t4 -101zM103 462q13 20 38 20t40 -24.5t15 -57.5q0 -73 -47 -73q-22 0 -40.5 22.5t-18.5 57.5t13 55z" />
    <glyph glyph-name="cent" unicode="&#xa2;" horiz-adv-x="299" 
d="M170 657l-2 37q0 27 19 27q45 0 45 -71q0 -24 -6 -67q26 -3 52 -22q16 -13 16 -43.5t-27 -100.5q-17 -40 -26 -40q-12 0 -16 54t-12 54q-21 -152 -28 -232q18 13 39 33q44 42 51 42t7 -26q0 -61 -26 -111t-83 -61q-22 -160 -38 -160q-21 0 -21 149v14q-44 16 -69 71
t-25 102q0 72 39 140.5t106 118.5q5 48 5 92zM97 217q7 0 21 2q5 42 30 213q-31 -41 -54 -93.5t-23 -93.5q0 -28 26 -28z" />
    <glyph glyph-name="sterling" unicode="&#xa3;" horiz-adv-x="383" 
d="M187 321l89 4q26 0 26 -25q0 -47 -33 -47q-4 0 -20.5 0.5t-28.5 0.5q27 -61 27 -90t-13 -57q15 -4 42 -4q53 0 119 37q7 0 -4 -39t-39 -78t-61 -39t-55 12.5t-50 38.5q-44 -48 -73.5 -48t-45.5 5.5t-25.5 19t-13 24.5t-6.5 26l-4.5 22.5t-1.5 11.5q0 28 44 54
q7 5 103 -24q13 30 14 38q-8 37 -40 90l-35 -3q-36 -3 -50.5 -3t-20 7.5t-5.5 20t2 20.5t9 16.5t13.5 8.5t20 -0.5t22.5 -0.5q-45 68 -45 112q0 83 73 161.5t162 110.5q14 4 22 4q22 0 52.5 -30.5t30.5 -51t-56.5 -80t-74.5 -59.5q-10 0 -10 15.5t8.5 41.5t8.5 30t-5 4
q-34 0 -76 -60.5t-42 -103.5q0 -9 46 -93zM120 59q6 0 16 16q-33 26 -38 18q0 -15 10.5 -24.5t11.5 -9.5z" />
    <glyph glyph-name="currency" unicode="&#xa4;" horiz-adv-x="450" 
d="M406 548l4 -21q0 -19 -20 -45.5t-21 -27.5q12 -36 12 -85.5t-10 -88.5q4 -6 11.5 -17t10 -15.5t8 -13t8 -12.5t6 -10.5t5 -10.5t3.5 -9.5t3 -9.5q2 -10 2 -31t-2 -33t-10 -12t-18 13l-68 91q-32 -32 -83 -32t-93 37q-4 -8 -15 -37q-27 -71 -35 -71q-13 0 -23 14.5
t-15 34.5q-8 39 -7.5 56t12.5 35l29 44q-21 47 -21 92t32 92q-24 26 -40 42t-23 25q-12 13 -12 22.5t7 16t13 6.5q28 0 95 -60q21 38 90 38q42 0 80 -35q4 4 19 20q39 41 46 41q14 0 20 -43zM192 477q-19 -8 -33.5 -37.5t-14.5 -49.5q0 -47 21.5 -82t64 -35t65.5 34t23 78
q0 55 -24 71q-30 21 -102 21z" />
    <glyph glyph-name="yen" unicode="&#xa5;" horiz-adv-x="451" 
d="M30 671q0 15 20 13h14.5t38 9.5t46.5 9.5t32.5 -13.5t28.5 -34.5t13 -38t-26 -77.5t-46 -110t-9 -49.5q4 0 7 3q41 32 76.5 83t53 86.5t46.5 103.5q8 17 24 17t35 -19.5t19 -37.5q0 -5 -17 -83.5t-51 -265.5q31 3 54 10q19 0 30.5 -16.5t11.5 -32.5q0 -29 -98 -29h-11
q-6 -30 -9 -47v-4q41 3 70 10q19 0 29 -15.5t12 -33.5q0 -28 -89 -28h-8q-5 -30 -19 -86t-20 -70q-7 -19 -26.5 -27t-29.5 14q-19 53 -19 128q0 17 3 44l-62 -5q-24 0 -27 31q0 15 5.5 26.5t10.5 11.5h84q4 24 10 51l-74 -8q-25 0 -29 32v5q0 12 5.5 22.5t9.5 11.5h102
l37 152q-66 -117 -137 -117q-40 0 -62 34t-22 82t12 84.5t43 95.5q-28 -7 -45.5 -7t-25.5 18q-4 8 -12.5 34.5t-8.5 32.5z" />
    <glyph glyph-name="brokenbar" unicode="&#xa6;" horiz-adv-x="250" 
d="M135 755l-5 30q0 12 13 12q34 0 53.5 -19.5t19.5 -51.5q0 -14 -3 -29q-19 -85 -24.5 -171t-8 -119.5t-17.5 -33.5q-11 0 -23 23q-24 37 -32.5 61t-8.5 62l4 58q-17 0 -17 21q0 5 24.5 67.5t24.5 89.5zM177 73l7 -144q0 -27 -6 -47.5t-15 -20.5q-7 0 -19 23
q-46 70 -46 129l6 161q0 61 -7 94q0 12 9 12q32 0 54.5 -38t22.5 -53z" />
    <glyph glyph-name="section" unicode="&#xa7;" 
d="M327 652q0 -8 -9.5 -17t-45.5 -45q-60 -61 -72 -61q-9 0 -9 14t12.5 37t12.5 26.5t-4 3.5t-8 -2q-22 -17 -34 -27.5t-27 -32t-15 -42.5t35 -42q9 -5 38 -20.5t47 -25.5q53 -31 73 -56q36 -44 36 -88q0 -16 -9.5 -34t-23.5 -28l-11 -9l8 -10q36 -46 36 -88q0 -17 -9.5 -35
t-23.5 -28q-93 -70 -211 -70q-23 0 -37 17t-14 39.5t9.5 33t32.5 11.5q78 3 138 36q35 19 35 38q0 6 -12 18q-17 12 -63 33q-92 40 -118 75q-19 24 -19 58.5t36 92.5q-36 30 -36 71.5t35 94t74.5 90t55 42.5t22.5 5q22 0 35 -16q40 -40 40 -59zM229 272q48 24 48 45
q0 6 -12 18q-16 12 -60.5 31t-53.5 24q-23 -26 -23 -50.5t35 -45.5q20 -12 53 -29z" />
    <glyph glyph-name="dieresis" unicode="&#xa8;" 
d="M356 607q3 -10 3 -27.5t-16 -36t-40.5 -18.5t-39.5 15.5t-15 38.5t14 44.5t48 21.5t46 -38zM147 648q18 0 34.5 -17.5t16.5 -43t-14 -44t-35 -18.5t-35 19.5t-14 47.5q0 56 47 56z" />
    <glyph glyph-name="copyright" unicode="&#xa9;" horiz-adv-x="652" 
d="M360 597l-2 19q0 6 7 6q34 -8 54 -38t20 -64.5t-14.5 -75.5t-28.5 -41q-16 0 -27 41t-11 71q-4 7 -9 7q-24 0 -52 -103t-28 -175q0 -18 5.5 -53.5t8.5 -35.5q15 -2 59.5 69.5t65.5 131.5q7 -1 12 -23.5t5 -47.5q0 -59 -31.5 -121.5t-88.5 -72.5q-62 6 -91 46.5t-29 96.5
q0 90 37 181.5t102 160.5q5 7 10.5 7t23.5 -10q2 8 2 24zM575 204q-26 -70 -63.5 -126.5t-97 -93.5t-130.5 -37q-101 0 -172.5 79t-71.5 186q0 182 111 356q11 18 21.5 18t20.5 -6q23 28 32.5 39t37 37.5t49.5 39.5q62 35 128.5 35t124 -75.5t57.5 -200t-47 -251.5zM528 493
q0 55 -31.5 114.5t-67.5 59.5q-78 0 -154.5 -78.5t-120.5 -181.5t-44 -178.5t37.5 -141.5t94.5 -66q84 0 151 71.5t101 178t34 222.5z" />
    <glyph glyph-name="ordfeminine" unicode="&#xaa;" horiz-adv-x="301" 
d="M277 634l-1 -10q0 -2 -2 -2q-40 -91 -42 -148l11 10q50 45 61 45q4 0 4 -7q0 -22 -27.5 -70t-43.5 -48t-37.5 20t-21.5 39q0 8 2 20q-44 -83 -71 -83t-49 26t-22 40q0 118 139 224q5 4 23.5 4t47.5 -18.5t29 -41.5zM130 364l99 1q36 0 36 -44q0 -16 -17 -16q-6 -1 -18 -1
l-76 3q-9 0 -49.5 -4t-50.5 -3q-14 0 -20.5 18t-6.5 27.5t3 13.5t9.5 5t11.5 1.5t13.5 0t10.5 -0.5zM213 654q-97 -71 -120 -185q80 77 121 185v1z" />
    <glyph glyph-name="guillemotleft" unicode="&#xab;" horiz-adv-x="485" 
d="M177 278q-26 -13 -89 -41q20 -6 60 -33.5t66 -32.5q29 -6 4 -59q-14 -29 -28 -32q-18 -2 -59.5 33.5t-52.5 42.5t-30.5 16.5t-33.5 17.5t-14 14t17 46q6 12 13 16q76 38 141 77q3 20 14 22q8 2 18.5 -10t11.5 -28q4 -32 -38 -49zM387 278q-26 -13 -89 -41q20 -6 60 -33.5
t66 -32.5q29 -6 4 -59q-14 -29 -28 -32q-18 -2 -59.5 33.5t-52.5 42.5t-30.5 16.5t-33.5 17.5t-14 14t17 46q6 12 13 16q76 38 141 77q3 20 14 22q8 2 18.5 -10t11.5 -28q4 -32 -38 -49z" />
    <glyph glyph-name="logicalnot" unicode="&#xac;" 
d="M192 391l128 3h11q34 0 41 -23q4 -15 4 -21.5t-4 -41.5t-5 -84q3 -14 3 -23q0 -34 -24 -34q-15 0 -36 33.5t-21 54.5q0 5 2 9t4 11t2.5 12.5t0.5 14t1 13.5q-78 6 -119 6l-105 -2q-34 0 -34 46q0 31 25 31q1 0 126 -5z" />
    <glyph glyph-name="uni00AD" unicode="&#xad;" horiz-adv-x="350" 
d="M144 163q-39 0 -72 15t-33 53q0 18 15 18q24 0 39.5 -2.5t42.5 -2t61.5 8t55.5 7.5t39.5 -13t18.5 -36q0 -45 -167 -48z" />
    <glyph glyph-name="registered" unicode="&#xae;" horiz-adv-x="567" 
d="M376 379l41 13q11 0 -9 -29t-48 -29q-42 0 -50 55q-5 33 -12.5 41t-17.5 14h-8q-3 -34 -1 -77q-3 -53 -16 -53q-27 0 -52.5 23t-26.5 38.5t5.5 15.5t19.5 -8t15 -8q7 0 7 24q-3 81 5 142q-19 -4 -24 -4t-11 4t-7 14t22 25.5t52.5 26.5t47.5 11q41 0 72.5 -21.5
t31.5 -63.5q0 -28 -21.5 -46.5t-66.5 -32.5q22 -12 29 -39.5t10 -31.5t13 -4zM369 551q0 11 -54 11q-14 0 -41 -9q-1 -29 -1 -70q96 32 96 68zM157 634l15 -4q112 101 227 101q61 0 112.5 -50.5t51.5 -134.5q0 -83 -42 -169q-23 -47 -56 -84.5t-86 -62.5t-116 -25
q-97 0 -157 52.5t-60 126t18.5 125.5t70.5 113q8 12 22 12zM489 566q0 32 -34 65t-67 33q-68 0 -124 -27.5t-88 -68.5q-68 -87 -68 -170q0 -43 38 -85t89 -42q70 0 121.5 25.5t79.5 69.5q53 86 53 200z" />
    <glyph glyph-name="macron" unicode="&#xaf;" 
d="M126 621l105 -5q43 0 68.5 7t31.5 7q10 0 16.5 -19t6.5 -32t-8.5 -22.5t-27.5 -12.5q-24 -4 -58 -4l-132 -5q-12 0 -23 50v8q0 16 5 22t16 6z" />
    <glyph glyph-name="degree" unicode="&#xb0;" horiz-adv-x="230" 
d="M158 723q50 0 79 -33t29 -82t-24.5 -78.5t-75.5 -29.5t-80.5 35.5t-29.5 67.5t7.5 49.5t18.5 17.5l6 13q5 13 22.5 26.5t47.5 13.5zM161 679q-12 0 -16 -22t-11 -22q-4 0 -13 6q-4 -17 -4 -36.5t7 -34.5q12 -21 27 -21q40 0 40 57q0 22 -6.5 47.5t-23.5 25.5z" />
    <glyph glyph-name="plusminus" unicode="&#xb1;" 
d="M58 101l291 -9q13 0 21.5 -19t8.5 -27q0 -26 -37 -26l-159 6l-116 -2q-34 0 -34 48q0 29 25 29zM233 245l9 -107q0 -23 -30 -23q-15 0 -36 33.5t-21 54.5q0 2 3.5 20t3.5 34v19q-74 -2 -98 -2q-34 0 -34 48q0 29 25 29q40 0 106 -3q3 44 15.5 90t30.5 46q13 0 36 -14
t23 -27t-3.5 -26.5t-9.5 -34t-10 -37.5q87 -3 103.5 -3t25 -19t8.5 -27q0 -26 -37 -26l-109 5q-1 -10 -1 -30z" />
    <glyph glyph-name="twosuperior" unicode="&#xb2;" horiz-adv-x="279" 
d="M187 359l42 8q20 0 20 -37.5t-58.5 -63t-99.5 -25.5q-15 0 -22 10q-20 31 -20 78t21 65q47 42 95 103t48 102q0 30 -50 30q-27 0 -31 -16q-5 -23 -26 -49t-42 -26q-14 0 -22 28t-8 42t2.5 21t7.5 14t9.5 11.5t13 11t12 9t12.5 9t10 6.5q22 15 61.5 15t55.5 -19
q8 -10 19 -16.5t12 -7.5q32 -27 32 -76q0 -32 -21 -76q-40 -81 -94 -138q-5 -6 -5 -9.5t26 -3.5z" />
    <glyph glyph-name="threesuperior" unicode="&#xb3;" horiz-adv-x="268" 
d="M68 466l-1 54q0 6 6 9q40 20 71.5 49.5t31.5 53.5q0 9 -19 9q-4 0 -14 -2q-1 -20 -40 -35t-43 -15q-23 0 -23 49q0 10 1.5 28.5t14.5 23.5q53 20 90.5 20t65.5 -26q4 -4 10 -14.5t10 -14.5q21 -21 21 -46t-19 -54.5t-38.5 -49t-19.5 -22.5t21.5 -20.5t43.5 -46.5t22 -56
t-15 -54q-18 -35 -62.5 -58.5t-88.5 -23.5q-21 0 -35 15t-19 39q-8 37 -8 60t21 29q57 13 67.5 13t10.5 -4q0 -7 -13.5 -25.5t-13.5 -20t3 -1.5q24 0 46.5 16.5t22.5 38.5t-16.5 37t-31.5 15t-30 -5.5t-21.5 -5.5t-8.5 6v35z" />
    <glyph glyph-name="acute" unicode="&#xb4;" 
d="M158 512q0 55 82 134q14 14 19.5 20.5t5.5 15.5t6 9q24 0 37.5 -28t13.5 -42q0 -28 -22 -46q-10 -13 -59 -46.5t-61.5 -33.5t-17 6t-4.5 11z" />
    <glyph glyph-name="mu" unicode="&#xb5;" horiz-adv-x="338" 
d="M45 459l43 2q23 0 43 -17q2 -2 12.5 -10t16.5 -13q16 -15 16 -24.5t-31.5 -125.5t-23.5 -134q35 33 94 191q22 58 26 66.5t8 10t13.5 -1t23.5 -4.5t19 -6.5t5 -13t-14 -51.5q-43 -135 -45 -198q0 -10 5.5 -10t15 22.5t19 50t12.5 32.5q3 0 12 -14q23 -48 23 -91.5
t-31 -100.5q-14 -27 -34.5 -27t-32 8.5t-18.5 26t-10.5 30t-7 34.5t-4.5 26q-34 -84 -54 -107.5t-35 -23.5t-31 65q-9 -74 -9 -127.5t1.5 -64.5t7.5 -13.5t6 -10.5t-15 -27t-27 -19q-32 0 -32 150q0 209 63 414q-11 2 -21.5 0t-21.5 3q-27 11 -27 93q0 12 10 12z" />
    <glyph glyph-name="paragraph" unicode="&#xb6;" horiz-adv-x="452" 
d="M327 -34l1 26q0 300 12 390q1 10 1 19.5t9 81.5t11 103q-27 -15 -48 -25q-46 -276 -46 -580q0 -87 -20 -87q-7 0 -16 16.5t-13.5 24t-7 16t-4.5 12.5t-2.5 14.5t-0.5 14.5v38q0 180 13 317q-32 9 -48 15q-46 17 -76.5 49t-30.5 82t46 89q39 34 102.5 70.5t79.5 47
t34 10.5t41 -27q12 2 17 2q23 0 33 -20q8 -19 8 -26.5t-9 -16.5q10 -15 10 -40t-3 -40q-28 -171 -28 -571q9 -34 -6.5 -50t-32.5 -16q-26 0 -26 61z" />
    <glyph glyph-name="periodcentered" unicode="&#xb7;" horiz-adv-x="180" 
d="M136 284q-15 -23 -40 -23t-38.5 20t-13.5 53.5t13.5 57.5t36.5 24t40 -19.5t17 -54.5t-15 -58z" />
    <glyph glyph-name="cedilla" unicode="&#xb8;" 
d="M218 -161q-5 15 -71 33q-24 6 -43.5 25t-19.5 45.5t13 49t36 22.5q12 0 23 -4t11 -7t-10.5 -18t-10.5 -27.5t21.5 -19.5t47.5 -12t47.5 -26.5t21.5 -58.5q0 -63 -41.5 -91.5t-106.5 -28.5q-21 0 -31.5 2t-19.5 15.5t-9 43.5t21 30q4 0 6.5 -4t4.5 -4q75 6 100 21
q10 6 10 12v2z" />
    <glyph glyph-name="onesuperior" unicode="&#xb9;" horiz-adv-x="157" 
d="M158 625q0 -51 -21 -156t-21 -165q0 -10 6.5 -30.5t6.5 -28.5t-29.5 -8t-35.5 16q-22 53 -22 98q0 145 63 338q8 21 13 21q12 0 26 -32t14 -53z" />
    <glyph glyph-name="ordmasculine" unicode="&#xba;" horiz-adv-x="222" 
d="M147 287l-89 -9q-13 0 -20 18.5t-7 31.5t10 14q57 5 139 5q37 0 37 -44q0 -17 -34 -17zM125 378l-14 -3q-33 0 -52.5 34.5t-19.5 67.5t21.5 89.5t42.5 92.5q19 35 57 35t61.5 -28t23.5 -64q0 -178 -120 -224zM173 645q-1 0 -10 -7q-32 -35 -52.5 -92.5t-20.5 -109.5
q0 -2 4 -11l5 3q82 90 82 177q0 40 -8 40z" />
    <glyph glyph-name="guillemotright" unicode="&#xbb;" horiz-adv-x="485" 
d="M69 196q1 1 23.5 11t49 22t44.5 20q-20 6 -65.5 33.5t-66 31.5t-22.5 17.5t7 27.5t21 15.5t32 -10t52.5 -36.5t41.5 -30.5t28.5 -15t33.5 -17.5t14 -14t-17 -46q-6 -12 -11.5 -15t-63 -32t-84.5 -46q-3 -20 -14 -22q-8 -2 -24 20q-45 59 21 86zM279 196q1 1 23.5 11
t49 22t44.5 20q-20 6 -65.5 33.5t-66 31.5t-22.5 17.5t7 27.5t21 15.5t32 -10t52.5 -36.5t41.5 -30.5t28.5 -15t33.5 -17.5t14 -14t-17 -46q-6 -12 -11.5 -15t-63 -32t-84.5 -46q-3 -20 -14 -22q-8 -2 -24 20q-45 59 21 86z" />
    <glyph glyph-name="onequarter" unicode="&#xbc;" horiz-adv-x="576" 
d="M426 683q0 -1 7 -10.5t7 -16.5q0 -47 -160 -300q-47 -76 -90.5 -174.5t-55.5 -178.5v-14q0 -13 -4 -17t-14 -4q-22 0 -36 41t-14 50t14 50.5t57 131.5t79.5 156t95 167.5t72.5 127t19 25.5q8 0 23 -34zM161 633q0 -45 -19 -140t-19 -148q0 -9 5 -23.5t5 -22.5
q0 -15 -30.5 -15t-35.5 15q-20 47 -20 88q0 145 56 304q5 19 15 19q13 0 28 -29t15 -48zM539 218q12 -13 12 -23.5t-1.5 -16t-5.5 -9.5t-6.5 -7t-9.5 -6l-10 -4q-18 -7 -23 -7q-2 -14 -5 -32q-7 -42 -7 -104q0 -7 -6 -14t-17.5 -7t-23.5 15q-27 36 -27 81q0 11 2 21t2 20
q-35 -13 -59 -13q-50 0 -65.5 56.5t-15.5 93.5q0 80 176 167q8 4 20.5 4t18.5 -13q7 -11 16.5 -35.5t9.5 -32.5q0 -24 -12 -122q3 1 14 1t23 -13zM427 292q0 13 -7 13q-14 0 -48 -36t-34 -50q0 -7 13 -7t69 9q2 19 7 71z" />
    <glyph glyph-name="onehalf" unicode="&#xbd;" horiz-adv-x="584" 
d="M473 109l51 7q19 0 19 -39q0 -31 -64.5 -58t-102.5 -27q-15 0 -21 9q-19 31 -19 79.5t20 66.5q2 2 16.5 15t21 19.5t21.5 21t23 24t19.5 24t18.5 25.5q15 26 15 47q0 28 -47 28q-26 0 -30 -14q-5 -21 -24.5 -43t-39.5 -22q-14 0 -21 26.5t-7 39.5t2 19.5t4.5 11t8 10.5
t9 9.5t11 8.5t10 7t10 6.5t8.5 5.5q19 14 61 14t58 -18q8 -9 17 -14.5t12 -7.5q31 -26 31 -72q0 -28 -25 -81.5t-86 -115.5q-4 -6 -4 -7q0 -5 24 -5zM426 683q0 -1 7 -10.5t7 -16.5q0 -47 -160 -300q-47 -76 -90.5 -174.5t-55.5 -178.5v-14q0 -13 -4 -17t-14 -4
q-22 0 -36 41t-14 50t14 50.5t57 131.5t79.5 156t95 167.5t72.5 127t19 25.5q8 0 23 -34zM161 633q0 -45 -19 -140t-19 -148q0 -9 5 -23.5t5 -22.5q0 -15 -30.5 -15t-35.5 15q-20 47 -20 88q0 145 56 304q5 19 15 19q13 0 28 -29t15 -48z" />
    <glyph glyph-name="threequarters" unicode="&#xbe;" horiz-adv-x="658" 
d="M72 495l-1 49q0 6 6 8q31 14 61.5 42.5t30.5 50.5q0 8 -10.5 8t-18.5 -2q-1 -16 -31 -29q-3 -1 -13 -6q-23 -10 -31 -10q-21 0 -21 44q0 9 1.5 25.5t13.5 21.5q50 18 74 18t45 -7t28 -13.5t12.5 -16t8.5 -13.5q19 -17 19 -40t-20 -50t-39.5 -44t-19.5 -20t22 -19t44 -42
t22 -53q0 -52 -51.5 -85.5t-107.5 -33.5q-19 0 -31.5 13.5t-16.5 34.5q-8 35 -8 55.5t19 24.5q46 12 58 12t12 -4q0 -6 -12 -22.5t-12 -18t2 -1.5q22 0 42 15t20 35t-14.5 33t-28.5 13t-27 -5t-19 -5t-8 6v31zM508 683q0 -1 7 -10.5t7 -16.5q0 -47 -160 -300
q-47 -76 -90.5 -174.5t-55.5 -178.5v-14q0 -13 -4 -17t-14 -4q-22 0 -36 41t-14 50.5t5 22.5q44 131 145 315q37 66 95.5 167.5t72.5 127t19 25.5q8 0 23 -34zM621 218q12 -13 12 -23.5t-1.5 -16t-5.5 -9.5t-6.5 -7t-9.5 -6l-10 -4q-18 -7 -23 -7q-1 -14 -4 -32
q-8 -48 -8 -104q0 -7 -6 -14t-17.5 -7t-23.5 15q-27 36 -27 81q0 11 2 21t2 20q-35 -13 -59 -13q-50 0 -65.5 56.5t-15.5 93.5q0 80 176 167q8 4 20.5 4t18.5 -13q7 -11 16.5 -35.5t9.5 -32.5q0 -24 -12 -122q3 1 14 1t23 -13zM509 292q0 13 -7 13q-14 0 -48 -36t-34 -50
q0 -7 13 -7t69 9q2 19 7 71z" />
    <glyph glyph-name="questiondown" unicode="&#xbf;" horiz-adv-x="307" 
d="M144 161q-15 -10 -60 -10t-45 20t48.5 57t82.5 37q21 0 31.5 -29t10.5 -62.5t-15.5 -73t-34.5 -68.5q-66 -99 -76.5 -122.5t-10.5 -36.5q0 -9 25.5 -9t36.5 8q22 13 49 44.5t41.5 31.5t53.5 -77q3 -9 3 -18q0 -39 -56.5 -66t-118.5 -27q-23 0 -60 38.5t-43 56t-6 43
t22.5 66t49.5 70.5q72 82 72 127zM124 462q13 20 38 20t40 -24.5t15 -57.5q0 -73 -47 -73q-22 0 -40.5 22.5t-18.5 57.5t13 55z" />
    <glyph glyph-name="Agrave" unicode="&#xc0;" horiz-adv-x="601" 
d="M324 299q49 221 49 332v26q0 17 8.5 25.5t18 10t38 1.5t60 -21t31.5 -57q0 -7 -9 -87t-12 -205q34 14 54.5 29.5t27.5 15.5q11 0 11 -20.5t-31 -52t-62 -51.5q0 -22 2 -70q3 2 8.5 2t11 -3t10 -7t10.5 -11.5t9 -11.5t8 -11.5t6 -8.5q18 -27 18 -42.5t-6 -35.5
q-23 -59 -31 -103q-4 -21 -24 -21q-22 0 -30.5 11.5t-13 18.5t-8 20t-5.5 20.5t-4 23.5q-3 21 -4 42l-1 16q-4 48 -10 146q-26 -9 -80 -11q-16 -72 -32.5 -132.5t-54 -96.5t-91.5 -36q-16 0 -38 5q-129 35 -176 163q-12 33 -12 58q0 60 50 82q108 49 211 49zM450 309
q-4 88 -8 268q-8 -46 -24.5 -138t-24.5 -138q38 4 57 8zM301 208h-64q-122 0 -195 -17q-41 -8 -41 -30q0 -17 27 -44t70 -41.5t72 -14.5t48.5 10t31 21t22.5 36q14 31 29 80zM392 775q-8 12 -20 27.5t-37 39.5t-37 35.5t-12 18.5q0 10 21 22t34 12t17 -1t8.5 -4.5t7.5 -6.5
t8 -11t9.5 -15t13 -21t12.5 -20.5t23 -34.5q38 -58 38 -71t-12 -13t-22 2.5t-16.5 5t-13.5 9.5l-11 11q-3 3 -11 15z" />
    <glyph glyph-name="Aacute" unicode="&#xc1;" horiz-adv-x="601" 
d="M324 299q49 221 49 332v26q0 17 8.5 25.5t18 10t38 1.5t60 -21t31.5 -57q0 -7 -9 -87t-12 -205q34 14 54.5 29.5t27.5 15.5q11 0 11 -20.5t-31 -52t-62 -51.5q0 -22 2 -70q3 2 8.5 2t11 -3t10 -7t10.5 -11.5t9 -11.5t8 -11.5t6 -8.5q18 -27 18 -42.5t-6 -35.5
q-23 -59 -31 -103q-4 -21 -24 -21q-22 0 -30.5 11.5t-13 18.5t-8 20t-5.5 20.5t-4 23.5q-3 21 -4 42l-1 16q-4 48 -10 146q-26 -9 -80 -11q-16 -72 -32.5 -132.5t-54 -96.5t-91.5 -36q-16 0 -38 5q-129 35 -176 163q-12 33 -12 58q0 60 50 82q108 49 211 49zM450 309
q-4 88 -8 268q-8 -46 -24.5 -138t-24.5 -138q38 4 57 8zM301 208h-64q-122 0 -195 -17q-41 -8 -41 -30q0 -17 27 -44t70 -41.5t72 -14.5t48.5 10t31 21t22.5 36q14 31 29 80zM427 749q0 55 82 134q14 14 19.5 20.5t5.5 15.5t6 9q24 0 37.5 -28t13.5 -42q0 -28 -22 -46
q-10 -13 -59 -46.5t-61.5 -33.5t-17 6t-4.5 11z" />
    <glyph glyph-name="Acircumflex" unicode="&#xc2;" horiz-adv-x="601" 
d="M324 299q49 221 49 332v26q0 17 8.5 25.5t18 10t38 1.5t60 -21t31.5 -57q0 -7 -9 -87t-12 -205q34 14 54.5 29.5t27.5 15.5q11 0 11 -20.5t-31 -52t-62 -51.5q0 -22 2 -70q3 2 8.5 2t11 -3t10 -7t10.5 -11.5t9 -11.5t8 -11.5t6 -8.5q18 -27 18 -42.5t-6 -35.5
q-23 -59 -31 -103q-4 -21 -24 -21q-22 0 -30.5 11.5t-13 18.5t-8 20t-5.5 20.5t-4 23.5q-3 21 -4 42l-1 16q-4 48 -10 146q-26 -9 -80 -11q-16 -72 -32.5 -132.5t-54 -96.5t-91.5 -36q-16 0 -38 5q-129 35 -176 163q-12 33 -12 58q0 60 50 82q108 49 211 49zM450 309
q-4 88 -8 268q-8 -46 -24.5 -138t-24.5 -138q38 4 57 8zM301 208h-64q-122 0 -195 -17q-41 -8 -41 -30q0 -17 27 -44t70 -41.5t72 -14.5t48.5 10t31 21t22.5 36q14 31 29 80zM588 744q0 -12 -14.5 -12t-29.5 6t-30.5 23.5t-21 24t-22.5 35t-18 29.5q-21 -32 -62.5 -71.5
t-64.5 -39.5q-18 0 -18 23t45 71q22 25 38.5 50t26.5 36t30 11t40 -19.5t34.5 -50.5t16 -33.5t12.5 -17t18 -24.5q20 -27 20 -41z" />
    <glyph glyph-name="Atilde" unicode="&#xc3;" horiz-adv-x="601" 
d="M324 299q49 221 49 332v26q0 17 8.5 25.5t18 10t38 1.5t60 -21t31.5 -57q0 -7 -9 -87t-12 -205q34 14 54.5 29.5t27.5 15.5q11 0 11 -20.5t-31 -52t-62 -51.5q0 -22 2 -70q3 2 8.5 2t11 -3t10 -7t10.5 -11.5t9 -11.5t8 -11.5t6 -8.5q18 -27 18 -42.5t-6 -35.5
q-23 -59 -31 -103q-4 -21 -24 -21q-22 0 -30.5 11.5t-13 18.5t-8 20t-5.5 20.5t-4 23.5q-3 21 -4 42l-1 16q-4 48 -10 146q-26 -9 -80 -11q-16 -72 -32.5 -132.5t-54 -96.5t-91.5 -36q-16 0 -38 5q-129 35 -176 163q-12 33 -12 58q0 60 50 82q108 49 211 49zM450 309
q-4 88 -8 268q-8 -46 -24.5 -138t-24.5 -138q38 4 57 8zM301 208h-64q-122 0 -195 -17q-41 -8 -41 -30q0 -17 27 -44t70 -41.5t72 -14.5t48.5 10t31 21t22.5 36q14 31 29 80zM443.5 855.5q35.5 -28.5 47.5 -28.5t21.5 12t16.5 24.5t19 12.5t22 -18.5t10 -34.5
q0 -33 -22.5 -54t-50.5 -21t-66.5 29.5t-51 29.5t-21 -15t-17.5 -30t-21 -15t-19 13.5t-7 28.5q0 37 27 66t52 29t60.5 -28.5z" />
    <glyph glyph-name="Adieresis" unicode="&#xc4;" horiz-adv-x="601" 
d="M324 299q49 221 49 332v26q0 17 8.5 25.5t18 10t38 1.5t60 -21t31.5 -57q0 -7 -9 -87t-12 -205q34 14 54.5 29.5t27.5 15.5q11 0 11 -20.5t-31 -52t-62 -51.5q0 -22 2 -70q3 2 8.5 2t11 -3t10 -7t10.5 -11.5t9 -11.5t8 -11.5t6 -8.5q18 -27 18 -42.5t-6 -35.5
q-23 -59 -31 -103q-4 -21 -24 -21q-22 0 -30.5 11.5t-13 18.5t-8 20t-5.5 20.5t-4 23.5q-3 21 -4 42l-1 16q-4 48 -10 146q-26 -9 -80 -11q-16 -72 -32.5 -132.5t-54 -96.5t-91.5 -36q-16 0 -38 5q-129 35 -176 163q-12 33 -12 58q0 60 50 82q108 49 211 49zM450 309
q-4 88 -8 268q-8 -46 -24.5 -138t-24.5 -138q38 4 57 8zM301 208h-64q-122 0 -195 -17q-41 -8 -41 -30q0 -17 27 -44t70 -41.5t72 -14.5t48.5 10t31 21t22.5 36q14 31 29 80zM577 844q3 -10 3 -27.5t-16 -36t-40.5 -18.5t-39.5 15.5t-15 38.5t14 44.5t48 21.5t46 -38z
M368 885q18 0 34.5 -17.5t16.5 -43t-14 -44t-35 -18.5t-35 19.5t-14 47.5q0 56 47 56z" />
    <glyph glyph-name="Aring" unicode="&#xc5;" horiz-adv-x="601" 
d="M324 299q49 221 49 332v26q0 17 8.5 25.5t18 10t38 1.5t60 -21t31.5 -57q0 -7 -9 -87t-12 -205q34 14 54.5 29.5t27.5 15.5q11 0 11 -20.5t-31 -52t-62 -51.5q0 -22 2 -70q3 2 8.5 2t11 -3t10 -7t10.5 -11.5t9 -11.5t8 -11.5t6 -8.5q18 -27 18 -42.5t-6 -35.5
q-23 -59 -31 -103q-4 -21 -24 -21q-22 0 -30.5 11.5t-13 18.5t-8 20t-5.5 20.5t-4 23.5q-3 21 -4 42l-1 16q-4 48 -10 146q-26 -9 -80 -11q-16 -72 -32.5 -132.5t-54 -96.5t-91.5 -36q-16 0 -38 5q-129 35 -176 163q-12 33 -12 58q0 60 50 82q108 49 211 49zM450 309
q-4 88 -8 268q-8 -46 -24.5 -138t-24.5 -138q38 4 57 8zM301 208h-64q-122 0 -195 -17q-41 -8 -41 -30q0 -17 27 -44t70 -41.5t72 -14.5t48.5 10t31 21t22.5 36q14 31 29 80zM478 978q41 0 71 -32.5t30 -78.5q0 -39 -27 -87q-14 -25 -42.5 -41.5t-65.5 -16.5q-59 0 -88.5 44
t-29.5 86q0 77 94 114v1q0 11 58 11zM441 913q-17 0 -33.5 -17t-16.5 -42q0 -55 51 -55q31 0 49 19t18 44q0 15 -6 21t-9.5 9t-11.5 6.5t-12 4.5q-18 7 -29 10z" />
    <glyph glyph-name="AE" unicode="&#xc6;" horiz-adv-x="873" 
d="M231 290l90 -2h3q2 8 5.5 31t5.5 31q38 186 38 281v26q0 17 8.5 25.5t18 10t38 1.5t60 -21t31.5 -57q0 -7 -2.5 -26.5t-6.5 -58.5q12 29 37.5 51t55 41t70.5 42.5t57 34t34 10.5t41 -27q12 2 17 2q23 0 33 -20q8 -19 8 -25q0 -36 -153 -97q-6 -2 -8 -2q-6 0 -6 8.5
t10 38.5l-33 -16q-58 -30 -71 -44q-24 -29 -35 -53t-11 -32q0 -34 139 -34h17q27 15 34 15q17 0 42.5 -27.5t25.5 -63.5q0 -12 -13 -12q-4 0 -37 6q-10 -3 -37.5 -11t-37.5 -11t-33 -11t-33.5 -13.5t-29 -15.5t-29.5 -21q-39 -37 -53 -58q-26 -36 -26 -74.5t18 -58
t59.5 -19.5t99 20.5t57.5 59.5q0 13 -6 25.5t-19.5 12.5t-82 -40.5t-72.5 -40.5t-4 6.5t7 22.5q26 49 74 78t99.5 29t87 -30t35.5 -68.5t-20 -64.5q-61 -80 -232 -80q-106 0 -157 82q-28 43 -28 80.5t19 86.5q-24 -4 -56 -4q-20 -92 -34 -142t-51.5 -86.5t-92.5 -36.5
q-16 0 -38 5q-129 35 -176 163q-12 33 -12 58q0 60 50 82q84 38 211 38zM301 208h-64q-118 0 -195 -18q-41 -8 -41 -29q0 -17 27 -44t70 -41.5t72 -14.5t48.5 10t31 21t22.5 36q14 31 29 80zM450 298q-3 77 -8 279q-8 -46 -24.5 -143.5t-24.5 -143.5q38 4 57 8zM514 460
q-8 -137 -5 -143q33 24 100 48q-81 26 -95 95z" />
    <glyph glyph-name="Ccedilla" unicode="&#xc7;" horiz-adv-x="384" 
d="M240 -171q-5 15 -71 33q-24 6 -43.5 25t-19.5 48t15 50q-55 27 -72 93q-19 66 -19 139q0 109 44 230t112 221q10 12 15 12t11.5 -3t14 -7t10.5 -5v30q-6 12 -6 21t9 9q1 0 16 -3q88 -31 88 -144q0 -75 -33 -133q-10 -18 -15.5 -18t-15.5 16q-32 66 -41 171q-15 0 -22 -11
t-24 -58q-63 -170 -63 -349q0 -99 22 -169q65 61 112.5 151.5t70.5 185.5q24 -79 24 -140q0 -130 -100 -235q-21 -22 -58 -22q-9 0 -27 2q-6 -9 -6 -21.5t21.5 -19.5t47.5 -12t47.5 -26.5t21.5 -58.5q0 -63 -41.5 -91.5t-106.5 -28.5q-21 0 -31.5 2t-19.5 15.5t-9 43.5
t21 30q4 0 6.5 -4t4.5 -4q75 6 100 21q10 6 10 12v2z" />
    <glyph glyph-name="Egrave" unicode="&#xc8;" horiz-adv-x="452" 
d="M145 443q0 -34 139 -34h17q27 15 34 15q17 0 42.5 -27.5t25.5 -63.5q0 -12 -13 -12q-4 0 -37 6q-10 -3 -37.5 -11t-37.5 -11t-33 -11t-33.5 -13.5t-29 -15.5t-30.5 -21q-38 -37 -52 -58q-26 -36 -26 -74.5t18 -58t59.5 -19.5t99 20.5t57.5 59.5q0 13 -6 25.5t-19.5 12.5
t-82 -40.5t-72.5 -40.5t-4 8.5t7 20.5q29 49 76 78t98 29t86.5 -30t35.5 -68.5t-20 -64.5q-61 -80 -232 -80q-106 0 -157 82q-28 43 -28 83t25 97.5t66.5 86.5t106.5 52q-97 31 -97 123q0 55 46 94q39 34 102.5 70.5t79.5 47t34 10.5t41 -27q12 2 17 2q23 0 33 -20
q8 -19 8 -25q0 -36 -153 -97q-6 -2 -8 -2q-6 0 -6 8.5t10 38.5l-33 -16q-58 -30 -71 -44q-24 -29 -35 -54t-11 -31zM306 791q-8 12 -20 27.5t-37 39.5t-37 35.5t-12 18.5q0 10 21 22t34 12t17 -1t8.5 -4.5t7.5 -6.5t8 -11t9.5 -15t13 -21t12.5 -20.5t23 -34.5q38 -58 38 -71
t-12 -13t-22 2.5t-16.5 5t-13.5 9.5l-11 11q-3 3 -11 15z" />
    <glyph glyph-name="Eacute" unicode="&#xc9;" horiz-adv-x="452" 
d="M145 443q0 -34 139 -34h17q27 15 34 15q17 0 42.5 -27.5t25.5 -63.5q0 -12 -13 -12q-4 0 -37 6q-10 -3 -37.5 -11t-37.5 -11t-33 -11t-33.5 -13.5t-29 -15.5t-30.5 -21q-38 -37 -52 -58q-26 -36 -26 -74.5t18 -58t59.5 -19.5t99 20.5t57.5 59.5q0 13 -6 25.5t-19.5 12.5
t-82 -40.5t-72.5 -40.5t-4 8.5t7 20.5q29 49 76 78t98 29t86.5 -30t35.5 -68.5t-20 -64.5q-61 -80 -232 -80q-106 0 -157 82q-28 43 -28 83t25 97.5t66.5 86.5t106.5 52q-97 31 -97 123q0 55 46 94q39 34 102.5 70.5t79.5 47t34 10.5t41 -27q12 2 17 2q23 0 33 -20
q8 -19 8 -25q0 -36 -153 -97q-6 -2 -8 -2q-6 0 -6 8.5t10 38.5l-33 -16q-58 -30 -71 -44q-24 -29 -35 -54t-11 -31zM341 765q0 55 82 134q14 14 19.5 20.5t5.5 15.5t6 9q24 0 37.5 -28t13.5 -42q0 -28 -22 -46q-10 -13 -59 -46.5t-61.5 -33.5t-17 6t-4.5 11z" />
    <glyph glyph-name="Ecircumflex" unicode="&#xca;" horiz-adv-x="452" 
d="M145 443q0 -34 139 -34h17q27 15 34 15q17 0 42.5 -27.5t25.5 -63.5q0 -12 -13 -12q-4 0 -37 6q-10 -3 -37.5 -11t-37.5 -11t-33 -11t-33.5 -13.5t-29 -15.5t-30.5 -21q-38 -37 -52 -58q-26 -36 -26 -74.5t18 -58t59.5 -19.5t99 20.5t57.5 59.5q0 13 -6 25.5t-19.5 12.5
t-82 -40.5t-72.5 -40.5t-4 8.5t7 20.5q29 49 76 78t98 29t86.5 -30t35.5 -68.5t-20 -64.5q-61 -80 -232 -80q-106 0 -157 82q-28 43 -28 83t25 97.5t66.5 86.5t106.5 52q-97 31 -97 123q0 55 46 94q39 34 102.5 70.5t79.5 47t34 10.5t41 -27q12 2 17 2q23 0 33 -20
q8 -19 8 -25q0 -36 -153 -97q-6 -2 -8 -2q-6 0 -6 8.5t10 38.5l-33 -16q-58 -30 -71 -44q-24 -29 -35 -54t-11 -31zM502 760q0 -12 -14.5 -12t-29.5 6t-30.5 23.5t-21 24t-22.5 35t-18 29.5q-21 -32 -62.5 -71.5t-64.5 -39.5q-18 0 -18 23t45 71q22 25 38.5 50t26.5 36
t30 11t40 -19.5t34.5 -50.5t16 -33.5t12.5 -17t18 -24.5q20 -27 20 -41z" />
    <glyph glyph-name="Edieresis" unicode="&#xcb;" horiz-adv-x="452" 
d="M145 443q0 -34 139 -34h17q27 15 34 15q17 0 42.5 -27.5t25.5 -63.5q0 -12 -13 -12q-4 0 -37 6q-10 -3 -37.5 -11t-37.5 -11t-33 -11t-33.5 -13.5t-29 -15.5t-30.5 -21q-38 -37 -52 -58q-26 -36 -26 -74.5t18 -58t59.5 -19.5t99 20.5t57.5 59.5q0 13 -6 25.5t-19.5 12.5
t-82 -40.5t-72.5 -40.5t-4 8.5t7 20.5q29 49 76 78t98 29t86.5 -30t35.5 -68.5t-20 -64.5q-61 -80 -232 -80q-106 0 -157 82q-28 43 -28 83t25 97.5t66.5 86.5t106.5 52q-97 31 -97 123q0 55 46 94q39 34 102.5 70.5t79.5 47t34 10.5t41 -27q12 2 17 2q23 0 33 -20
q8 -19 8 -25q0 -36 -153 -97q-6 -2 -8 -2q-6 0 -6 8.5t10 38.5l-33 -16q-58 -30 -71 -44q-24 -29 -35 -54t-11 -31zM491 860q3 -10 3 -27.5t-16 -36t-40.5 -18.5t-39.5 15.5t-15 38.5t14 44.5t48 21.5t46 -38zM282 901q18 0 34.5 -17.5t16.5 -43t-14 -44t-35 -18.5t-35 19.5
t-14 47.5q0 56 47 56z" />
    <glyph glyph-name="Igrave" unicode="&#xcc;" horiz-adv-x="293" 
d="M207 634q0 34 -14 34t-28.5 -21t-14.5 -29t5 -30t5 -45.5t-17 -98t-27.5 -99t-24.5 -24.5q-11 0 -19.5 9.5t-20 28.5t-21.5 32.5t-10 30.5t31 86.5t52 110.5q-14 17 -14 23q0 12 17 12q5 0 13 -4q2 3 9 16.5t10 18.5t10.5 15.5t13.5 15.5q19 12 36 12q75 0 74 -218v-9
q0 -231 -54 -529q-5 -22 -22 -22q-19 0 -44 24t-38 37q-35 35 -47 51q-15 17 -15 32t11.5 37.5t24.5 22.5t25.5 -21t20.5 -21t10.5 15.5t5.5 43.5q8 59 32.5 209t24.5 223v31zM146 809q-8 12 -20 27.5t-37 39.5t-37 35.5t-12 18.5q0 10 21 22t34 12t17 -1t8.5 -4.5t7.5 -6.5
t8 -11t9.5 -15t13 -21t12.5 -20.5t23 -34.5q38 -58 38 -71t-12 -13t-22 2.5t-16.5 5t-13.5 9.5l-11 11q-3 3 -11 15z" />
    <glyph glyph-name="Iacute" unicode="&#xcd;" horiz-adv-x="293" 
d="M207 634q0 34 -14 34t-28.5 -21t-14.5 -29t5 -30t5 -45.5t-17 -98t-27.5 -99t-24.5 -24.5q-11 0 -19.5 9.5t-20 28.5t-21.5 32.5t-10 30.5t31 86.5t52 110.5q-14 17 -14 23q0 12 17 12q5 0 13 -4q2 3 9 16.5t10 18.5t10.5 15.5t13.5 15.5q19 12 36 12q75 0 74 -218v-9
q0 -231 -54 -529q-5 -22 -22 -22q-19 0 -44 24t-38 37q-35 35 -47 51q-15 17 -15 32t11.5 37.5t24.5 22.5t25.5 -21t20.5 -21t10.5 15.5t5.5 43.5q8 59 32.5 209t24.5 223v31zM181 783q0 55 82 134q14 14 19.5 20.5t5.5 15.5t6 9q24 0 37.5 -28t13.5 -42q0 -28 -22 -46
q-10 -13 -59 -46.5t-61.5 -33.5t-17 6t-4.5 11z" />
    <glyph glyph-name="Icircumflex" unicode="&#xce;" horiz-adv-x="293" 
d="M207 634q0 34 -14 34t-28.5 -21t-14.5 -29t5 -30t5 -45.5t-17 -98t-27.5 -99t-24.5 -24.5q-11 0 -19.5 9.5t-20 28.5t-21.5 32.5t-10 30.5t31 86.5t52 110.5q-14 17 -14 23q0 12 17 12q5 0 13 -4q2 3 9 16.5t10 18.5t10.5 15.5t13.5 15.5q19 12 36 12q75 0 74 -218v-9
q0 -231 -54 -529q-5 -22 -22 -22q-19 0 -44 24t-38 37q-35 35 -47 51q-15 17 -15 32t11.5 37.5t24.5 22.5t25.5 -21t20.5 -21t10.5 15.5t5.5 43.5q8 59 32.5 209t24.5 223v31zM342 778q0 -12 -14.5 -12t-29.5 6t-30.5 23.5t-21 24t-22.5 35t-18 29.5q-21 -32 -62.5 -71.5
t-64.5 -39.5q-18 0 -18 23t45 71q22 25 38.5 50t26.5 36t30 11t40 -19.5t34.5 -50.5t16 -33.5t12.5 -17t18 -24.5q20 -27 20 -41z" />
    <glyph glyph-name="Idieresis" unicode="&#xcf;" horiz-adv-x="293" 
d="M207 634q0 34 -14 34t-28.5 -21t-14.5 -29t5 -30t5 -45.5t-17 -98t-27.5 -99t-24.5 -24.5q-11 0 -19.5 9.5t-20 28.5t-21.5 32.5t-10 30.5t31 86.5t52 110.5q-14 17 -14 23q0 12 17 12q5 0 13 -4q2 3 9 16.5t10 18.5t10.5 15.5t13.5 15.5q19 12 36 12q75 0 74 -218v-9
q0 -231 -54 -529q-5 -22 -22 -22q-19 0 -44 24t-38 37q-35 35 -47 51q-15 17 -15 32t11.5 37.5t24.5 22.5t25.5 -21t20.5 -21t10.5 15.5t5.5 43.5q8 59 32.5 209t24.5 223v31zM331 878q3 -10 3 -27.5t-16 -36t-40.5 -18.5t-39.5 15.5t-15 38.5t14 44.5t48 21.5t46 -38z
M122 919q18 0 34.5 -17.5t16.5 -43t-14 -44t-35 -18.5t-35 19.5t-14 47.5q0 56 47 56z" />
    <glyph glyph-name="Eth" unicode="&#xd0;" horiz-adv-x="490" 
d="M14 566l-4 39q0 13 11 20q57 38 161 63q43 9 71 9q142 0 205 -174q22 -62 22 -131q0 -104 -55 -210t-113 -171q-32 -34 -68 -34t-56 28t-20 71.5t16 97.5t50 68q-5 -23 -5 -48.5t17.5 -62.5t41.5 -37t39 28q62 112 62 255q0 170 -89 220q-26 14 -50 14t-52 -14
q8 -43 8 -94t-7 -114l69 3q26 0 26 -25q0 -47 -33 -47l-72 1q-28 -172 -28 -260v-32q0 -26 -12 -34t-25 -8q-37 0 -52 137q-6 55 -10 74q3 1 9 1q18 0 42 -26v26q-1 51 4 121q-50 -5 -69 -5t-24.5 7.5t-5.5 20t2 20.5t9 16.5t16 8.5l78 -1q12 102 12 126.5t-4 47.5
q-7 -4 -28 -21q-49 -40 -69.5 -40t-20.5 35z" />
    <glyph glyph-name="Ntilde" unicode="&#xd1;" horiz-adv-x="601" 
d="M308 22l2 -18q0 -21 -16.5 -36.5t-38.5 -15.5t-45.5 29.5t-23.5 50.5q0 25 13 51q1 7 7 70t31.5 212.5t32.5 203.5v10q0 24 -17.5 24t-35.5 -18q2 -4 2 -16t-27 -76.5t-77 -195.5q-15 -36 -40 -36t-45 30t-20 51.5t7 40.5q25 60 57 119.5t50.5 94.5t28 51t19.5 16t18 -2
q19 23 51 23t64.5 -20t32.5 -100q0 -28 -5 -80.5t-6 -66.5q81 231 144 289q11 11 31 11q45 0 56.5 -17.5t11.5 -64t-9 -100.5t-28 -136.5t-24.5 -109t-5.5 -51.5t3 -25q8 0 40.5 53.5t38.5 53.5t6 -19q0 -67 -15.5 -142t-44 -114t-51.5 -39q-10 0 -25 11.5t-18 14.5
q-33 36 -33 105q0 61 62 362q19 96 26 133q-75 -126 -116.5 -266.5t-64.5 -319.5zM388.5 874.5q35.5 -28.5 47.5 -28.5t21.5 12t16.5 24.5t19 12.5t22 -18.5t10 -34.5q0 -33 -22.5 -54t-50.5 -21t-66.5 29.5t-51 29.5t-21 -15t-17.5 -30t-21 -15t-19 13.5t-7 28.5
q0 37 27 66t52 29t60.5 -28.5z" />
    <glyph glyph-name="Ograve" unicode="&#xd2;" horiz-adv-x="427" 
d="M427 398q0 -81 -60 -137q-39 -146 -95 -232q-33 -49 -77 -49q-23 0 -54 18q-83 51 -97 118t-14 140q0 190 96 390q12 23 25 23q2 0 47 -18q25 58 102 58q40 0 59 -15q43 -34 43 -172q0 -46 -7 -107l24 48q8 -34 8 -65zM321 594q0 17 -7.5 33t-20.5 16t-22.5 -11
t-21.5 -31q-57 -92 -57 -223q0 -33 18.5 -68.5t48.5 -35.5q5 0 13 2q49 147 49 318zM254 228q-31 8 -57 28.5t-38 48.5q-22 58 -22 103t6 75q-43 -89 -43 -200.5t25 -193.5q9 -30 28 -30q13 0 24 18q43 60 77 151zM235 790q-8 12 -20 27.5t-37 39.5t-37 35.5t-12 18.5
q0 10 21 22t34 12t17 -1t8.5 -4.5t7.5 -6.5t8 -11t9.5 -15t13 -21t12.5 -20.5t23 -34.5q38 -58 38 -71t-12 -13t-22 2.5t-16.5 5t-13.5 9.5l-11 11q-3 3 -11 15z" />
    <glyph glyph-name="Oacute" unicode="&#xd3;" horiz-adv-x="427" 
d="M427 398q0 -81 -60 -137q-39 -146 -95 -232q-33 -49 -77 -49q-23 0 -54 18q-83 51 -97 118t-14 140q0 190 96 390q12 23 25 23q2 0 47 -18q25 58 102 58q40 0 59 -15q43 -34 43 -172q0 -46 -7 -107l24 48q8 -34 8 -65zM321 594q0 17 -7.5 33t-20.5 16t-22.5 -11
t-21.5 -31q-57 -92 -57 -223q0 -33 18.5 -68.5t48.5 -35.5q5 0 13 2q49 147 49 318zM254 228q-31 8 -57 28.5t-38 48.5q-22 58 -22 103t6 75q-43 -89 -43 -200.5t25 -193.5q9 -30 28 -30q13 0 24 18q43 60 77 151zM270 764q0 55 82 134q14 14 19.5 20.5t5.5 15.5t6 9
q24 0 37.5 -28t13.5 -42q0 -28 -22 -46q-10 -13 -59 -46.5t-61.5 -33.5t-17 6t-4.5 11z" />
    <glyph glyph-name="Ocircumflex" unicode="&#xd4;" horiz-adv-x="427" 
d="M427 398q0 -81 -60 -137q-39 -146 -95 -232q-33 -49 -77 -49q-23 0 -54 18q-83 51 -97 118t-14 140q0 190 96 390q12 23 25 23q2 0 47 -18q25 58 102 58q40 0 59 -15q43 -34 43 -172q0 -46 -7 -107l24 48q8 -34 8 -65zM321 594q0 17 -7.5 33t-20.5 16t-22.5 -11
t-21.5 -31q-57 -92 -57 -223q0 -33 18.5 -68.5t48.5 -35.5q5 0 13 2q49 147 49 318zM254 228q-31 8 -57 28.5t-38 48.5q-22 58 -22 103t6 75q-43 -89 -43 -200.5t25 -193.5q9 -30 28 -30q13 0 24 18q43 60 77 151zM431 759q0 -12 -14.5 -12t-29.5 6t-30.5 23.5t-21 24
t-22.5 35t-18 29.5q-21 -32 -62.5 -71.5t-64.5 -39.5q-18 0 -18 23t45 71q22 25 38.5 50t26.5 36t30 11t40 -19.5t34.5 -50.5t16 -33.5t12.5 -17t18 -24.5q20 -27 20 -41z" />
    <glyph glyph-name="Otilde" unicode="&#xd5;" horiz-adv-x="427" 
d="M427 398q0 -81 -60 -137q-39 -146 -95 -232q-33 -49 -77 -49q-23 0 -54 18q-83 51 -97 118t-14 140q0 190 96 390q12 23 25 23q2 0 47 -18q25 58 102 58q40 0 59 -15q43 -34 43 -172q0 -46 -7 -107l24 48q8 -34 8 -65zM321 594q0 17 -7.5 33t-20.5 16t-22.5 -11
t-21.5 -31q-57 -92 -57 -223q0 -33 18.5 -68.5t48.5 -35.5q5 0 13 2q49 147 49 318zM254 228q-31 8 -57 28.5t-38 48.5q-22 58 -22 103t6 75q-43 -89 -43 -200.5t25 -193.5q9 -30 28 -30q13 0 24 18q43 60 77 151zM286.5 870.5q35.5 -28.5 47.5 -28.5t21.5 12t16.5 24.5
t19 12.5t22 -18.5t10 -34.5q0 -33 -22.5 -54t-50.5 -21t-66.5 29.5t-51 29.5t-21 -15t-17.5 -30t-21 -15t-19 13.5t-7 28.5q0 37 27 66t52 29t60.5 -28.5z" />
    <glyph glyph-name="Odieresis" unicode="&#xd6;" horiz-adv-x="427" 
d="M427 398q0 -81 -60 -137q-39 -146 -95 -232q-33 -49 -77 -49q-23 0 -54 18q-83 51 -97 118t-14 140q0 190 96 390q12 23 25 23q2 0 47 -18q25 58 102 58q40 0 59 -15q43 -34 43 -172q0 -46 -7 -107l24 48q8 -34 8 -65zM321 594q0 17 -7.5 33t-20.5 16t-22.5 -11
t-21.5 -31q-57 -92 -57 -223q0 -33 18.5 -68.5t48.5 -35.5q5 0 13 2q49 147 49 318zM254 228q-31 8 -57 28.5t-38 48.5q-22 58 -22 103t6 75q-43 -89 -43 -200.5t25 -193.5q9 -30 28 -30q13 0 24 18q43 60 77 151zM420 859q3 -10 3 -27.5t-16 -36t-40.5 -18.5t-39.5 15.5
t-15 38.5t14 44.5t48 21.5t46 -38zM211 900q18 0 34.5 -17.5t16.5 -43t-14 -44t-35 -18.5t-35 19.5t-14 47.5q0 56 47 56z" />
    <glyph glyph-name="multiply" unicode="&#xd7;" 
d="M357 199q-12 -10 -28 -10t-45 23q-39 31 -76 61q-58 -49 -89 -85q-19 -31 -38 -31q-22 0 -22 32q0 19 7.5 37t17.5 22q23 15 72 63q-50 34 -83 62t-33 34q0 12 16 22.5t29 10.5t27 -10t93 -75q63 51 106 76q15 11 22.5 11t14 -2.5t14 -11.5t7.5 -19t-4.5 -16t-15.5 -15
t-22 -17t-31.5 -22.5t-35.5 -25.5q11 -8 24.5 -17.5t21.5 -15.5t17.5 -13t15 -11t11 -9t8.5 -7.5t6 -5.5q5 -6 5 -15.5t-12 -19.5z" />
    <glyph glyph-name="Oslash" unicode="&#xd8;" horiz-adv-x="417" 
d="M446 776h4q3 0 3 -1t1 -3l2 -4q2 -10 6 -21t4 -22q0 -32 -67 -143q3 -30 3 -60q0 -114 -34.5 -257t-95.5 -236q-33 -49 -77 -49q-23 0 -57 20t-56 43q-31 -78 -39 -144l-1 -13q0 -11 -14 -11t-26 23q-18 33 -18 63t60 155q-14 64 -14 140q0 190 96 390q12 23 25 23
q2 0 47 -18q25 58 102 58h5q51 -1 71 -35q30 46 57 90q6 12 13 12zM116 122q10 -63 37 -63q13 0 24 18q103 145 134 369q-144 -217 -195 -324zM176 378q-42 10 -37 74q1 13 4 31q-43 -89 -43 -207q0 -33 1 -49q80 144 220 362v5q0 17 -7.5 33t-22.5 16q-26 0 -58.5 -65
t-43 -107t-13.5 -93z" />
    <glyph glyph-name="Ugrave" unicode="&#xd9;" horiz-adv-x="563" 
d="M486 648q-56 -171 -56 -354t28 -183q6 0 11 5q58 60 64 136q0 20 5 20t15 -16.5t10 -59.5t-34.5 -111t-77.5 -68q-24 0 -44 19t-27 49.5t-12.5 71t-10.5 90.5t-9 77q-7 -27 -26 -109t-30 -122q-27 -92 -85 -92q-28 0 -49 16.5t-26 43.5q-12 56 -12 134.5t18.5 162.5
t38 145.5t19.5 72.5t-5 11t-16 -12t-25.5 -34.5t-22 -38t-21.5 -47.5t-20 -44q-14 -29 -36.5 -29t-36 27t-13.5 50t17 42q64 72 133 193l14 -11q23 7 28.5 7t12.5 -2.5t25 -7.5t24.5 -7.5t18.5 -9t16 -13.5q12 -23 12 -50t-6 -51.5t-46 -168t-49 -221.5v-9q0 -17 6 -17
t12 16q74 180 159 440q6 20 6 30l-7 30q0 11 11 17q16 11 44.5 23t44.5 12t16 -16.5t-6 -36.5zM269 778q-8 12 -20 27.5t-37 39.5t-37 35.5t-12 18.5q0 10 21 22t34 12t17 -1t8.5 -4.5t7.5 -6.5t8 -11t9.5 -15t13 -21t12.5 -20.5t23 -34.5q38 -58 38 -71t-12 -13t-22 2.5
t-16.5 5t-13.5 9.5l-11 11q-3 3 -11 15z" />
    <glyph glyph-name="Uacute" unicode="&#xda;" horiz-adv-x="563" 
d="M486 648q-56 -171 -56 -354t28 -183q6 0 11 5q58 60 64 136q0 20 5 20t15 -16.5t10 -59.5t-34.5 -111t-77.5 -68q-24 0 -44 19t-27 49.5t-12.5 71t-10.5 90.5t-9 77q-7 -27 -26 -109t-30 -122q-27 -92 -85 -92q-28 0 -49 16.5t-26 43.5q-12 56 -12 134.5t18.5 162.5
t38 145.5t19.5 72.5t-5 11t-16 -12t-25.5 -34.5t-22 -38t-21.5 -47.5t-20 -44q-14 -29 -36.5 -29t-36 27t-13.5 50t17 42q64 72 133 193l14 -11q23 7 28.5 7t12.5 -2.5t25 -7.5t24.5 -7.5t18.5 -9t16 -13.5q12 -23 12 -50t-6 -51.5t-46 -168t-49 -221.5v-9q0 -17 6 -17
t12 16q74 180 159 440q6 20 6 30l-7 30q0 11 11 17q16 11 44.5 23t44.5 12t16 -16.5t-6 -36.5zM304 752q0 55 82 134q14 14 19.5 20.5t5.5 15.5t6 9q24 0 37.5 -28t13.5 -42q0 -28 -22 -46q-10 -13 -59 -46.5t-61.5 -33.5t-17 6t-4.5 11z" />
    <glyph glyph-name="Ucircumflex" unicode="&#xdb;" horiz-adv-x="563" 
d="M486 648q-56 -171 -56 -354t28 -183q6 0 11 5q58 60 64 136q0 20 5 20t15 -16.5t10 -59.5t-34.5 -111t-77.5 -68q-24 0 -44 19t-27 49.5t-12.5 71t-10.5 90.5t-9 77q-7 -27 -26 -109t-30 -122q-27 -92 -85 -92q-28 0 -49 16.5t-26 43.5q-12 56 -12 134.5t18.5 162.5
t38 145.5t19.5 72.5t-5 11t-16 -12t-25.5 -34.5t-22 -38t-21.5 -47.5t-20 -44q-14 -29 -36.5 -29t-36 27t-13.5 50t17 42q64 72 133 193l14 -11q23 7 28.5 7t12.5 -2.5t25 -7.5t24.5 -7.5t18.5 -9t16 -13.5q12 -23 12 -50t-6 -51.5t-46 -168t-49 -221.5v-9q0 -17 6 -17
t12 16q74 180 159 440q6 20 6 30l-7 30q0 11 11 17q16 11 44.5 23t44.5 12t16 -16.5t-6 -36.5zM465 747q0 -12 -14.5 -12t-29.5 6t-30.5 23.5t-21 24t-22.5 35t-18 29.5q-21 -32 -62.5 -71.5t-64.5 -39.5q-18 0 -18 23t45 71q22 25 38.5 50t26.5 36t30 11t40 -19.5
t34.5 -50.5t16 -33.5t12.5 -17t18 -24.5q20 -27 20 -41z" />
    <glyph glyph-name="Udieresis" unicode="&#xdc;" horiz-adv-x="563" 
d="M486 648q-56 -171 -56 -354t28 -183q6 0 11 5q58 60 64 136q0 20 5 20t15 -16.5t10 -59.5t-34.5 -111t-77.5 -68q-24 0 -44 19t-27 49.5t-12.5 71t-10.5 90.5t-9 77q-7 -27 -26 -109t-30 -122q-27 -92 -85 -92q-28 0 -49 16.5t-26 43.5q-12 56 -12 134.5t18.5 162.5
t38 145.5t19.5 72.5t-5 11t-16 -12t-25.5 -34.5t-22 -38t-21.5 -47.5t-20 -44q-14 -29 -36.5 -29t-36 27t-13.5 50t17 42q64 72 133 193l14 -11q23 7 28.5 7t12.5 -2.5t25 -7.5t24.5 -7.5t18.5 -9t16 -13.5q12 -23 12 -50t-6 -51.5t-46 -168t-49 -221.5v-9q0 -17 6 -17
t12 16q74 180 159 440q6 20 6 30l-7 30q0 11 11 17q16 11 44.5 23t44.5 12t16 -16.5t-6 -36.5zM454 847q3 -10 3 -27.5t-16 -36t-40.5 -18.5t-39.5 15.5t-15 38.5t14 44.5t48 21.5t46 -38zM245 888q18 0 34.5 -17.5t16.5 -43t-14 -44t-35 -18.5t-35 19.5t-14 47.5
q0 56 47 56z" />
    <glyph glyph-name="Yacute" unicode="&#xdd;" horiz-adv-x="517" 
d="M522 727q65 0 65 -22q0 -9 -9 -25q-123 -215 -155 -480q-11 -86 -11 -120q0 -17 12 -17q4 0 7 10t6 10q7 0 19.5 -22.5t12.5 -33.5q0 -29 -47 -132q-17 -39 -37 -39q-4 0 -12 4q-42 25 -42 134.5t30 295.5q-8 -10 -28 -38.5t-33.5 -45t-34.5 -36.5q-41 -41 -86 -41
t-75 32q-9 10 -27.5 48.5t-18.5 83t20.5 93.5t41.5 86.5t36 61.5q28 41 87 127q6 10 6 16q0 14 -23.5 14t-43.5 -9t-23 -13t-5 -14l1 -13q0 -23 -17.5 -40.5t-37.5 -32t-45 -14.5t-34.5 4.5t-14.5 14.5q-6 14 -6 44t23 46q3 2 28 18.5t32.5 21.5t30 17.5t35.5 16.5
q42 15 76.5 15t65.5 -25.5t31 -67.5q0 -27 -17.5 -66.5t-69 -116t-66.5 -101.5q-39 -71 -39 -110t18 -39q17 0 49 28.5t49 47.5t40.5 52t34 50t33.5 55t36 59q55 93 89 157q-2 10 -2 17q0 34 45 34zM397 783q0 55 82 134q14 14 19.5 20.5t5.5 15.5t6 9q24 0 37.5 -28
t13.5 -42q0 -28 -22 -46q-10 -13 -59 -46.5t-61.5 -33.5t-17 6t-4.5 11z" />
    <glyph glyph-name="Thorn" unicode="&#xde;" horiz-adv-x="436" 
d="M177 57l1 -15q0 -33 -31 -49q-22 -12 -40 -12t-38 33q-33 53 -56 151q-3 7 -3 18.5t7.5 11.5t39 -35t37.5 -35t6 18q0 139 18 325q-2 -2 -6 -8q-33 -43 -65.5 -43t-32.5 43q0 68 46 93q27 16 75 35q5 32 15 91.5t12 71.5q-4 16 -4 28.5t10 12.5t22 -14q17 -17 27 -50
t10 -53t-4 -46l-3 -18q18 2 26 2q89 0 144.5 -54t55.5 -133q0 -101 -55 -175t-156 -74q-47 0 -67 19q0 -64 9 -139zM180 359q27 32 84 32q15 0 15 -4.5t-13.5 -4.5t-22 -1t-19.5 -4q-23 -6 -23 -36q0 -48 37 -48q7 0 19 2q68 15 102 52t34 103q0 42 -39 61.5t-81 19.5
t-69 -9q-18 -110 -24 -163z" />
    <glyph glyph-name="germandbls" unicode="&#xdf;" horiz-adv-x="434" 
d="M0 -128q0 360 126 650q18 41 67 115t75 74q94 0 123 -56q24 -46 24 -121.5t-33 -109.5t-113 -58q-12 -3 -12 -9t14 -13q50 -20 99 -73t49 -114q0 -35 -23 -66q-67 -92 -186 -92q-38 0 -56.5 25t-18.5 60t7 52t26 30q44 29 72 29q7 0 7 -3q0 -6 -13.5 -12.5t-33 -25
t-19.5 -29t26.5 -10.5t82 15.5t55.5 36.5q0 26 -145 119q-23 15 -23 42.5t17 47t41.5 37t49 37.5t41.5 53t17 71.5t-23 38.5q-27 0 -81.5 -88t-87 -191t-55 -272.5t-22.5 -285.5q0 -31 5 -41t11 -19q24 -35 24 -48t-7 -13q-13 0 -39.5 20.5t-33.5 32.5q-34 67 -34 164z" />
    <glyph glyph-name="agrave" unicode="&#xe0;" horiz-adv-x="418" 
d="M237 132q-82 -147 -125 -147q-31 0 -56 38q-7 10 -15 31.5t-19.5 39.5t-11.5 48.5t12 54.5q82 162 173 222q12 9 28 9t40 -18q14 -14 17 -24q5 -22 5 -27q35 -12 35 -44q0 -22 -12 -99.5t-14 -115.5q0 -21 14 -21q16 0 57.5 56t47.5 56q10 0 10 -33l-2 -49
q0 -28 -25 -76.5t-64 -48.5q-24 0 -38 16q-5 5 -15 20q-31 45 -42 112zM246 363q-126 -115 -160 -263q101 87 160 263zM176 509q-8 12 -20 27.5t-37 39.5t-37 35.5t-12 18.5q0 10 21 22t34 12t17 -1t8.5 -4.5t7.5 -6.5t8 -11t9.5 -15t13 -21t12.5 -20.5t23 -34.5
q38 -58 38 -71t-12 -13t-22 2.5t-16.5 5t-13.5 10.5l-11 10q-3 3 -11 15z" />
    <glyph glyph-name="aacute" unicode="&#xe1;" horiz-adv-x="418" 
d="M237 132q-82 -147 -125 -147q-31 0 -56 38q-7 10 -15 31.5t-19.5 39.5t-11.5 48.5t12 54.5q82 162 173 222q12 9 28 9t40 -18q14 -14 17 -24q5 -22 5 -27q35 -12 35 -44q0 -22 -12 -99.5t-14 -115.5q0 -21 14 -21q16 0 57.5 56t47.5 56q10 0 10 -33l-2 -49
q0 -28 -25 -76.5t-64 -48.5q-24 0 -38 16q-5 5 -15 20q-31 45 -42 112zM246 363q-126 -115 -160 -263q101 87 160 263zM211 483q0 55 82 135q14 13 19.5 19.5t5.5 15.5t6 9q24 0 37.5 -28t13.5 -42q0 -28 -22 -46q-10 -13 -59 -46.5t-61.5 -33.5t-17 6t-4.5 11z" />
    <glyph glyph-name="acircumflex" unicode="&#xe2;" horiz-adv-x="418" 
d="M237 132q-82 -147 -125 -147q-31 0 -56 38q-7 10 -15 31.5t-19.5 39.5t-11.5 48.5t12 54.5q82 162 173 222q12 9 28 9t40 -18q14 -14 17 -24q5 -22 5 -27q35 -12 35 -44q0 -22 -12 -99.5t-14 -115.5q0 -21 14 -21q16 0 57.5 56t47.5 56q10 0 10 -33l-2 -49
q0 -28 -25 -76.5t-64 -48.5q-24 0 -38 16q-5 5 -15 20q-31 45 -42 112zM246 363q-126 -115 -160 -263q101 87 160 263zM372 478q0 -12 -14.5 -12t-29.5 6t-30.5 23.5t-21 24t-22.5 35t-18 29.5q-21 -32 -62.5 -71.5t-64.5 -39.5q-18 0 -18 23t45 72q22 24 38.5 49t26.5 36
t30 11t40 -19.5t34.5 -50.5t16 -33.5t12.5 -17t18 -23.5q20 -28 20 -42z" />
    <glyph glyph-name="atilde" unicode="&#xe3;" horiz-adv-x="418" 
d="M237 132q-82 -147 -125 -147q-31 0 -56 38q-7 10 -15 31.5t-19.5 39.5t-11.5 48.5t12 54.5q82 162 173 222q12 9 28 9t40 -18q14 -14 17 -24q5 -22 5 -27q35 -12 35 -44q0 -22 -12 -99.5t-14 -115.5q0 -21 14 -21q16 0 57.5 56t47.5 56q10 0 10 -33l-2 -49
q0 -28 -25 -76.5t-64 -48.5q-24 0 -38 16q-5 5 -15 20q-31 45 -42 112zM246 363q-126 -115 -160 -263q101 87 160 263zM227.5 589.5q35.5 -28.5 47.5 -28.5t21.5 12.5t16.5 24.5t19 12t22 -18.5t10 -34.5q0 -33 -22.5 -54t-50.5 -21t-66.5 29.5t-51 29.5t-21 -15t-17.5 -30
t-21 -15t-19 13.5t-7 28.5q0 37 27 66t52 29t60.5 -28.5z" />
    <glyph glyph-name="adieresis" unicode="&#xe4;" horiz-adv-x="418" 
d="M237 132q-82 -147 -125 -147q-31 0 -56 38q-7 10 -15 31.5t-19.5 39.5t-11.5 48.5t12 54.5q82 162 173 222q12 9 28 9t40 -18q14 -14 17 -24q5 -22 5 -27q35 -12 35 -44q0 -22 -12 -99.5t-14 -115.5q0 -21 14 -21q16 0 57.5 56t47.5 56q10 0 10 -33l-2 -49
q0 -28 -25 -76.5t-64 -48.5q-24 0 -38 16q-5 5 -15 20q-31 45 -42 112zM246 363q-126 -115 -160 -263q101 87 160 263zM361 578q3 -11 3 -28t-16 -35.5t-40.5 -18.5t-39.5 15.5t-15 38.5t14 44.5t48 21.5t46 -38zM152 619q18 0 34.5 -17.5t16.5 -43t-13.5 -44t-35 -18.5
t-35.5 19.5t-14 47.5q0 56 47 56z" />
    <glyph glyph-name="aring" unicode="&#xe5;" horiz-adv-x="418" 
d="M237 132q-82 -147 -125 -147q-31 0 -56 38q-7 10 -15 31.5t-19.5 39.5t-11.5 48.5t12 54.5q82 162 173 222q12 9 28 9t40 -18q14 -14 17 -24q5 -22 5 -27q35 -12 35 -44q0 -22 -12 -99.5t-14 -115.5q0 -21 14 -21q16 0 57.5 56t47.5 56q10 0 10 -33l-2 -49
q0 -28 -25 -76.5t-64 -48.5q-24 0 -38 16q-5 5 -15 20q-31 45 -42 112zM246 363q-126 -115 -160 -263q101 87 160 263zM262 712q41 0 71 -32.5t30 -78.5q0 -39 -27 -87q-14 -25 -42.5 -41.5t-65.5 -16.5q-59 0 -88.5 44t-29.5 86q0 77 94 114v1q0 11 58 11zM225 647
q-17 0 -33.5 -17t-16.5 -42q0 -55 51 -55q31 0 49 19t18 44q0 15 -6 21t-9.5 9t-11.5 6.5t-12 5.5q-18 6 -29 9z" />
    <glyph glyph-name="ae" unicode="&#xe6;" horiz-adv-x="524" 
d="M504 132q0 -152 -154 -152q-58 0 -88 27.5t-49 82.5q-62 -105 -101 -105q-31 0 -56 38q-7 10 -15 31.5t-19.5 39.5t-11.5 48.5t12 54.5q82 162 173 222q12 9 28 9t40 -18q14 -14 17 -24q5 -22 5 -27q6 31 22 31q11 0 15 -13q21 19 51 37t54 18t49.5 -28t25.5 -57.5
t-42 -80.5q-76 -96 -120 -96q-32 0 -50 53q-1 -2 -9.5 -16.5t-12 -21.5t-8.5 -19q-11 -23 -11 -41q0 -41 41 -41q68 0 115.5 28.5t94.5 86.5q4 -44 4 -67zM246 363q-126 -115 -160 -263q101 87 160 263zM388.5 292q31.5 39 31.5 53.5t-10.5 14.5t-36 -26t-40.5 -45
q-2 -12 -2 -18q0 -18 10 -18q16 0 47.5 39z" />
    <glyph glyph-name="ccedilla" unicode="&#xe7;" horiz-adv-x="277" 
d="M187 -161q-5 15 -71 33q-24 6 -43.5 25t-19.5 51t19 52q-27 26 -42 72t-15 84q0 78 36.5 158t95.5 128q13 12 33 12t47 -23q14 -13 14 -54t-24 -128q-6 -22 -16 -22q-19 0 -29 107q-1 17 -2 21q-96 -107 -104 -255v-5q-1 -11 5 -19.5t16 -8.5t22 4t22.5 9.5t25.5 16
t25 18t25.5 20.5t22.5 19.5t21 19t16 14.5q2 -9 2 -26q0 -64 -41 -124t-104 -60h-4q-5 -10 -5 -20q0 -13 21.5 -20t47.5 -12t47.5 -26.5t21.5 -58.5q0 -63 -41.5 -91.5t-106.5 -28.5q-21 0 -31.5 2t-19.5 15.5t-9 43.5t21 30q4 0 6.5 -4t4.5 -4q75 6 100 21q10 6 10 12v2z
" />
    <glyph glyph-name="egrave" unicode="&#xe8;" horiz-adv-x="337" 
d="M317 132q0 -152 -154 -152q-64 0 -93.5 33t-51.5 101q-8 26 -8 55.5t26.5 79t58.5 86.5q4 55 25 55q11 0 15 -13q21 19 51 37t54 18t49.5 -28t25.5 -57.5t-41 -80.5q-77 -96 -121 -96q-32 0 -50 53q-1 -2 -9.5 -16.5t-12 -21.5l-9.5 -19q-10 -23 -10 -41q0 -41 41 -41
q68 0 115.5 28.5t94.5 86.5q4 -44 4 -67zM201.5 292q31.5 39 31.5 53.5t-10.5 14.5t-36 -26t-40.5 -45q-2 -12 -2 -18q0 -18 10 -18q16 0 47.5 39zM190 513q-8 12 -20 27.5t-37 39.5t-37 35.5t-12 18.5q0 10 21 22t34 12t17 -1t8.5 -4.5t7.5 -6.5t8 -11t9.5 -15t13 -21
t12.5 -20.5t23 -34.5q38 -58 38 -71t-12 -13t-22 2.5t-16.5 5t-13.5 10.5l-11 10q-3 3 -11 15z" />
    <glyph glyph-name="eacute" unicode="&#xe9;" horiz-adv-x="337" 
d="M317 132q0 -152 -154 -152q-64 0 -93.5 33t-51.5 101q-8 26 -8 55.5t26.5 79t58.5 86.5q4 55 25 55q11 0 15 -13q21 19 51 37t54 18t49.5 -28t25.5 -57.5t-41 -80.5q-77 -96 -121 -96q-32 0 -50 53q-1 -2 -9.5 -16.5t-12 -21.5l-9.5 -19q-10 -23 -10 -41q0 -41 41 -41
q68 0 115.5 28.5t94.5 86.5q4 -44 4 -67zM201.5 292q31.5 39 31.5 53.5t-10.5 14.5t-36 -26t-40.5 -45q-2 -12 -2 -18q0 -18 10 -18q16 0 47.5 39zM225 487q0 55 82 135q14 13 19.5 19.5t5.5 15.5t6 9q24 0 37.5 -28t13.5 -42q0 -28 -22 -46q-10 -13 -59 -46.5t-61.5 -33.5
t-17 6t-4.5 11z" />
    <glyph glyph-name="ecircumflex" unicode="&#xea;" horiz-adv-x="337" 
d="M317 132q0 -152 -154 -152q-64 0 -93.5 33t-51.5 101q-8 26 -8 55.5t26.5 79t58.5 86.5q4 55 25 55q11 0 15 -13q21 19 51 37t54 18t49.5 -28t25.5 -57.5t-41 -80.5q-77 -96 -121 -96q-32 0 -50 53q-1 -2 -9.5 -16.5t-12 -21.5l-9.5 -19q-10 -23 -10 -41q0 -41 41 -41
q68 0 115.5 28.5t94.5 86.5q4 -44 4 -67zM201.5 292q31.5 39 31.5 53.5t-10.5 14.5t-36 -26t-40.5 -45q-2 -12 -2 -18q0 -18 10 -18q16 0 47.5 39zM386 482q0 -12 -14.5 -12t-29.5 6t-30.5 23.5t-21 24t-22.5 35t-18 29.5q-21 -32 -62.5 -71.5t-64.5 -39.5q-18 0 -18 23
t45 72q22 24 38.5 49t26.5 36t30 11t40 -19.5t34.5 -50.5t16 -33.5t12.5 -17t18 -23.5q20 -28 20 -42z" />
    <glyph glyph-name="edieresis" unicode="&#xeb;" horiz-adv-x="337" 
d="M317 132q0 -152 -154 -152q-64 0 -93.5 33t-51.5 101q-8 26 -8 55.5t26.5 79t58.5 86.5q4 55 25 55q11 0 15 -13q21 19 51 37t54 18t49.5 -28t25.5 -57.5t-41 -80.5q-77 -96 -121 -96q-32 0 -50 53q-1 -2 -9.5 -16.5t-12 -21.5l-9.5 -19q-10 -23 -10 -41q0 -41 41 -41
q68 0 115.5 28.5t94.5 86.5q4 -44 4 -67zM201.5 292q31.5 39 31.5 53.5t-10.5 14.5t-36 -26t-40.5 -45q-2 -12 -2 -18q0 -18 10 -18q16 0 47.5 39zM375 582q3 -11 3 -28t-16 -35.5t-40.5 -18.5t-39.5 15.5t-15 38.5t14 44.5t48 21.5t46 -38zM166 623q18 0 34.5 -17.5
t16.5 -43t-13.5 -44t-35 -18.5t-35.5 19.5t-14 47.5q0 56 47 56z" />
    <glyph glyph-name="igrave" unicode="&#xec;" horiz-adv-x="240" 
d="M215 244q9 17 14.5 17t8 -25t2.5 -66.5t-19.5 -89t-56.5 -76.5q-21 -16 -38.5 -16t-29 7.5t-20.5 24.5q-15 24 -29.5 62t-14.5 82t7 89t7 60.5t-16 40t-16 29.5t3.5 10.5t9 11t11 9.5t12.5 10q23 19 43 19t34.5 -15t10.5 -37q-2 -48 -16 -138q-17 -109 -17 -123t9 -14
q20 0 101 128zM38 524q-8 12 -20 27.5t-37 39.5t-37 35.5t-12 18.5q0 10 21 22t34 12t17 -1t8.5 -4.5t7.5 -6.5t8 -11t9.5 -15t13 -21t12.5 -20.5t23 -34.5q38 -58 38 -71t-12 -13t-22 2.5t-16.5 5t-13.5 9.5l-11 11q-3 3 -11 15z" />
    <glyph glyph-name="iacute" unicode="&#xed;" horiz-adv-x="240" 
d="M215 244q9 17 14.5 17t8 -25t2.5 -66.5t-19.5 -89t-56.5 -76.5q-21 -16 -38.5 -16t-29 7.5t-20.5 24.5q-15 24 -29.5 62t-14.5 82t7 89t7 60.5t-16 40t-16 29.5t3.5 10.5t9 11t11 9.5t12.5 10q23 19 43 19t34.5 -15t10.5 -37q-2 -48 -16 -138q-17 -109 -17 -123t9 -14
q20 0 101 128zM73 498q0 55 82 134q14 14 19.5 20.5t5.5 15.5t6 9q24 0 37.5 -28t13.5 -42q0 -28 -22 -46q-10 -13 -59 -46.5t-61.5 -33.5t-17 6t-4.5 11z" />
    <glyph glyph-name="icircumflex" unicode="&#xee;" horiz-adv-x="240" 
d="M215 244q9 17 14.5 17t8 -25t2.5 -66.5t-19.5 -89t-56.5 -76.5q-21 -16 -38.5 -16t-29 7.5t-20.5 24.5q-15 24 -29.5 62t-14.5 82t7 89t7 60.5t-16 40t-16 29.5t3.5 10.5t9 11t11 9.5t12.5 10q23 19 43 19t34.5 -15t10.5 -37q-2 -48 -16 -138q-17 -109 -17 -123t9 -14
q20 0 101 128zM234 493q0 -12 -14.5 -12t-29.5 6t-30.5 23.5t-21 24t-22.5 35t-18 29.5q-21 -32 -62.5 -71.5t-64.5 -39.5q-18 0 -18 23t45 71q22 25 38.5 50t26.5 36t30 11t40 -19.5t34.5 -50.5t16 -33.5t12.5 -17t18 -24.5q20 -27 20 -41z" />
    <glyph glyph-name="idieresis" unicode="&#xef;" horiz-adv-x="240" 
d="M215 244q9 17 14.5 17t8 -25t2.5 -66.5t-19.5 -89t-56.5 -76.5q-21 -16 -38.5 -16t-29 7.5t-20.5 24.5q-15 24 -29.5 62t-14.5 82t7 89t7 60.5t-16 40t-16 29.5t3.5 10.5t9 11t11 9.5t12.5 10q23 19 43 19t34.5 -15t10.5 -37q-2 -48 -16 -138q-17 -109 -17 -123t9 -14
q20 0 101 128zM223 593q3 -10 3 -27.5t-16 -36t-40.5 -18.5t-39.5 15.5t-15 38.5t14 44.5t48 21.5t46 -38zM14 634q18 0 34.5 -17.5t16.5 -43t-13.5 -44t-35 -18.5t-35.5 19.5t-14 47.5q0 56 47 56z" />
    <glyph glyph-name="eth" unicode="&#xf0;" horiz-adv-x="275" 
d="M138 451q25 -2 40 -15q0 36 -18 82l-18 -9t-16 -9.5t-16.5 -10.5t-13.5 -6q-13 -4 -19 14q-8 38 8 49q4 2 10.5 5.5t16.5 8.5t17 9q-26 28 -50.5 28t-46.5 -23.5t-26 -23.5q-12 -1 -20 22q-16 42 -16 103q0 5 10.5 14t32.5 17.5t47 8.5q77 -20 127 -115q18 9 39 23
q3 20 14 22q8 2 18.5 -13.5t11.5 -31.5q4 -32 -38 -49q-1 0 -20 -9q45 -129 45 -306q0 -121 -70 -215q-25 -32 -55.5 -32t-48.5 15q-65 54 -65 185q0 81 31 163.5t89 98.5zM174 301q0 92 -23 92q-11 0 -20 -17q-40 -95 -40 -227q0 -33 1 -50q82 63 82 202z" />
    <glyph glyph-name="ntilde" unicode="&#xf1;" horiz-adv-x="351" 
d="M351 222q0 -49 -5 -85t-36 -96.5t-61 -60.5q-13 0 -25 14q-59 71 -59 135q0 19 13 87q18 102 18 113.5t-3.5 11.5t-7.5 -8q-26 -46 -42 -104.5t-21 -98.5t-11 -112q0 -25 -13 -25q-6 0 -20 11q-54 46 -54 126q0 34 6.5 94t7.5 83q11 139 27 139q9 0 13 -19.5t4 -44
t1.5 -44.5t7.5 -20t17 32t32.5 64.5t46.5 32.5t44 -11q43 -22 43 -92q0 -24 -6 -59t-10.5 -76.5t-4.5 -47t4 -5.5q8 0 40.5 40t44.5 40q9 0 9 -14zM179.5 608.5q35.5 -28.5 47.5 -28.5t21.5 12t16.5 24.5t19 12.5t22 -18.5t10 -34.5q0 -33 -22.5 -54t-50.5 -21t-66.5 29.5
t-51 29.5t-21 -15t-17.5 -30t-21 -15t-19 13.5t-7 28.5q0 37 27 66t52 29t60.5 -28.5z" />
    <glyph glyph-name="ograve" unicode="&#xf2;" horiz-adv-x="275" 
d="M257 236q0 -121 -70 -215q-25 -32 -55.5 -32t-48.5 15q-65 54 -65 185q0 91 49 232q4 10 7 12.5t10.5 2.5t18.5 10.5t36.5 10.5t51.5 -19t38 -51q28 -75 28 -151zM174 301q0 92 -23 92q-11 0 -20 -17q-40 -95 -40 -227q0 -33 1 -50q82 63 82 202zM108 538q-8 12 -20 27.5
t-37 39.5t-37 35.5t-12 18.5q0 10 21 22t34 12t17 -1t8.5 -4.5t7.5 -6.5t8 -11t9.5 -15t13 -21t12.5 -20.5t23 -34.5q38 -58 38 -71t-12 -13t-22 2.5t-16.5 5t-13.5 9.5l-11 11q-3 3 -11 15z" />
    <glyph glyph-name="oacute" unicode="&#xf3;" horiz-adv-x="275" 
d="M257 236q0 -121 -70 -215q-25 -32 -55.5 -32t-48.5 15q-65 54 -65 185q0 91 49 232q4 10 7 12.5t10.5 2.5t18.5 10.5t36.5 10.5t51.5 -19t38 -51q28 -75 28 -151zM174 301q0 92 -23 92q-11 0 -20 -17q-40 -95 -40 -227q0 -33 1 -50q82 63 82 202zM143 512q0 55 82 134
q14 14 19.5 20.5t5.5 15.5t6 9q24 0 37.5 -28t13.5 -42q0 -28 -22 -46q-10 -13 -59 -46.5t-61.5 -33.5t-17 6t-4.5 11z" />
    <glyph glyph-name="ocircumflex" unicode="&#xf4;" horiz-adv-x="275" 
d="M257 236q0 -121 -70 -215q-25 -32 -55.5 -32t-48.5 15q-65 54 -65 185q0 91 49 232q4 10 7 12.5t10.5 2.5t18.5 10.5t36.5 10.5t51.5 -19t38 -51q28 -75 28 -151zM174 301q0 92 -23 92q-11 0 -20 -17q-40 -95 -40 -227q0 -33 1 -50q82 63 82 202zM304 507
q0 -12 -14.5 -12t-29.5 6t-30.5 23.5t-21 24t-22.5 35t-18 29.5q-21 -32 -62.5 -71.5t-64.5 -39.5q-18 0 -18 23t45 71q22 25 38.5 50t26.5 36t30 11t40 -19.5t34.5 -50.5t16 -33.5t12.5 -17t18 -24.5q20 -27 20 -41z" />
    <glyph glyph-name="otilde" unicode="&#xf5;" horiz-adv-x="275" 
d="M257 236q0 -121 -70 -215q-25 -32 -55.5 -32t-48.5 15q-65 54 -65 185q0 91 49 232q4 10 7 12.5t10.5 2.5t18.5 10.5t36.5 10.5t51.5 -19t38 -51q28 -75 28 -151zM174 301q0 92 -23 92q-11 0 -20 -17q-40 -95 -40 -227q0 -33 1 -50q82 63 82 202zM159.5 618.5
q35.5 -28.5 47.5 -28.5t21.5 12t16.5 24.5t19 12.5t22 -18.5t10 -34.5q0 -33 -22.5 -54t-50.5 -21t-66.5 29.5t-51 29.5t-21 -15t-17.5 -30t-21 -15t-19 13.5t-7 28.5q0 37 27 66t52 29t60.5 -28.5z" />
    <glyph glyph-name="odieresis" unicode="&#xf6;" horiz-adv-x="275" 
d="M257 236q0 -121 -70 -215q-25 -32 -55.5 -32t-48.5 15q-65 54 -65 185q0 91 49 232q4 10 7 12.5t10.5 2.5t18.5 10.5t36.5 10.5t51.5 -19t38 -51q28 -75 28 -151zM174 301q0 92 -23 92q-11 0 -20 -17q-40 -95 -40 -227q0 -33 1 -50q82 63 82 202zM293 607q3 -10 3 -27.5
t-16 -36t-40.5 -18.5t-39.5 15.5t-15 38.5t14 44.5t48 21.5t46 -38zM84 648q18 0 34.5 -17.5t16.5 -43t-13.5 -44t-35 -18.5t-35.5 19.5t-14 47.5q0 56 47 56z" />
    <glyph glyph-name="divide" unicode="&#xf7;" 
d="M56 351l291 -9q13 0 21.5 -19t8.5 -27q0 -26 -37 -26l-159 6l-116 -2q-34 0 -34 48q0 29 25 29zM239.5 132.5q-13.5 -15.5 -34.5 -15.5t-35.5 18.5t-14.5 45t12.5 43t32 16.5t36.5 -17.5t17 -46t-13.5 -44zM210 377q-21 0 -35 19t-14 45.5t12.5 42.5t31.5 16t36 -18
t17 -46.5t-13.5 -43.5t-34.5 -15z" />
    <glyph glyph-name="oslash" unicode="&#xf8;" horiz-adv-x="261" 
d="M173 21q-25 -32 -63.5 -32t-67.5 45q-38 -90 -33 -130q3 -22 -9 -20q-13 1 -31 29.5t-18 44t15 46.5t48 96q-10 43 -10 89q0 91 49 232q4 10 7 12.5t10.5 2.5t18.5 10.5t29 10.5q45 0 74 -34q26 47 51 90q12 25 22 -21q8 -39 3 -50q-22 -33 -47 -73q22 -68 22 -133
q0 -121 -70 -215zM75 215l85 152q-6 31 -23 31q-43 0 -62 -183zM74 79q90 61 92 199q-57 -97 -94 -174q0 -19 2 -25z" />
    <glyph glyph-name="ugrave" unicode="&#xf9;" horiz-adv-x="338" 
d="M42 455l48 9q23 0 43 -17q2 -2 12.5 -10t16.5 -13q16 -15 16 -25.5t-18 -60.5t-38 -106q-26 -69 -26 -76t5 -7q8 0 60 95t79 149q10 19 28 19q42 0 42 -35q0 -20 -26 -113q-33 -123 -33 -133.5t5.5 -10.5t22.5 52.5t24 52.5q4 0 10 -9q25 -52 25 -96t-31 -101
q-14 -27 -39 -27q-16 0 -23 8q-20 23 -24 31q-19 24 -31 86q-7 -13 -18 -37q-23 -53 -42 -77q-12 -17 -30.5 -17t-40.5 26q-33 45 -33.5 101t11 105t35.5 119l3 12q0 8 -7 8l-23 -6q-17 0 -24 20q-16 36 -16 78q0 12 10 12zM159 538q-8 12 -20 27.5t-37 39.5t-37 35.5
t-12 18.5q0 10 21 22t34 12t17 -1t8.5 -4.5t7.5 -6.5t8 -11t9.5 -15t13 -21t12.5 -20.5t22 -34.5q39 -58 39 -71t-12 -13t-22 2.5t-16.5 5t-14.5 9.5l-10 11q-3 3 -11 15z" />
    <glyph glyph-name="uacute" unicode="&#xfa;" horiz-adv-x="338" 
d="M42 455l48 9q23 0 43 -17q2 -2 12.5 -10t16.5 -13q16 -15 16 -25.5t-18 -60.5t-38 -106q-26 -69 -26 -76t5 -7q8 0 60 95t79 149q10 19 28 19q42 0 42 -35q0 -20 -26 -113q-33 -123 -33 -133.5t5.5 -10.5t22.5 52.5t24 52.5q4 0 10 -9q25 -52 25 -96t-31 -101
q-14 -27 -39 -27q-16 0 -23 8q-20 23 -24 31q-19 24 -31 86q-7 -13 -18 -37q-23 -53 -42 -77q-12 -17 -30.5 -17t-40.5 26q-33 45 -33.5 101t11 105t35.5 119l3 12q0 8 -7 8l-23 -6q-17 0 -24 20q-16 36 -16 78q0 12 10 12zM194 512q0 55 82 134q14 14 19.5 20.5t5.5 15.5
t6 9q24 0 37.5 -28t13.5 -42q0 -28 -22 -46q-10 -13 -59 -46.5t-61.5 -33.5t-17 6t-4.5 11z" />
    <glyph glyph-name="ucircumflex" unicode="&#xfb;" horiz-adv-x="338" 
d="M42 455l48 9q23 0 43 -17q2 -2 12.5 -10t16.5 -13q16 -15 16 -25.5t-18 -60.5t-38 -106q-26 -69 -26 -76t5 -7q8 0 60 95t79 149q10 19 28 19q42 0 42 -35q0 -20 -26 -113q-33 -123 -33 -133.5t5.5 -10.5t22.5 52.5t24 52.5q4 0 10 -9q25 -52 25 -96t-31 -101
q-14 -27 -39 -27q-16 0 -23 8q-20 23 -24 31q-19 24 -31 86q-7 -13 -18 -37q-23 -53 -42 -77q-12 -17 -30.5 -17t-40.5 26q-33 45 -33.5 101t11 105t35.5 119l3 12q0 8 -7 8l-23 -6q-17 0 -24 20q-16 36 -16 78q0 12 10 12zM355 507q0 -12 -14.5 -12t-29.5 6t-30.5 23.5
t-21 24t-22.5 35t-18 29.5q-21 -32 -62.5 -71.5t-64.5 -39.5q-18 0 -18 23t44 71q23 25 39.5 50t26.5 36t30 11t40 -19.5t34.5 -50.5t16 -33.5t12.5 -17t18 -24.5q20 -27 20 -41z" />
    <glyph glyph-name="udieresis" unicode="&#xfc;" horiz-adv-x="338" 
d="M42 455l48 9q23 0 43 -17q2 -2 12.5 -10t16.5 -13q16 -15 16 -25.5t-18 -60.5t-38 -106q-26 -69 -26 -76t5 -7q8 0 60 95t79 149q10 19 28 19q42 0 42 -35q0 -20 -26 -113q-33 -123 -33 -133.5t5.5 -10.5t22.5 52.5t24 52.5q4 0 10 -9q25 -52 25 -96t-31 -101
q-14 -27 -39 -27q-16 0 -23 8q-20 23 -24 31q-19 24 -31 86q-7 -13 -18 -37q-23 -53 -42 -77q-12 -17 -30.5 -17t-40.5 26q-33 45 -33.5 101t11 105t35.5 119l3 12q0 8 -7 8l-23 -6q-17 0 -24 20q-16 36 -16 78q0 12 10 12zM344 607q3 -10 3 -27.5t-16 -36t-40.5 -18.5
t-39.5 15.5t-15 38.5t14 44.5t48 21.5t46 -38zM135 648q18 0 34.5 -17.5t16.5 -43t-14 -44t-35 -18.5t-35 19.5t-14 47.5q0 56 47 56z" />
    <glyph glyph-name="yacute" unicode="&#xfd;" horiz-adv-x="379" 
d="M-2 407q0 15 20 13h15t38 9.5t46 9.5t32.5 -13.5t28.5 -34.5t13 -43.5t-43.5 -119t-43.5 -103.5t8 -7q16 0 67 58q11 13 24.5 34.5t20.5 32.5t19.5 38t16.5 35q19 40 33 76q8 17 24 17t30 -19t14 -38q0 -33 -52 -278t-57.5 -272t-10.5 -122q0 -31 -21 -31q-7 0 -13 3
q-73 30 -73 128v67q0 21 13 21q12 0 25.5 -17t14.5 -19l54 267q-45 -54 -71 -72.5t-62.5 -18.5t-58.5 34t-22 77q0 89 63 210q-28 -7 -45.5 -7t-25.5 18q-4 8 -12.5 34.5t-8.5 32.5zM211 492q0 55 82 134q14 14 19.5 20.5t5.5 15.5t6 9q24 0 37.5 -28t13.5 -42
q0 -28 -22 -46q-10 -13 -59 -46.5t-61.5 -33.5t-17 6t-4.5 11z" />
    <glyph glyph-name="thorn" unicode="&#xfe;" horiz-adv-x="331" 
d="M79 -154l3 -23q0 -12 -10 -23t-22 -11q-32 0 -32 157.5t19 349.5q-4 5 -10 11q-12 12 -12 18t13 17t16 26q5 44 16 119q-23 0 -23 20q0 8 2.5 15.5l18.5 55.5q34 97 34 127l-5 30q0 12 13 12q5 0 13 -2q60 -12 60 -69q0 -27 -25 -135t-32 -142q32 22 60 22
q57 0 98.5 -55.5t41.5 -113.5q0 -21 -5 -48q-31 -134 -96 -184q-22 -18 -40 -18t-30 14.5t-17 37.5q-9 41 -9 95t12 54q2 0 10.5 -26t26.5 -26t27 18q16 28 31 70.5t15 66t-22 23.5q-11 0 -28 -7t-40.5 -31t-35.5 -51q-26 -64 -33.5 -125.5t-7.5 -149t5 -119.5z" />
    <glyph glyph-name="ydieresis" unicode="&#xff;" horiz-adv-x="379" 
d="M-2 407q0 15 20 13h15t38 9.5t46 9.5t32.5 -13.5t28.5 -34.5t13 -43.5t-43.5 -119t-43.5 -103.5t8 -7q16 0 67 58q11 13 24.5 34.5t20.5 32.5t19.5 38t16.5 35q19 40 33 76q8 17 24 17t30 -19t14 -38q0 -33 -52 -278t-57.5 -272t-10.5 -122q0 -31 -21 -31q-7 0 -13 3
q-73 30 -73 128v67q0 21 13 21q12 0 25.5 -17t14.5 -19l54 267q-45 -54 -71 -72.5t-62.5 -18.5t-58.5 34t-22 77q0 89 63 210q-28 -7 -45.5 -7t-25.5 18q-4 8 -12.5 34.5t-8.5 32.5zM361 587q3 -11 3 -28t-16 -35.5t-40.5 -18.5t-39.5 15.5t-15 38.5t14 44.5t48 21.5t46 -38
zM152 628q18 0 34.5 -17.5t16.5 -43t-13.5 -44t-35 -18.5t-35.5 19.5t-14 47.5q0 56 47 56z" />
    <glyph glyph-name="Amacron" unicode="&#x100;" horiz-adv-x="601" 
d="M324 299q49 221 49 332v26q0 17 8.5 25.5t18 10t38 1.5t60 -21t31.5 -57q0 -7 -9 -87t-12 -205q34 14 54.5 29.5t27.5 15.5q11 0 11 -20.5t-31 -52t-62 -51.5q0 -22 2 -70q3 2 8.5 2t11 -3t10 -7t10.5 -11.5t9 -11.5t8 -11.5t6 -8.5q18 -27 18 -42.5t-6 -35.5
q-23 -59 -31 -103q-4 -21 -24 -21q-22 0 -30.5 11.5t-13 18.5t-8 20t-5.5 20.5t-4 23.5q-3 21 -4 42l-1 16q-4 48 -10 146q-26 -9 -80 -11q-16 -72 -32.5 -132.5t-54 -96.5t-91.5 -36q-16 0 -38 5q-129 35 -176 163q-12 33 -12 58q0 60 50 82q108 49 211 49zM450 309
q-4 88 -8 268q-8 -46 -24.5 -138t-24.5 -138q38 4 57 8zM301 208h-64q-122 0 -195 -17q-41 -8 -41 -30q0 -17 27 -44t70 -41.5t72 -14.5t48.5 10t31 21t22.5 36q14 31 29 80zM343 858l105 -5q43 0 68.5 7t31.5 7q10 0 16.5 -19t6.5 -32t-8.5 -22.5t-27.5 -12.5
q-24 -4 -58 -4l-132 -5q-12 0 -23 50v8q0 16 5 22t16 6z" />
    <glyph glyph-name="amacron" unicode="&#x101;" horiz-adv-x="418" 
d="M237 132q-82 -147 -125 -147q-31 0 -56 38q-7 10 -15 31.5t-19.5 39.5t-11.5 48.5t12 54.5q82 162 173 222q12 9 28 9t40 -18q14 -14 17 -24q5 -22 5 -27q35 -12 35 -44q0 -22 -12 -99.5t-14 -115.5q0 -21 14 -21q16 0 57.5 56t47.5 56q10 0 10 -33l-2 -49
q0 -28 -25 -76.5t-64 -48.5q-24 0 -38 16q-5 5 -15 20q-31 45 -42 112zM246 363q-126 -115 -160 -263q101 87 160 263zM127 592l105 -5q43 0 68.5 7t31.5 7q10 0 16.5 -19t6.5 -32t-8.5 -22.5t-26.5 -12.5q-25 -4 -59 -4l-132 -5q-12 0 -23 50v8q0 16 5 22t16 6z" />
    <glyph glyph-name="Abreve" unicode="&#x102;" horiz-adv-x="601" 
d="M324 299q49 221 49 332v26q0 17 8.5 25.5t18 10t38 1.5t60 -21t31.5 -57q0 -7 -9 -87t-12 -205q34 14 54.5 29.5t27.5 15.5q11 0 11 -20.5t-31 -52t-62 -51.5q0 -22 2 -70q3 2 8.5 2t11 -3t10 -7t10.5 -11.5t9 -11.5t8 -11.5t6 -8.5q18 -27 18 -42.5t-6 -35.5
q-23 -59 -31 -103q-4 -21 -24 -21q-22 0 -30.5 11.5t-13 18.5t-8 20t-5.5 20.5t-4 23.5q-3 21 -4 42l-1 16q-4 48 -10 146q-26 -9 -80 -11q-16 -72 -32.5 -132.5t-54 -96.5t-91.5 -36q-16 0 -38 5q-129 35 -176 163q-12 33 -12 58q0 60 50 82q108 49 211 49zM450 309
q-4 88 -8 268q-8 -46 -24.5 -138t-24.5 -138q38 4 57 8zM301 208h-64q-122 0 -195 -17q-41 -8 -41 -30q0 -17 27 -44t70 -41.5t72 -14.5t48.5 10t31 21t22.5 36q14 31 29 80zM299 910q27 0 57 -45q11 -16 29.5 -30t43 -14t44 14.5t28.5 31.5q24 46 50 46q9 0 22.5 -14.5
t13.5 -21.5q0 -32 -36 -83.5t-96.5 -51.5t-114.5 57t-54 93q0 18 13 18z" />
    <glyph glyph-name="abreve" unicode="&#x103;" horiz-adv-x="418" 
d="M237 132q-82 -147 -125 -147q-31 0 -56 38q-7 10 -15 31.5t-19.5 39.5t-11.5 48.5t12 54.5q82 162 173 222q12 9 28 9t40 -18q14 -14 17 -24q5 -22 5 -27q35 -12 35 -44q0 -22 -12 -99.5t-14 -115.5q0 -21 14 -21q16 0 57.5 56t47.5 56q10 0 10 -33l-2 -49
q0 -28 -25 -76.5t-64 -48.5q-24 0 -38 16q-5 5 -15 20q-31 45 -42 112zM246 363q-126 -115 -160 -263q101 87 160 263zM83 644q19 0 37.5 -22t40.5 -44.5t49 -22.5t46.5 14.5t28.5 31.5q24 46 50 46q9 0 22.5 -14.5t13.5 -21.5q0 -32 -36 -83.5t-96.5 -51.5t-114.5 57
t-54 93q0 18 13 18z" />
    <glyph glyph-name="Aogonek" unicode="&#x104;" horiz-adv-x="601" 
d="M324 299q49 221 49 332v26q0 17 8.5 25.5t18 10t38 1.5t60 -21t31.5 -57q0 -7 -9 -87t-12 -205q34 14 54.5 29.5t27.5 15.5q11 0 11 -20.5t-31 -52t-62 -51.5q0 -22 2 -70q3 2 8.5 2t11 -3t10 -7t10.5 -11.5t9 -11.5t8 -11.5t6 -8.5q18 -27 18 -42.5t-6 -35.5
q-8 -13 -42 -56q-53 -66 -53 -110q0 -20 14 -28q32 0 77.5 21.5t57.5 21.5q8 0 15 -20t7 -32q-9 -38 -46 -61.5t-96 -23.5q-27 0 -62.5 34.5t-35.5 69t19.5 80t39.5 69.5q-12 3 -16 57t-10 152q-26 -9 -80 -11q-16 -72 -32.5 -132.5t-54 -96.5t-91.5 -36q-16 0 -38 5
q-129 35 -176 163q-12 33 -12 58q0 60 50 82q108 49 211 49l90 -2h3zM301 208h-64q-118 0 -195 -18q-41 -8 -41 -29q0 -17 27 -44t70 -41.5t72 -14.5t48.5 10t31 21t22.5 36q14 31 29 80zM450 309q-4 88 -8 268q-8 -46 -24.5 -138t-24.5 -138q38 4 57 8z" />
    <glyph glyph-name="aogonek" unicode="&#x105;" horiz-adv-x="418" 
d="M423 158l-2 -49q0 -24 -20 -52t-44.5 -49.5t-44.5 -51t-20 -53t14 -31.5q32 0 77.5 21.5t57.5 21.5q8 0 15 -20t7 -32q-9 -38 -46 -61.5t-96 -23.5q-27 0 -62.5 34.5t-35.5 68t18 71t41 63.5q-1 1 -3 5q-31 45 -42 112q-82 -147 -125 -147q-31 0 -56 38q-7 10 -15 31.5
t-19.5 39.5t-11.5 48.5t12 54.5q82 162 173 222q12 9 28 9t40 -18q14 -14 17 -24q5 -22 5 -27q35 -12 35 -44l-1 -15q-2 -27 -12.5 -94t-12.5 -103v-3q0 -21 14 -21q16 0 57.5 56t47.5 56q10 0 10 -33zM246 363q-126 -115 -160 -263q101 87 160 263z" />
    <glyph glyph-name="Cacute" unicode="&#x106;" horiz-adv-x="384" 
d="M359 224q0 -130 -100 -235q-21 -22 -58 -22q-60 0 -99 30q-72 55 -72 220q0 109 44 230t112 221q10 12 15 12t11.5 -3t14 -7t10.5 -5v30q-6 12 -6 21t8 9t17 -3q88 -30 88 -144q0 -65 -33 -133q-9 -18 -16 -18q-5 0 -15 16q-32 66 -41 171q-15 0 -22 -11t-24 -58
q-63 -170 -63 -349q0 -99 22 -169q65 61 112.5 151.5t70.5 185.5q24 -79 24 -140zM243 780q0 55 82 134q14 14 19.5 20.5t5.5 15.5t6 9q24 0 37.5 -28t13.5 -42q0 -28 -22 -46q-10 -13 -59 -46.5t-61.5 -33.5t-17 6t-4.5 11z" />
    <glyph glyph-name="cacute" unicode="&#x107;" horiz-adv-x="277" 
d="M269 162q0 -64 -41 -124t-104 -60q-50 0 -79.5 60.5t-29.5 128t36.5 147.5t95.5 128q13 12 33 12t47 -23q14 -13 14 -54t-24 -128q-6 -22 -16 -22q-19 0 -29 107q-1 17 -2 21q-49 -54 -76.5 -122.5t-27.5 -132.5q0 -33 22 -33q38 0 120 68q15 13 22 19.5t21 19t16 14.5
q2 -9 2 -26zM168 509q0 55 82 135q14 13 19.5 19.5t5.5 15.5t6 9q24 0 37.5 -28t13.5 -42q0 -28 -22 -46q-10 -13 -59 -46.5t-61.5 -33.5t-17 6t-4.5 11z" />
    <glyph glyph-name="Ccircumflex" unicode="&#x108;" horiz-adv-x="384" 
d="M359 224q0 -130 -100 -235q-21 -22 -58 -22q-60 0 -99 30q-72 55 -72 220q0 109 44 230t112 221q10 12 15 12t11.5 -3t14 -7t10.5 -5v30q-6 12 -6 21t8 9t17 -3q88 -30 88 -144q0 -65 -33 -133q-9 -18 -16 -18q-5 0 -15 16q-32 66 -41 171q-15 0 -22 -11t-24 -58
q-63 -170 -63 -349q0 -99 22 -169q65 61 112.5 151.5t70.5 185.5q24 -79 24 -140zM404 775q0 -12 -14.5 -12t-29.5 6t-30.5 23.5t-21 24t-22.5 35t-18 29.5q-21 -32 -62.5 -71.5t-64.5 -39.5q-18 0 -18 23t45 71q22 25 38.5 50t26.5 36t30 11t40 -19.5t34.5 -50.5t16 -33.5
t12.5 -17t18 -24.5q20 -27 20 -41z" />
    <glyph glyph-name="ccircumflex" unicode="&#x109;" horiz-adv-x="277" 
d="M269 162q0 -64 -41 -124t-104 -60q-50 0 -79.5 60.5t-29.5 128t36.5 147.5t95.5 128q13 12 33 12t47 -23q14 -13 14 -54t-24 -128q-6 -22 -16 -22q-19 0 -29 107q-1 17 -2 21q-49 -54 -76.5 -122.5t-27.5 -132.5q0 -33 22 -33q38 0 120 68q15 13 22 19.5t21 19t16 14.5
q2 -9 2 -26zM329 504q0 -12 -14.5 -12t-29.5 6t-30.5 23.5t-21 24t-22.5 35t-18 29.5q-21 -32 -62.5 -71.5t-64.5 -39.5q-18 0 -18 23t44 72q23 24 39.5 49t26.5 36t30 11t40 -19.5t34.5 -50.5t16 -33.5t12.5 -17t18 -23.5q20 -28 20 -42z" />
    <glyph glyph-name="Cdotaccent" unicode="&#x10a;" horiz-adv-x="384" 
d="M359 224q0 -130 -100 -235q-21 -22 -58 -22q-60 0 -99 30q-72 55 -72 220q0 109 44 230t112 221q10 12 15 12t11.5 -3t14 -7t10.5 -5v30q-6 12 -6 21t8 9t17 -3q88 -30 88 -144q0 -65 -33 -133q-9 -18 -16 -18q-5 0 -15 16q-32 66 -41 171q-15 0 -22 -11t-24 -58
q-63 -170 -63 -349q0 -99 22 -169q65 61 112.5 151.5t70.5 185.5q24 -79 24 -140zM213.5 900q15.5 19 43.5 19t46.5 -21.5t18.5 -50.5t-15.5 -46.5t-44.5 -17.5t-46.5 22t-17.5 49t15.5 46z" />
    <glyph glyph-name="cdotaccent" unicode="&#x10b;" horiz-adv-x="277" 
d="M269 162q0 -64 -41 -124t-104 -60q-50 0 -79.5 60.5t-29.5 128t36.5 147.5t95.5 128q13 12 33 12t47 -23q14 -13 14 -54t-24 -128q-6 -22 -16 -22q-19 0 -29 107q-1 17 -2 21q-49 -54 -76.5 -122.5t-27.5 -132.5q0 -33 22 -33q38 0 120 68q15 13 22 19.5t21 19t16 14.5
q2 -9 2 -26zM138.5 629q15.5 19 43.5 19t46.5 -21.5t18.5 -50.5t-15.5 -46.5t-44.5 -17.5t-46.5 22t-17.5 49t15.5 46z" />
    <glyph glyph-name="Ccaron" unicode="&#x10c;" horiz-adv-x="384" 
d="M359 224q0 -130 -100 -235q-21 -22 -58 -22q-60 0 -99 30q-72 55 -72 220q0 109 44 230t112 221q10 12 15 12t11.5 -3t14 -7t10.5 -5v30q-6 12 -6 21t8 9t17 -3q88 -30 88 -144q0 -65 -33 -133q-9 -18 -16 -18q-5 0 -15 16q-32 66 -41 171q-15 0 -22 -11t-24 -58
q-63 -170 -63 -349q0 -99 22 -169q65 61 112.5 151.5t70.5 185.5q24 -79 24 -140zM269 763q-30 0 -52 24q0 6 -1.5 9.5t-26 41t-47 73.5t-22.5 43t11.5 7t21 -3.5t19 -12t16.5 -15t17 -21t15 -21.5q20 -29 28 -45q36 53 67.5 82t43.5 29t26.5 -14.5t14.5 -22.5t-7.5 -18.5
t-25.5 -29.5t-27 -29.5t-23 -32.5t-24.5 -33t-23.5 -11z" />
    <glyph glyph-name="ccaron" unicode="&#x10d;" horiz-adv-x="277" 
d="M269 162q0 -64 -41 -124t-104 -60q-50 0 -79.5 60.5t-29.5 128t36.5 147.5t95.5 128q13 12 33 12t47 -23q14 -13 14 -54t-24 -128q-6 -22 -16 -22q-19 0 -29 107q-1 17 -2 21q-49 -54 -76.5 -122.5t-27.5 -132.5q0 -33 22 -33q38 0 120 68q15 13 22 19.5t21 19t16 14.5
q2 -9 2 -26zM194 492q-30 0 -52 24q0 6 -1.5 9.5t-26 41t-47 73.5t-22.5 43t11.5 7t21 -3.5t19 -12t16.5 -15t17 -21t14 -20.5q21 -30 29 -46q36 53 67.5 82t43.5 29t26.5 -14.5t14.5 -22.5t-7.5 -18.5t-25.5 -29.5t-27 -29.5t-23 -32.5t-24.5 -33t-23.5 -11z" />
    <glyph glyph-name="Dcaron" unicode="&#x10e;" horiz-adv-x="490" 
d="M14 566l-4 39q0 13 11 20q57 38 161 63q43 9 71 9q142 0 205 -174q22 -62 22 -131q0 -104 -55 -210t-113 -171q-32 -34 -68 -34t-56 28t-20 71.5t16 97.5t50 68q-5 -23 -5 -48.5t17.5 -62.5t41.5 -37t39 28q62 112 62 255q0 170 -89 220q-26 14 -50 14t-52 -14
q8 -43 8 -108.5t-22.5 -209t-22.5 -218.5v-32q0 -26 -12 -34t-25 -8q-37 0 -52 137q-6 55 -10 74q3 1 9 1q18 0 42 -26v26q-1 79 21 288q1 8 1 29.5t-4 44.5q-7 -4 -28 -21q-49 -40 -69.5 -40t-20.5 35zM261 735q-30 0 -52 24q0 6 -1.5 9.5t-26 41t-47 73.5t-22.5 43t11.5 7
t21 -3.5t19 -12t16.5 -15t17 -21t15 -21.5q20 -29 28 -45q36 53 67.5 82t43.5 29t26.5 -14.5t14.5 -22.5t-7.5 -18.5t-25.5 -29.5t-27 -29.5t-23 -32.5t-24.5 -33t-23.5 -11z" />
    <glyph glyph-name="dcaron" unicode="&#x10f;" horiz-adv-x="414" 
d="M382 142l3 -52q0 -55 -29 -55q-23 0 -40 24t-26 43.5t-18 37t-16 41.5q-1 -3 -6 -21l-8 -27q-12 -44 -18.5 -58.5t-14 -32t-15.5 -28t-17 -20.5q-18 -21 -43.5 -21t-49.5 29q-41 48 -60 120q-9 30 -9 69t24 86.5t72 104.5t89 57q22 0 50 -21q6 54 20 153t17 129.5
t21.5 30.5t27 -19.5t8.5 -38.5t-3 -35q-28 -286 -28 -465q0 -27 15 -27t32.5 23.5t23 23.5t5.5 -8zM224 333q0 12 -11.5 12t-27.5 -10q-52 -29 -85.5 -90t-33.5 -122q0 -37 23 -37q9 0 20 11q56 59 111 218q4 10 4 18zM442 536q-22 -52 -42.5 -52t-25.5 34q0 14 8 57.5
t8 56.5t-7.5 31t-7.5 25q0 12 16 12q29 0 51 -26.5t22 -45.5q0 -40 -22 -92z" />
    <glyph glyph-name="Dcroat" unicode="&#x110;" horiz-adv-x="490" 
d="M14 566l-4 39q0 13 11 20q57 38 161 63q43 9 71 9q142 0 205 -174q22 -62 22 -131q0 -104 -55 -210t-113 -171q-32 -34 -68 -34t-56 28t-20 71.5t16 97.5t50 68q-5 -23 -5 -48.5t17.5 -62.5t41.5 -37t39 28q62 112 62 255q0 170 -89 220q-26 14 -50 14t-52 -14
q8 -43 8 -94t-7 -114l69 3q26 0 26 -25q0 -47 -33 -47l-72 1q-28 -172 -28 -260v-32q0 -26 -12 -34t-25 -8q-37 0 -52 137q-6 55 -10 74q3 1 9 1q18 0 42 -26v26q-1 51 4 121q-50 -5 -69 -5t-24.5 7.5t-5.5 20t2 20.5t9 16.5t16 8.5l78 -1q12 102 12 126.5t-4 47.5
q-7 -4 -28 -21q-49 -40 -69.5 -40t-20.5 35z" />
    <glyph glyph-name="dcroat" unicode="&#x111;" horiz-adv-x="384" 
d="M261 515l-84 -2q-25 0 -25 48q0 29 18 29q10 0 100 -5h2l15 111q3 35 21.5 35t27 -19.5t8.5 -38.5t-2 -31q-3 -18 -7 -60q21 -1 48 -1q13 0 21.5 -19t8.5 -27q0 -26 -37 -26q-15 0 -47 2q-15 -160 -15 -248.5t1 -97.5q0 -19 13 -19q15 0 32.5 23.5t23 23.5t5.5 -8l-7 -43
l3 -52q0 -55 -29 -55q-23 0 -40 24t-26 43.5t-18 37t-16 41.5q-1 -3 -6 -21l-8 -27q-12 -44 -18.5 -58.5t-14 -32t-15.5 -28t-17 -20.5q-18 -21 -43.5 -21t-49.5 29q-41 48 -60 120q-9 30 -9 69t24 86.5t72 104.5t89 57q22 0 50 -21q2 22 12 97h-1zM224 333q0 12 -11.5 12
t-27.5 -10q-52 -29 -85.5 -90t-33.5 -122q0 -37 23 -37q9 0 20 11q56 59 111 218q4 10 4 18z" />
    <glyph glyph-name="Emacron" unicode="&#x112;" horiz-adv-x="452" 
d="M145 443q0 -34 139 -34h17q27 15 34 15q17 0 42.5 -27.5t25.5 -63.5q0 -12 -13 -12q-4 0 -37 6q-10 -3 -37.5 -11t-37.5 -11t-33 -11t-33.5 -13.5t-29 -15.5t-30.5 -21q-38 -37 -52 -58q-26 -36 -26 -74.5t18 -58t59.5 -19.5t99 20.5t57.5 59.5q0 13 -6 25.5t-19.5 12.5
t-82 -40.5t-72.5 -40.5t-4 8.5t7 20.5q29 49 76 78t98 29t86.5 -30t35.5 -68.5t-20 -64.5q-61 -80 -232 -80q-106 0 -157 82q-28 43 -28 83t25 97.5t66.5 86.5t106.5 52q-97 31 -97 123q0 55 46 94q39 34 102.5 70.5t79.5 47t34 10.5t41 -27q12 2 17 2q23 0 33 -20
q8 -19 8 -25q0 -36 -153 -97q-6 -2 -8 -2q-6 0 -6 8.5t10 38.5l-33 -16q-58 -30 -71 -44q-24 -29 -35 -54t-11 -31zM257 874l105 -5q43 0 68.5 7t31.5 7q10 0 16.5 -19t6.5 -32t-8.5 -22.5t-27.5 -12.5q-24 -4 -58 -4l-132 -5q-12 0 -23 50v8q0 16 5 22t16 6z" />
    <glyph glyph-name="emacron" unicode="&#x113;" horiz-adv-x="337" 
d="M317 132q0 -152 -154 -152q-64 0 -93.5 33t-51.5 101q-8 26 -8 55.5t26.5 79t58.5 86.5q4 55 25 55q11 0 15 -13q21 19 51 37t54 18t49.5 -28t25.5 -57.5t-41 -80.5q-77 -96 -121 -96q-32 0 -50 53q-1 -2 -9.5 -16.5t-12 -21.5l-9.5 -19q-10 -23 -10 -41q0 -41 41 -41
q68 0 115.5 28.5t94.5 86.5q4 -44 4 -67zM201.5 292q31.5 39 31.5 53.5t-10.5 14.5t-36 -26t-40.5 -45q-2 -12 -2 -18q0 -18 10 -18q16 0 47.5 39zM141 596l105 -5q43 0 68.5 7t31.5 7q10 0 16.5 -19t6.5 -32t-8.5 -22.5t-26.5 -12.5q-25 -4 -59 -4l-132 -5q-12 0 -23 50v8
q0 16 5 22t16 6z" />
    <glyph glyph-name="Ebreve" unicode="&#x114;" horiz-adv-x="452" 
d="M145 443q0 -34 139 -34h17q27 15 34 15q17 0 42.5 -27.5t25.5 -63.5q0 -12 -13 -12q-4 0 -37 6q-10 -3 -37.5 -11t-37.5 -11t-33 -11t-33.5 -13.5t-29 -15.5t-30.5 -21q-38 -37 -52 -58q-26 -36 -26 -74.5t18 -58t59.5 -19.5t99 20.5t57.5 59.5q0 13 -6 25.5t-19.5 12.5
t-82 -40.5t-72.5 -40.5t-4 8.5t7 20.5q29 49 76 78t98 29t86.5 -30t35.5 -68.5t-20 -64.5q-61 -80 -232 -80q-106 0 -157 82q-28 43 -28 83t25 97.5t66.5 86.5t106.5 52q-97 31 -97 123q0 55 46 94q39 34 102.5 70.5t79.5 47t34 10.5t41 -27q12 2 17 2q23 0 33 -20
q8 -19 8 -25q0 -36 -153 -97q-6 -2 -8 -2q-6 0 -6 8.5t10 38.5l-33 -16q-58 -30 -71 -44q-24 -29 -35 -54t-11 -31zM213 926q27 0 57 -45q11 -16 29.5 -30t43 -14t44 14.5t28.5 31.5q24 46 50 46q9 0 22.5 -14.5t13.5 -21.5q0 -32 -36 -83.5t-96.5 -51.5t-114.5 57t-54 93
q0 18 13 18z" />
    <glyph glyph-name="ebreve" unicode="&#x115;" horiz-adv-x="337" 
d="M317 132q0 -152 -154 -152q-64 0 -93.5 33t-51.5 101q-8 26 -8 55.5t26.5 79t58.5 86.5q4 55 25 55q11 0 15 -13q21 19 51 37t54 18t49.5 -28t25.5 -57.5t-41 -80.5q-77 -96 -121 -96q-32 0 -50 53q-1 -2 -9.5 -16.5t-12 -21.5l-9.5 -19q-10 -23 -10 -41q0 -41 41 -41
q68 0 115.5 28.5t94.5 86.5q4 -44 4 -67zM201.5 292q31.5 39 31.5 53.5t-10.5 14.5t-36 -26t-40.5 -45q-2 -12 -2 -18q0 -18 10 -18q16 0 47.5 39zM97 648q19 0 37.5 -22t40.5 -44.5t49 -22.5t46.5 14.5t28.5 31.5q24 46 50 46q9 0 22.5 -14.5t13.5 -21.5q0 -32 -36 -83.5
t-96.5 -51.5t-114.5 57t-54 93q0 18 13 18z" />
    <glyph glyph-name="Edotaccent" unicode="&#x116;" horiz-adv-x="452" 
d="M145 443q0 -34 139 -34h17q27 15 34 15q17 0 42.5 -27.5t25.5 -63.5q0 -12 -13 -12q-4 0 -37 6q-10 -3 -37.5 -11t-37.5 -11t-33 -11t-33.5 -13.5t-29 -15.5t-30.5 -21q-38 -37 -52 -58q-26 -36 -26 -74.5t18 -58t59.5 -19.5t99 20.5t57.5 59.5q0 13 -6 25.5t-19.5 12.5
t-82 -40.5t-72.5 -40.5t-4 8.5t7 20.5q29 49 76 78t98 29t86.5 -30t35.5 -68.5t-20 -64.5q-61 -80 -232 -80q-106 0 -157 82q-28 43 -28 83t25 97.5t66.5 86.5t106.5 52q-97 31 -97 123q0 55 46 94q39 34 102.5 70.5t79.5 47t34 10.5t41 -27q12 2 17 2q23 0 33 -20
q8 -19 8 -25q0 -36 -153 -97q-6 -2 -8 -2q-6 0 -6 8.5t10 38.5l-33 -16q-58 -30 -71 -44q-24 -29 -35 -54t-11 -31zM311.5 885q15.5 19 43.5 19t46.5 -21.5t18.5 -50.5t-15.5 -46.5t-44.5 -17.5t-46.5 22t-17.5 49t15.5 46z" />
    <glyph glyph-name="edotaccent" unicode="&#x117;" horiz-adv-x="337" 
d="M317 132q0 -152 -154 -152q-64 0 -93.5 33t-51.5 101q-8 26 -8 55.5t26.5 79t58.5 86.5q4 55 25 55q11 0 15 -13q21 19 51 37t54 18t49.5 -28t25.5 -57.5t-41 -80.5q-77 -96 -121 -96q-32 0 -50 53q-1 -2 -9.5 -16.5t-12 -21.5l-9.5 -19q-10 -23 -10 -41q0 -41 41 -41
q68 0 115.5 28.5t94.5 86.5q4 -44 4 -67zM201.5 292q31.5 39 31.5 53.5t-10.5 14.5t-36 -26t-40.5 -45q-2 -12 -2 -18q0 -18 10 -18q16 0 47.5 39zM195.5 607q15.5 19 43.5 19t46.5 -21.5t18.5 -50.5t-15.5 -46.5t-44.5 -17.5t-46.5 22t-17.5 49t15.5 46z" />
    <glyph glyph-name="Eogonek" unicode="&#x118;" horiz-adv-x="452" 
d="M145 443q0 -34 139 -34h17q27 15 34 15q17 0 42.5 -27.5t25.5 -63.5q0 -12 -13 -12q-4 0 -37 6q-10 -3 -37.5 -11t-37.5 -11t-33 -11t-33.5 -13.5t-29 -15.5t-30.5 -21q-38 -37 -52 -58q-26 -36 -26 -74.5t18 -58t59.5 -19.5t99 20.5t57.5 59.5q0 13 -6 25.5t-19.5 12.5
t-82 -40.5t-72.5 -40.5t-4 6.5t7 22.5q29 49 76.5 78t98 29t86 -30t35.5 -69.5t-16 -60t-50.5 -40.5t-49 -32t-27.5 -42t-13 -51.5t14 -29.5q32 0 77.5 21.5t57.5 21.5q8 0 15 -20t7 -32q-9 -38 -46 -61.5t-96 -23.5q-27 0 -62.5 34.5t-35.5 78.5t52 104q-28 -11 -79 -11
q-106 0 -157 82q-28 43 -28 83t25 97.5t66.5 86.5t106.5 52q-97 31 -97 123q0 55 46 94q39 34 102.5 70.5t79.5 47t34 10.5t41 -27q12 2 17 2q23 0 33 -20q8 -19 8 -25q0 -36 -153 -97q-6 -2 -8 -2q-6 0 -6 8.5t10 38.5l-33 -16q-58 -30 -71 -44q-24 -29 -35 -53t-11 -32z
" />
    <glyph glyph-name="eogonek" unicode="&#x119;" horiz-adv-x="337" 
d="M185 -242q-27 0 -62.5 34.5t-35.5 74.5q0 26 14 59.5t35 58.5q-47 2 -73.5 36t-39.5 76.5t-13 72t26.5 79t58.5 86.5q4 55 25 55q11 0 15 -13q21 19 51 37t54 18t49.5 -28t25.5 -57.5t-41 -80.5q-77 -96 -121 -96q-32 0 -50 53q-1 -2 -9.5 -16.5t-12 -21.5l-9.5 -19
q-10 -23 -10 -41q0 -41 41 -41q68 0 115.5 28.5t94.5 86.5q4 -44 4 -67t-4.5 -41t-9.5 -29.5t-18.5 -24t-21.5 -18.5q-16 -12 -60 -40q-19 -14 -33 -45t-14 -52.5t14 -29.5q32 0 77.5 21.5t57.5 21.5q8 0 15 -20t7 -32q-9 -38 -46 -61.5t-96 -23.5zM201.5 292
q31.5 39 31.5 53.5t-10.5 14.5t-36 -26t-40.5 -45q-2 -12 -2 -18q0 -18 10 -18q16 0 47.5 39z" />
    <glyph glyph-name="Ecaron" unicode="&#x11a;" horiz-adv-x="452" 
d="M145 443q0 -34 139 -34h17q27 15 34 15q17 0 42.5 -27.5t25.5 -63.5q0 -12 -13 -12q-4 0 -37 6q-10 -3 -37.5 -11t-37.5 -11t-33 -11t-33.5 -13.5t-29 -15.5t-30.5 -21q-38 -37 -52 -58q-26 -36 -26 -74.5t18 -58t59.5 -19.5t99 20.5t57.5 59.5q0 13 -6 25.5t-19.5 12.5
t-82 -40.5t-72.5 -40.5t-4 8.5t7 20.5q29 49 76 78t98 29t86.5 -30t35.5 -68.5t-20 -64.5q-61 -80 -232 -80q-106 0 -157 82q-28 43 -28 83t25 97.5t66.5 86.5t106.5 52q-97 31 -97 123q0 55 46 94q39 34 102.5 70.5t79.5 47t34 10.5t41 -27q12 2 17 2q23 0 33 -20
q8 -19 8 -25q0 -36 -153 -97q-6 -2 -8 -2q-6 0 -6 8.5t10 38.5l-33 -16q-58 -30 -71 -44q-24 -29 -35 -54t-11 -31zM367 748q-30 0 -52 24q0 6 -1.5 9.5t-26 41t-47 73.5t-22.5 43t11.5 7t21 -3.5t19 -12t16.5 -15t17 -21t15 -21.5q20 -29 28 -45q36 53 67.5 82t43.5 29
t26.5 -14.5t14.5 -22.5t-7.5 -18.5t-25.5 -29.5t-27 -29.5t-23 -32.5t-24.5 -33t-23.5 -11z" />
    <glyph glyph-name="ecaron" unicode="&#x11b;" horiz-adv-x="337" 
d="M317 132q0 -152 -154 -152q-64 0 -93.5 33t-51.5 101q-8 26 -8 55.5t26.5 79t58.5 86.5q4 55 25 55q11 0 15 -13q21 19 51 37t54 18t49.5 -28t25.5 -57.5t-41 -80.5q-77 -96 -121 -96q-32 0 -50 53q-1 -2 -9.5 -16.5t-12 -21.5l-9.5 -19q-10 -23 -10 -41q0 -41 41 -41
q68 0 115.5 28.5t94.5 86.5q4 -44 4 -67zM201.5 292q31.5 39 31.5 53.5t-10.5 14.5t-36 -26t-40.5 -45q-2 -12 -2 -18q0 -18 10 -18q16 0 47.5 39zM251 470q-30 0 -52 24q0 6 -1.5 9.5t-26 41t-47 73.5t-22.5 43t11.5 7t21 -3.5t19 -12t16.5 -15t17 -21t15 -20.5
q20 -30 28 -46q36 53 67.5 82t43.5 29t26.5 -14.5t14.5 -22.5t-7.5 -18.5t-25.5 -29.5t-27 -29.5t-23 -32.5t-24.5 -33t-23.5 -11z" />
    <glyph glyph-name="Gcircumflex" unicode="&#x11c;" horiz-adv-x="443" 
d="M248 276l-17 -1q-29 0 -47 15.5t-18 25.5t13 16.5t85.5 39.5t101 47t42 14t30.5 -14.5t17 -28t-5 -22t-15.5 -16t-18 -12t-22 -11t-17.5 -8.5q-22 -10 -22 -22l3 -9q26 -49 26 -97q0 -72 -51 -149q-46 -66 -121 -66q-50 0 -92 19.5t-59 60.5q-31 78 -31 166q0 64 9 103
t13.5 60t17.5 55.5t18 49.5t22.5 54.5t21.5 48.5q28 63 47 101q10 23 38.5 23t60.5 -10.5t47 -26.5q28 -30 28 -58.5t-36 -85.5q-11 -16 -11 -48q-2 -14 -15 -14q-8 0 -14 5t-7.5 10.5t-4 15.5t-3.5 13q-10 28 -10 92q0 13 -8 13t-42 -86q-79 -196 -79 -339q0 -77 12 -125
q5 -21 26 -21t45 31q67 87 67 164q0 27 -25 27zM408 769q0 -12 -14.5 -12t-29.5 6t-30.5 23.5t-21 24t-22.5 35t-18 29.5q-21 -32 -62.5 -71.5t-64.5 -39.5q-18 0 -18 23t45 71q22 25 38.5 50t26.5 36t30 11t40 -19.5t34.5 -50.5t16 -33.5t12.5 -17t18 -24.5q20 -27 20 -41z
" />
    <glyph glyph-name="gcircumflex" unicode="&#x11d;" horiz-adv-x="347" 
d="M134 -154l2 11q0 8 6 10.5t10 5t10 7.5q14 10 23.5 10t16 -3t8.5 -3q11 0 11 41q5 97 19 229q-29 -46 -76 -97.5t-75 -51.5t-46 25q-33 47 -33 108q0 90 95 196q33 36 49.5 51.5t51.5 48t63 32.5t43 -20t15 -45.5t-12 -69.5q8 -5 8 -14.5t-2 -19.5q-45 -282 -50.5 -370
t-5.5 -139l1 -53q0 -13 -7 -21.5t-18 -8.5t-36.5 19.5t-48.5 19.5l-23 -2q-12 0 -12 11zM253 321q5 12 5 23t-8 11q-3 0 -7 -2q-59 -29 -104 -77t-67 -107q-4 -12 -4 -21q0 -20 15 -20q8 0 18 6q46 31 87 82t65 105zM412 516q0 -12 -14.5 -12t-29.5 6t-30.5 23.5t-21 24
t-22.5 35t-18 29.5q-21 -32 -62.5 -71.5t-64.5 -39.5q-18 0 -18 23t45 72q22 24 38.5 49t26.5 36t30 11t40 -19.5t34.5 -50.5t16 -33.5t12.5 -17t18 -23.5q20 -28 20 -42z" />
    <glyph glyph-name="Gbreve" unicode="&#x11e;" horiz-adv-x="443" 
d="M248 276l-17 -1q-29 0 -47 15.5t-18 25.5t13 16.5t85.5 39.5t101 47t42 14t30.5 -14.5t17 -28t-5 -22t-15.5 -16t-18 -12t-22 -11t-17.5 -8.5q-22 -10 -22 -22l3 -9q26 -49 26 -97q0 -72 -51 -149q-46 -66 -121 -66q-50 0 -92 19.5t-59 60.5q-31 78 -31 166q0 64 9 103
t13.5 60t17.5 55.5t18 49.5t22.5 54.5t21.5 48.5q28 63 47 101q10 23 38.5 23t60.5 -10.5t47 -26.5q28 -30 28 -58.5t-36 -85.5q-11 -16 -11 -48q-2 -14 -15 -14q-8 0 -14 5t-7.5 10.5t-4 15.5t-3.5 13q-10 28 -10 92q0 13 -8 13t-42 -86q-79 -196 -79 -339q0 -77 12 -125
q5 -21 26 -21t45 31q67 87 67 164q0 27 -25 27zM119 935q27 0 57 -45q11 -16 29.5 -30t43 -14t44 14.5t28.5 31.5q24 46 50 46q9 0 22.5 -14.5t13.5 -21.5q0 -32 -36 -83.5t-96.5 -51.5t-114.5 57t-54 93q0 18 13 18z" />
    <glyph glyph-name="gbreve" unicode="&#x11f;" horiz-adv-x="347" 
d="M134 -154l2 11q0 8 6 10.5t10 5t10 7.5q14 10 23.5 10t16 -3t8.5 -3q11 0 11 41q5 97 19 229q-29 -46 -76 -97.5t-75 -51.5t-46 25q-33 47 -33 108q0 90 95 196q33 36 49.5 51.5t51.5 48t63 32.5t43 -20t15 -45.5t-12 -69.5q8 -5 8 -14.5t-2 -19.5q-45 -282 -50.5 -370
t-5.5 -139l1 -53q0 -13 -7 -21.5t-18 -8.5t-36.5 19.5t-48.5 19.5l-23 -2q-12 0 -12 11zM253 321q5 12 5 23t-8 11q-3 0 -7 -2q-59 -29 -104 -77t-67 -107q-4 -12 -4 -21q0 -20 15 -20q8 0 18 6q46 31 87 82t65 105zM123 682q19 0 37.5 -22t40.5 -44.5t49 -22.5t46.5 14.5
t28.5 31.5q24 46 50 46q9 0 22.5 -14.5t13.5 -21.5q0 -32 -36 -83.5t-96.5 -51.5t-114.5 57t-54 93q0 18 13 18z" />
    <glyph glyph-name="Gdotaccent" unicode="&#x120;" horiz-adv-x="443" 
d="M248 276l-17 -1q-29 0 -47 15.5t-18 25.5t13 16.5t85.5 39.5t101 47t42 14t30.5 -14.5t17 -28t-5 -22t-15.5 -16t-18 -12t-22 -11t-17.5 -8.5q-22 -10 -22 -22l3 -9q26 -49 26 -97q0 -72 -51 -149q-46 -66 -121 -66q-50 0 -92 19.5t-59 60.5q-31 78 -31 166q0 64 9 103
t13.5 60t17.5 55.5t18 49.5t22.5 54.5t21.5 48.5q28 63 47 101q10 23 38.5 23t60.5 -10.5t47 -26.5q28 -30 28 -58.5t-36 -85.5q-11 -16 -11 -48q-2 -14 -15 -14q-8 0 -14 5t-7.5 10.5t-4 15.5t-3.5 13q-10 28 -10 92q0 13 -8 13t-42 -86q-79 -196 -79 -339q0 -77 12 -125
q5 -21 26 -21t45 31q67 87 67 164q0 27 -25 27zM217.5 894q15.5 19 43.5 19t46.5 -21.5t18.5 -50.5t-15.5 -46.5t-44.5 -17.5t-46.5 22t-17.5 49t15.5 46z" />
    <glyph glyph-name="gdotaccent" unicode="&#x121;" horiz-adv-x="347" 
d="M134 -154l2 11q0 8 6 10.5t10 5t10 7.5q14 10 23.5 10t16 -3t8.5 -3q11 0 11 41q5 97 19 229q-29 -46 -76 -97.5t-75 -51.5t-46 25q-33 47 -33 108q0 90 95 196q33 36 49.5 51.5t51.5 48t63 32.5t43 -20t15 -45.5t-12 -69.5q8 -5 8 -14.5t-2 -19.5q-45 -282 -50.5 -370
t-5.5 -139l1 -53q0 -13 -7 -21.5t-18 -8.5t-36.5 19.5t-48.5 19.5l-23 -2q-12 0 -12 11zM253 321q5 12 5 23t-8 11q-3 0 -7 -2q-59 -29 -104 -77t-67 -107q-4 -12 -4 -21q0 -20 15 -20q8 0 18 6q46 31 87 82t65 105zM221.5 641q15.5 19 43.5 19t46.5 -21.5t18.5 -50.5
t-15.5 -46.5t-44.5 -17.5t-46.5 22t-17.5 49t15.5 46z" />
    <glyph glyph-name="Gcommaaccent" unicode="&#x122;" horiz-adv-x="443" 
d="M248 276l-17 -1q-29 0 -47 15.5t-18 25.5t13 16.5t85.5 39.5t101 47t42 14t30.5 -14.5t17 -28t-5 -22t-15.5 -16t-18 -12t-22 -11t-17.5 -8.5q-22 -10 -22 -22l3 -9q26 -49 26 -97q0 -72 -51 -149q-46 -66 -121 -66q-50 0 -92 19.5t-59 60.5q-31 78 -31 166q0 64 9 103
t13.5 60t17.5 55.5t18 49.5t22.5 54.5t21.5 48.5q28 63 47 101q10 23 38.5 23t60.5 -10.5t47 -26.5q28 -30 28 -58.5t-36 -85.5q-11 -16 -11 -48q-2 -14 -15 -14q-8 0 -14 5t-7.5 10.5t-4 15.5t-3.5 13q-10 28 -10 92q0 13 -8 13t-42 -86q-79 -196 -79 -339q0 -77 12 -125
q5 -21 26 -21t45 31q67 87 67 164q0 27 -25 27zM131.5 -258.5q-5.5 6.5 -5.5 15.5t24.5 48t24.5 63q-12 14 -12 24.5t16.5 19t33.5 8.5t30.5 -14t13.5 -34q0 -34 -44 -85.5t-67 -51.5q-9 0 -14.5 6.5z" />
    <glyph glyph-name="gcommaaccent" unicode="&#x123;" horiz-adv-x="347" 
d="M134 -154l2 11q0 8 6 10.5t10 5t10 7.5q14 10 23.5 10t16 -3t8.5 -3q11 0 11 41q5 97 19 229q-29 -46 -76 -97.5t-75 -51.5t-46 25q-33 47 -33 108q0 90 95 196q33 36 49.5 51.5t51.5 48t63 32.5t43 -20t15 -45.5t-12 -69.5q8 -5 8 -14.5t-2 -19.5q-45 -282 -50.5 -370
t-5.5 -139l1 -53q0 -13 -7 -21.5t-18 -8.5t-36.5 19.5t-48.5 19.5l-23 -2q-12 0 -12 11zM253 321q5 12 5 23t-8 11q-3 0 -7 -2q-59 -29 -104 -77t-67 -107q-4 -12 -4 -21q0 -20 15 -20q8 0 18 6q46 31 87 82t65 105zM276 687q14 0 22.5 -9t8.5 -22t-8.5 -44t-8.5 -43t13 -25
t13 -21q0 -19 -28.5 -19t-51.5 20.5t-23 52.5t22.5 71t40.5 39z" />
    <glyph glyph-name="Hcircumflex" unicode="&#x124;" horiz-adv-x="472" 
d="M62 297l34 -9q18 0 77 17q11 51 35 145q38 145 38 161t-10 16q-12 0 -35.5 -6t-23.5 -16q0 -7 15.5 -24t15.5 -23.5t-1 -8.5q-78 -99 -139 -145q-10 -8 -20 -8q-22 0 -31 30q-2 7 -10 24q-17 38 -17 57.5t16 37.5q70 70 174 145q12 10 33 10t47 -8.5t46.5 -52.5
t20.5 -68.5t-8 -65t-38 -172.5l49 11q19 164 66 330q2 6 2 11.5t-5 14.5t-5 13.5t5.5 4.5t12.5 -5q41 -27 41 -52q0 -12 -3 -24q-27 -124 -42 -278q6 1 17 1t39.5 -10.5t28.5 -26.5q0 -6 -7 -12t-33 -28.5t-35 -25.5t-19 -6q-6 -66 -6 -90.5t8 -68t8 -57t-6 -31.5t-19 -18
q-8 0 -21 11q-45 42 -45 92.5t8 138.5q-31 -8 -68 -21q-26 -113 -26 -139l10 -68q0 -16 -10 -32t-22.5 -16t-20.5 9t-17.5 28t-9.5 20q-19 35 -19 64t11 106q-32 4 -45 20t-30.5 47.5t-17.5 41t7 9.5zM466 758q0 -12 -14.5 -12t-29.5 6t-30.5 23.5t-21 24t-22.5 35t-18 29.5
q-21 -32 -62.5 -71.5t-64.5 -39.5q-18 0 -18 23t45 71q22 25 38.5 50t26.5 36t30 11t40 -19.5t34.5 -50.5t16 -33.5t12.5 -17t18 -24.5q20 -27 20 -41z" />
    <glyph glyph-name="hcircumflex" unicode="&#x125;" horiz-adv-x="347" 
d="M340 140q0 -79 -29 -121q-22 -28 -38 -28t-32 16q-56 65 -56 156q0 30 7 62q12 55 12 71t-2 16q-6 0 -79 -275q-9 -28 -19 -28q-27 0 -64 93q-20 44 -20 106q0 70 8.5 118t10.5 59.5t7.5 37t7.5 33.5q12 50 16 71q-25 0 -25 15q0 7 6 15q55 87 78 154q4 17 16 17
q16 0 24 -31t8 -54q0 -58 -38 -93q-45 -279 -45 -293t4 -14t14.5 18.5t33.5 71t38 77.5q22 37 56 37q54 0 54 -101q0 -82 -38 -207q-1 -4 -1 -8q0 -11 10.5 -11t37 29t32 29t5.5 -38zM291 772q0 -12 -14.5 -12t-29.5 6t-30.5 23.5t-21 24t-22.5 35t-18 29.5
q-21 -32 -62.5 -71.5t-64.5 -39.5q-18 0 -18 23t44 72q23 24 39.5 49t26.5 36t30 11t40 -19.5t34.5 -50.5t16 -33.5t12.5 -17t18 -23.5q20 -28 20 -42z" />
    <glyph glyph-name="Hbar" unicode="&#x126;" horiz-adv-x="472" 
d="M306.5 639q20.5 -44 20.5 -69.5t-17 -110.5q14 0 38 2q16 100 48 213q2 6 2 11.5t-5 14.5t-5 13.5t5.5 4.5t12.5 -5q41 -27 41 -52q0 -12 -8.5 -48.5t-22.5 -136.5q24 12 37 14q16 0 24 -49q0 -44 -72 -50q-4 -32 -4 -47q6 1 17 1t39.5 -10.5t28.5 -26.5q0 -6 -7 -12
t-33 -28.5t-35 -25.5t-19 -6q-5 -82 -5 -91t8 -52.5t8 -57t-6 -31.5t-19 -18q-8 0 -21 11q-45 42 -45 98q0 41 7 118q-30 -8 -68 -21q-2 -8 -10 -38q-15 -55 -15 -86l10 -68q0 -16 -10 -32t-22.5 -16t-20.5 9t-17.5 28t-9.5 20q-19 35 -19 64t11 106q-5 1 -16 0
q-25 -2 -34 9.5t-26.5 43t-17.5 41t7 9.5l34 -9q17 0 77 17q2 8 20 89q-22 -2 -66 -4q-9 0 -17 19.5t-8 36.5t4 23t16 6l48 1l43 -1q6 25 17.5 72t14 56.5t2.5 24t-10 14.5h-3q-2 -1 -10 -2t-15 -2.5t-14 -4.5q-17 -5 -17 -12.5t10.5 -15.5t10.5 -14t-1 -8
q-78 -99 -139 -145q-10 -8 -20 -8q-22 0 -31 30q-2 6 -6 15.5t-6 15.5q-5 13 -5 32t16 37q70 70 174 145q12 10 33 10t47 -8.5t46.5 -52.5zM328 389q-23 0 -33 -2q-7 -36 -15 -69l49 11q4 40 7 60h-8z" />
    <glyph glyph-name="hbar" unicode="&#x127;" horiz-adv-x="347" 
d="M155 568l60 12q10 0 16.5 -19t6.5 -32t-8.5 -22.5t-27.5 -12.5q-24 -4 -58 -4h-15q-35 -211 -35 -229t4 -18q7 0 12 14q13 23 36 75.5t38 77.5q22 37 56 37q54 0 54 -102.5t-38 -205.5q-1 -3 -1 -8q0 -11 10.5 -11t37 29t32 29t5.5 -38q0 -79 -29 -121q-22 -28 -38 -28
t-32 16q-55 64 -55 156q0 38 9 80t9 55.5t-1.5 13.5t-4.5 -6q-8 -18 -75 -269q-9 -28 -19 -28q-27 0 -64 93q-20 44 -20 106q0 103 40 278q-14 -1 -48 -1q-12 0 -23 50v8q0 16 5 22t15.5 6t58.5 -3q27 44 61 143q4 17 16 17q16 0 24 -31t8 -64t-22 -65z" />
    <glyph glyph-name="Itilde" unicode="&#x128;" horiz-adv-x="293" 
d="M207 634q0 34 -14 34t-28.5 -21t-14.5 -29t5 -30t5 -45.5t-17 -98t-27.5 -99t-24.5 -24.5q-11 0 -19.5 9.5t-20 28.5t-21.5 32.5t-10 30.5t31 86.5t52 110.5q-14 17 -14 23q0 12 17 12q5 0 13 -4q2 3 9 16.5t10 18.5t10.5 15.5t13.5 15.5q19 12 36 12q75 0 74 -218v-9
q0 -231 -54 -529q-5 -22 -22 -22q-19 0 -44 24t-38 37q-35 35 -47 51q-15 17 -15 32t11.5 37.5t24.5 22.5t25.5 -21t20.5 -21t10.5 15.5t5.5 43.5q8 59 32.5 209t24.5 223v31zM197.5 889.5q35.5 -28.5 47.5 -28.5t21.5 12t16.5 24.5t19 12.5t22 -18.5t10 -34.5
q0 -33 -22.5 -54t-50.5 -21t-66.5 29.5t-51 29.5t-21 -15t-17.5 -30t-21 -15t-19 13.5t-7 28.5q0 37 27 66t52 29t60.5 -28.5z" />
    <glyph glyph-name="itilde" unicode="&#x129;" horiz-adv-x="240" 
d="M215 244q9 17 14.5 17t8 -25t2.5 -66.5t-19.5 -89t-56.5 -76.5q-21 -16 -38.5 -16t-29 7.5t-20.5 24.5q-15 24 -29.5 62t-14.5 82t7 89t7 60.5t-16 40t-16 29.5t3.5 10.5t9 11t11 9.5t12.5 10q23 19 43 19t34.5 -15t10.5 -37q-2 -48 -16 -138q-17 -109 -17 -123t9 -14
q20 0 101 128zM89.5 604.5q35.5 -28.5 47.5 -28.5t21.5 12t16.5 24.5t19 12.5t22 -18.5t10 -34.5q0 -33 -22.5 -54t-50.5 -21t-66.5 29.5t-51 29.5t-21 -15t-17.5 -30t-21 -15t-19 13.5t-7 28.5q0 37 27 66t52 29t60.5 -28.5z" />
    <glyph glyph-name="Imacron" unicode="&#x12a;" horiz-adv-x="293" 
d="M207 634q0 34 -14 34t-28.5 -21t-14.5 -29t5 -30t5 -45.5t-17 -98t-27.5 -99t-24.5 -24.5q-11 0 -19.5 9.5t-20 28.5t-21.5 32.5t-10 30.5t31 86.5t52 110.5q-14 17 -14 23q0 12 17 12q5 0 13 -4q2 3 9 16.5t10 18.5t10.5 15.5t13.5 15.5q19 12 36 12q75 0 74 -218v-9
q0 -231 -54 -529q-5 -22 -22 -22q-19 0 -44 24t-38 37q-35 35 -47 51q-15 17 -15 32t11.5 37.5t24.5 22.5t25.5 -21t20.5 -21t10.5 15.5t5.5 43.5q8 59 32.5 209t24.5 223v31zM97 892l105 -5q43 0 68.5 7t31.5 7q10 0 16.5 -19t6.5 -32t-8.5 -22.5t-27.5 -12.5
q-24 -4 -58 -4l-132 -5q-12 0 -23 50v8q0 16 5 22t16 6z" />
    <glyph glyph-name="imacron" unicode="&#x12b;" horiz-adv-x="240" 
d="M215 244q9 17 14.5 17t8 -25t2.5 -66.5t-19.5 -89t-56.5 -76.5q-21 -16 -38.5 -16t-29 7.5t-20.5 24.5q-15 24 -29.5 62t-14.5 82t7 89t7 60.5t-16 40t-16 29.5t3.5 10.5t9 11t11 9.5t12.5 10q23 19 43 19t34.5 -15t10.5 -37q-2 -48 -16 -138q-17 -109 -17 -123t9 -14
q20 0 101 128zM-11 607l105 -5q43 0 68.5 7t31.5 7q10 0 16.5 -19t6.5 -32t-8.5 -22.5t-26.5 -12.5q-25 -4 -59 -4l-132 -5q-12 0 -23 50v8q0 16 5 22t16 6z" />
    <glyph glyph-name="Ibreve" unicode="&#x12c;" horiz-adv-x="293" 
d="M207 634q0 34 -14 34t-28.5 -21t-14.5 -29t5 -30t5 -45.5t-17 -98t-27.5 -99t-24.5 -24.5q-11 0 -19.5 9.5t-20 28.5t-21.5 32.5t-10 30.5t31 86.5t52 110.5q-14 17 -14 23q0 12 17 12q5 0 13 -4q2 3 9 16.5t10 18.5t10.5 15.5t13.5 15.5q19 12 36 12q75 0 74 -218v-9
q0 -231 -54 -529q-5 -22 -22 -22q-19 0 -44 24t-38 37q-35 35 -47 51q-15 17 -15 32t11.5 37.5t24.5 22.5t25.5 -21t20.5 -21t10.5 15.5t5.5 43.5q8 59 32.5 209t24.5 223v31zM53 944q27 0 57 -45q11 -16 29.5 -30t43 -14t44 14.5t28.5 31.5q24 46 50 46q9 0 22.5 -14.5
t13.5 -21.5q0 -32 -36 -83.5t-96.5 -51.5t-114.5 57t-54 93q0 18 13 18z" />
    <glyph glyph-name="ibreve" unicode="&#x12d;" horiz-adv-x="240" 
d="M215 244q9 17 14.5 17t8 -25t2.5 -66.5t-19.5 -89t-56.5 -76.5q-21 -16 -38.5 -16t-29 7.5t-20.5 24.5q-15 24 -29.5 62t-14.5 82t7 89t7 60.5t-16 40t-16 29.5t3.5 10.5t9 11t11 9.5t12.5 10q23 19 43 19t34.5 -15t10.5 -37q-2 -48 -16 -138q-17 -109 -17 -123t9 -14
q20 0 101 128zM-55 659q27 0 57 -45q11 -16 29.5 -30t43 -14t44 14.5t28.5 31.5q24 46 50 46q9 0 22.5 -14.5t13.5 -21.5q0 -32 -36 -83.5t-96.5 -51.5t-114.5 57t-54 93q0 18 13 18z" />
    <glyph glyph-name="Iogonek" unicode="&#x12e;" horiz-adv-x="293" 
d="M207 634q0 34 -14 34t-28.5 -21t-14.5 -29t5 -30t5 -45.5t-17 -98t-27.5 -99t-24.5 -24.5q-11 0 -19.5 9.5t-20 28.5t-21.5 32.5t-10 30.5t31 86.5t52 110.5q-14 17 -14 23q0 12 17 12q5 0 13 -4q2 3 9 16.5t10 18.5t10.5 15.5t13.5 15.5q19 12 36 12q75 0 74 -218v-9
q0 -227 -54 -529q-6 -22 -25 -22t-33 -25t-14 -50t14 -33q32 0 77.5 21.5t57.5 21.5q8 0 15 -20t7 -32q-9 -38 -46 -61.5t-96 -23.5q-27 0 -62.5 34.5t-35.5 71.5t15 80.5t35 63.5q-8 8 -60 64q-15 17 -15 32t11.5 37.5t24.5 22.5t25.5 -21t20.5 -21t10.5 15.5t5.5 43.5
q8 59 32.5 209t24.5 223v31z" />
    <glyph glyph-name="iogonek" unicode="&#x12f;" horiz-adv-x="240" 
d="M121 -242q-27 0 -62.5 34.5t-35.5 73t17 85t39 62.5q-14 19 -30.5 63t-16.5 88t7 89t7 60.5t-16 40t-16 29.5t3.5 10.5t9 11t11 9.5t12.5 10q23 19 43 19t34.5 -15t10.5 -37q-2 -48 -16 -138q-17 -109 -17 -123t9 -14q20 0 101 128q9 17 14.5 17t8 -25t2.5 -67
t-28.5 -92.5t-78.5 -87.5q-18 -13 -29.5 -47t-11.5 -58t14 -32q32 0 77.5 21.5t57.5 21.5q8 0 15 -20t7 -32q-9 -38 -46 -61.5t-96 -23.5zM205 688q0 -33 -28 -91.5t-53 -84.5q-4 -6 -12 -6q-25 0 -25 40t35 112q7 15 9 31t2.5 18.5t1 4t1 4t1 4t1.5 3t2 2.5q3 2 16 2
t31 -11t18 -28z" />
    <glyph glyph-name="Idotaccent" unicode="&#x130;" horiz-adv-x="293" 
d="M207 634q0 34 -14 34t-28.5 -21t-14.5 -29t5 -30t5 -45.5t-17 -98t-27.5 -99t-24.5 -24.5q-11 0 -19.5 9.5t-20 28.5t-21.5 32.5t-10 30.5t31 86.5t52 110.5q-14 17 -14 23q0 12 17 12q5 0 13 -4q2 3 9 16.5t10 18.5t10.5 15.5t13.5 15.5q19 12 36 12q75 0 74 -218v-9
q0 -231 -54 -529q-5 -22 -22 -22q-19 0 -44 24t-38 37q-35 35 -47 51q-15 17 -15 32t11.5 37.5t24.5 22.5t25.5 -21t20.5 -21t10.5 15.5t5.5 43.5q8 59 32.5 209t24.5 223v31zM151.5 903q15.5 19 43.5 19t46.5 -21.5t18.5 -50.5t-15.5 -46.5t-44.5 -17.5t-46.5 22t-17.5 49
t15.5 46z" />
    <glyph glyph-name="dotlessi" unicode="&#x131;" horiz-adv-x="240" 
d="M215 244q9 17 14.5 17t8 -25t2.5 -66.5t-19.5 -89t-56.5 -76.5q-21 -16 -38.5 -16t-29 7.5t-20.5 24.5q-15 24 -29.5 62t-14.5 82t7 89t7 60.5t-16 40t-16 29.5t3.5 10.5t9 11t11 9.5t12.5 10q23 19 43 19t34.5 -15t10.5 -37q-2 -48 -16 -138q-17 -109 -17 -123t9 -14
q20 0 101 128z" />
    <glyph glyph-name="IJ" unicode="&#x132;" horiz-adv-x="719" 
d="M207 634q0 34 -14 34t-28.5 -21t-14.5 -29t5 -30t5 -45.5t-17 -98t-27.5 -99t-24.5 -24.5q-11 0 -19.5 9.5t-20 28.5t-21.5 32.5t-10 30.5t31 86.5t52 110.5q-14 17 -14 23q0 12 17 12q5 0 13 -4q2 3 9 16.5t10 18.5t10.5 15.5t13.5 15.5q19 12 36 12q75 0 74 -218v-9
q0 -231 -54 -529q-5 -22 -22 -22q-19 0 -44 24t-38 37q-35 35 -47 51q-15 17 -15 32t11.5 37.5t24.5 22.5t25.5 -21t20.5 -21t10.5 15.5t5.5 43.5q8 59 32.5 209t24.5 223v31zM687 700l117 1q25 0 45 -12.5t20 -32.5q0 -40 -79 -58q-39 -9 -75 -8t-71 1q-40 -59 -40 -122
q0 -34 16 -100q27 -116 27 -160.5t-4 -68t-9 -43t-14 -42.5q-20 -47 -64 -59t-88 -12q-82 0 -155 42q-30 17 -30 49q0 17 3 33q5 38 21 44q79 32 159 32t80 -13q0 -9 -27 -21.5t-36 -17.5q-23 -11 -40 -30q7 1 19 4q26 5 41 5q89 6 89 151q0 42 -14 124t-14 125.5t11 81.5
q-73 3 -149 9q-55 4 -58 41q-2 28 -2 41q0 21 18 21z" />
    <glyph glyph-name="ij" unicode="&#x133;" horiz-adv-x="424" 
d="M205 688q0 -33 -28 -91.5t-53 -84.5q-4 -6 -12 -6q-25 0 -25 40t35 112q7 15 9 31t2.5 18.5t1 4t1 4t1 4t1.5 3t2 2.5q3 2 16 2t31 -11t18 -28zM215 244q11 17 15.5 17t7 -25t2.5 -66.5t-19.5 -89t-56.5 -76.5q-21 -16 -38.5 -16t-29 7.5t-20.5 24.5q-15 24 -29.5 62
t-14.5 82t7 89t7 60.5t-16 40t-16 29.5t3.5 10.5t9 11t11 9.5t12.5 10q23 19 42 19t33.5 -13t14 -45t-15.5 -121q-19 -114 -19 -131t9 -17q20 0 101 128zM422.5 685.5q15.5 -18.5 15.5 -41.5t-15.5 -66t-33.5 -43q-14 0 -23 33.5t-9 55.5t8 64q3 16 22.5 16t35 -18.5z
M393 76q10 0 10 -11t-4 -26.5t-10 -34.5t-8 -26q-9 -37 -49 -52q-39 -186 -96 -308q-23 -51 -69 -51q-33 0 -59 29q-57 60 -100 195q-8 26 -8 43.5t12 30.5q86 94 268 170q43 179 60 412q2 21 14 21q18 0 30.5 -19.5t12.5 -37t-1 -25.5q-17 -187 -39 -321q33 11 36 11z
M243 -102q-44 -17 -105 -60t-61 -64q0 -14 26.5 -29t43.5 -15t31 22q36 54 65 146z" />
    <glyph glyph-name="Jcircumflex" unicode="&#x134;" horiz-adv-x="376" 
d="M344 710l117 1q25 0 45 -12.5t20 -32.5q0 -40 -78 -58q-40 -9 -76 -8t-71 1q-40 -59 -40 -122q0 -34 15 -100q28 -116 28 -160.5t-4 -68t-9 -43t-15 -42.5q-19 -47 -63 -59t-88 -12q-82 0 -155 42q-30 17 -30 49q0 17 3 33q5 38 21 44q79 32 159 32t80 -13
q0 -9 -27 -21.5t-36 -17.5q-23 -11 -40 -30q7 1 19 4q26 5 41 5q89 6 89 151q0 42 -14 124t-14 125.5t11 81.5q-73 3 -149 9q-55 4 -58 41q-2 28 -2 41q0 21 18 21zM411 761q0 -12 -14.5 -12t-29.5 6t-30.5 23.5t-21 24t-22.5 35t-18 29.5q-21 -32 -62.5 -71.5t-64.5 -39.5
q-18 0 -18 23t45 71q22 25 38.5 50t26.5 36t30 11t40 -19.5t34.5 -50.5t16 -33.5t12.5 -17t18 -24.5q20 -27 20 -41z" />
    <glyph glyph-name="jcircumflex" unicode="&#x135;" horiz-adv-x="184" 
d="M153 76q10 0 10 -12.5t-10.5 -46t-11.5 -39.5q-11 -38 -49 -52q-39 -186 -96 -308q-23 -51 -69 -51q-33 0 -59 29q-57 60 -100 195q-8 26 -8 43.5t12 30.5q86 94 268 170q43 179 60 412q2 21 14 21q18 0 30.5 -19.5t12.5 -37t-1 -25.5q-17 -187 -39 -321q33 11 36 11z
M3 -102q-44 -17 -105 -60t-61 -64q0 -14 26.5 -29t43.5 -15t31 22q36 54 65 146zM268 518q0 -12 -14.5 -12t-29.5 6t-30.5 23.5t-21 24t-22.5 35t-18 29.5q-21 -32 -62.5 -71.5t-64.5 -39.5q-18 0 -18 23t45 72q22 24 38.5 49t26.5 36t30 11t40 -19.5t34.5 -50.5t16 -33.5
t12.5 -17t18 -23.5q20 -28 20 -42z" />
    <glyph glyph-name="Kcommaaccent" unicode="&#x136;" horiz-adv-x="532" 
d="M210 624v-10v-13q0 -54 -46.5 -108.5t-102.5 -90.5q-14 -8 -23 -8q-17 0 -27.5 25.5t-10.5 43t13 35.5q86 114 189 184q20 14 45.5 14t55.5 -16q42 -22 42 -84q0 -30 -13.5 -73.5t-25 -78t-13.5 -41.5q48 45 114 149q25 40 35 55q52 82 63 105q0 25 15 25
q10 0 23.5 -12.5t21 -18.5t7.5 -13t-6 -17q-75 -170 -247 -352q-2 -2 -2 -5q0 -15 34 -15q49 -13 77 -75q4 -8 20.5 -48.5t26.5 -61.5q10 -24 25 -24q6 0 14 5t11 5q15 0 15 -37.5t-5 -51t-30.5 -32.5t-42 -19t-45.5 34.5t-58 120.5t-38 105q-11 26 -26.5 26t-26 -17.5
t-26.5 -16.5q-15 -70 -15 -112.5t3 -60.5t3 -28t-14 -23t-27.5 -13t-33.5 22q-13 13 -14 23q-2 19 -4 50t-2 54q0 77 17.5 154t49.5 174q47 142 47 162t-18 20q-22 0 -24 -15zM245.5 -258.5q-5.5 6.5 -5.5 15.5t24.5 48t24.5 63q-12 14 -12 24.5t16.5 19t33.5 8.5t30.5 -14
t13.5 -34q0 -34 -44 -85.5t-67 -51.5q-9 0 -14.5 6.5z" />
    <glyph glyph-name="kcommaaccent" unicode="&#x137;" horiz-adv-x="342" 
d="M302 88q20 0 18 -35q0 -11 2 -17t2 -11q0 -16 -21.5 -24t-47.5 -8t-54.5 30.5t-101.5 138.5v-25q0 -49 4.5 -74t4.5 -31q0 -33 -38 -33q-20 0 -27.5 15.5t-15.5 48.5t-8 47t4.5 40.5t6 42t4.5 52.5q14 220 62 506q-4 16 -4 28.5t10 12.5t22 -14q17 -17 27 -50t10 -53
t-4.5 -48.5t-14.5 -84.5q-22 -123 -30 -189q2 2 14 13.5t15 14.5t14 12.5t16.5 12.5t16 9.5t18.5 8.5q19 7 38 7q44 0 66 -32t22 -79q0 -32 -9 -48.5t-14 -25t-17 -18.5l-18 -15q-13 -11 -50 -29t-42.5 -21.5t-5.5 -7t5 -8.5q50 -50 110 -58zM256 347q-58 -26 -109 -84
q59 18 109 84zM100.5 -258.5q-5.5 6.5 -5.5 15.5t24.5 48t24.5 63q-12 14 -12 24.5t16.5 19t33.5 8.5t30.5 -14t13.5 -34q0 -34 -44 -85.5t-67 -51.5q-9 0 -14.5 6.5z" />
    <glyph glyph-name="kgreenlandic" unicode="&#x138;" horiz-adv-x="342" 
d="M302 88q20 0 18 -35q0 -11 2 -17t2 -11q0 -16 -21.5 -24t-47.5 -8t-54.5 30.5t-101.5 138.5v-25q0 -49 4.5 -74t4.5 -31q0 -33 -38 -33q-20 0 -27.5 15.5t-15.5 48.5t-8 47t4.5 40.5t10.5 99.5t11 111t5 100q0 16 10 16t22 -14q18 -18 29.5 -47.5t11.5 -48t-4 -44.5
q55 108 125 108q44 0 66 -32t22 -79q0 -32 -9 -48.5t-14 -25t-17 -18.5l-18 -15q-13 -11 -50 -29t-42.5 -21.5t-5.5 -7t5 -8.5q50 -50 110 -58zM256 347q-41 -5 -69 -30.5t-40 -53.5q59 18 109 84z" />
    <glyph glyph-name="Lacute" unicode="&#x139;" horiz-adv-x="396" 
d="M230 672l-4 25q0 4 3 4t18 -10t35.5 -23t26.5 -40t6 -79.5t-31 -91.5q-11 -14 -17 -14q-12 0 -14.5 23t-12.5 23q-7 0 -8 -15q-3 -24 -3 -89q-8 -171 -58 -278q28 -5 52 -5q95 0 140 52q9 12 15.5 12t6.5 -18q0 -51 -10 -94q-15 -63 -83 -63t-162 49q-35 -48 -65.5 -48
t-77.5 47.5t-47 76.5q0 16 17.5 25t37.5 9t88 -22q33 62 41 141t30 230.5t26 182t13 30.5t37 -46v6zM51 83l-18 8q-3 0 -3 -10.5t8 -10.5q4 0 13 13zM219 767q0 55 82 134q14 14 19.5 20.5t5.5 15.5t6 9q24 0 37.5 -28t13.5 -42q0 -28 -22 -46q-10 -13 -59 -46.5
t-61.5 -33.5t-17 6t-4.5 11z" />
    <glyph glyph-name="lacute" unicode="&#x13a;" horiz-adv-x="241" 
d="M92 705l-5 30q0 12 13 12q5 0 13 -2q60 -12 60 -69q0 -14 -3 -30.5t-11.5 -68.5t-12.5 -75l-10 -69q-24 -158 -24 -291q0 -29 14 -29q5 0 11 6q70 88 81.5 107.5t17 19.5t5.5 -13.5t-5.5 -51t-6.5 -48t-4.5 -23.5t-6 -20.5t-10.5 -21t-11 -17.5q-21 -28 -33.5 -43.5
t-29 -15.5t-31.5 15t-21.5 27t-18.5 37q-35 68 -35 143q0 64 14.5 157t17.5 116q-23 0 -23 20q0 8 2.5 15.5l18.5 55.5q34 97 34 127zM115 795q0 55 82 135q14 13 19.5 19.5t5.5 15.5t6 9q24 0 37.5 -28t13.5 -42q0 -28 -22 -46q-10 -13 -59 -46.5t-61.5 -33.5t-17 6
t-4.5 11z" />
    <glyph glyph-name="Lcommaaccent" unicode="&#x13b;" horiz-adv-x="396" 
d="M230 672l-4 25q0 4 3 4t18 -10t35.5 -23t26.5 -40t6 -79.5t-31 -91.5q-11 -14 -17 -14q-12 0 -14.5 23t-12.5 23q-7 0 -8 -15q-3 -24 -3 -89q-8 -171 -58 -278q28 -5 52 -5q95 0 140 52q9 12 15.5 12t6.5 -18q0 -51 -10 -94q-15 -63 -83 -63t-162 49q-35 -48 -65.5 -48
t-77.5 47.5t-47 76.5q0 16 17.5 25t37.5 9t88 -22q33 62 41 141t30 230.5t26 182t13 30.5t37 -46v6zM51 83l-18 8q-3 0 -3 -10.5t8 -10.5q4 0 13 13zM97.5 -258.5q-5.5 6.5 -5.5 15.5t24.5 48t24.5 63q-12 14 -12 24.5t16.5 19t33.5 8.5t30.5 -14t13.5 -34q0 -34 -44 -85.5
t-67 -51.5q-9 0 -14.5 6.5z" />
    <glyph glyph-name="lcommaaccent" unicode="&#x13c;" horiz-adv-x="241" 
d="M92 705l-5 30q0 12 13 12q5 0 13 -2q60 -12 60 -69q0 -14 -3 -30.5t-11.5 -68.5t-12.5 -75l-10 -69q-24 -158 -24 -291q0 -29 14 -29q5 0 11 6q70 88 81.5 107.5t17 19.5t5.5 -13.5t-5.5 -51t-6.5 -48t-4.5 -23.5t-6 -20.5t-10.5 -21t-11 -17.5q-21 -28 -33.5 -43.5
t-29 -15.5t-31.5 15t-21.5 27t-18.5 37q-35 68 -35 143q0 64 14.5 157t17.5 116q-23 0 -23 20q0 8 2.5 15.5l18.5 55.5q34 97 34 127zM40.5 -258.5q-5.5 6.5 -5.5 15.5t24.5 48t24.5 63q-12 14 -12 24.5t16.5 19t33.5 8.5t30.5 -14t13.5 -34q0 -34 -44 -85.5t-67 -51.5
q-9 0 -14.5 6.5z" />
    <glyph glyph-name="Lcaron" unicode="&#x13d;" horiz-adv-x="396" 
d="M230 672l-4 25q0 4 3 4t18 -10t35.5 -23t26.5 -40t6 -79.5t-31 -91.5q-11 -14 -17 -14q-12 0 -14.5 23t-12.5 23q-7 0 -8 -15q-3 -24 -3 -89q-8 -171 -58 -278q28 -5 52 -5q95 0 140 52q9 12 15.5 12t6.5 -18q0 -51 -10 -94q-15 -63 -83 -63t-162 49q-35 -48 -65.5 -48
t-77.5 47.5t-47 76.5q0 16 17.5 25t37.5 9t88 -22q33 62 41 141t30 230.5t26 182t13 30.5t37 -46v6zM51 83l-18 8q-3 0 -3 -10.5t8 -10.5q4 0 13 13zM425 542q-22 -52 -42.5 -52t-25.5 34q0 14 8 57.5t8 56.5t-7.5 31t-7.5 25q0 12 16 12q29 0 51 -26.5t22 -45.5
q0 -40 -22 -92z" />
    <glyph glyph-name="lcaron" unicode="&#x13e;" horiz-adv-x="263" 
d="M92 705l-5 30q0 12 13 12q5 0 13 -2q60 -12 60 -69q0 -14 -3 -30.5t-11.5 -68.5t-12.5 -75l-10 -69q-24 -158 -24 -291q0 -29 14 -29q5 0 11 6q70 88 81.5 107.5t17 19.5t5.5 -13.5t-5.5 -51t-6.5 -48t-4.5 -23.5t-6 -20.5t-10.5 -21t-11 -17.5q-21 -28 -33.5 -43.5
t-29 -15.5t-31.5 15t-21.5 27t-18.5 37q-35 68 -35 143q0 64 14.5 157t17.5 116q-23 0 -23 20q0 8 2.5 15.5l18.5 55.5q34 97 34 127zM220 526l8 88q0 22 -12 45.5t-12 28.5q0 12 26.5 12t54.5 -25.5t28 -58.5t-27.5 -79.5t-47.5 -46.5q-18 0 -18 36z" />
    <glyph glyph-name="Ldot" unicode="&#x13f;" horiz-adv-x="430" 
d="M230 672l-4 25q0 4 2 4t10 -4q24 -16 44.5 -29t26.5 -40t6 -79.5t-31 -91.5q-11 -14 -17 -14q-12 0 -14.5 23t-12.5 23q-7 0 -8 -15q-3 -24 -3 -89q-8 -171 -58 -278q28 -5 52 -5q87 0 140 52q9 12 15.5 12t6.5 -18q0 -51 -10 -94q-15 -63 -83 -63t-162 49
q-35 -48 -65.5 -48t-77.5 47.5t-47 76.5q0 16 17.5 25t37.5 9t88 -22q33 62 41 141t30 230.5t26 182t13 30.5t37 -46v6zM51 83l-18 8q-3 0 -3 -10.5t8 -10.5q4 0 13 13zM415 244q-15 -23 -40 -23t-38.5 20t-13.5 53.5t13.5 57.5t36.5 24t40 -19.5t17 -54.5t-15 -58z" />
    <glyph glyph-name="ldotaccent" unicode="&#x140;" horiz-adv-x="312" 
d="M92 705l-5 30q0 12 13 12q5 0 13 -2q60 -12 60 -69q0 -14 -3 -30.5t-11.5 -68.5t-12.5 -75l-10 -69q-24 -158 -24 -291q0 -29 14 -29q3 0 14.5 4.5t19 11.5t20 21.5t24 30t13 17t4.5 7.5q7 13 12.5 13t5.5 -13.5t-4.5 -35t-5.5 -34t-4.5 -25.5t-6 -20.5t-10.5 -21
t-11 -17.5q-21 -28 -33.5 -43.5t-29 -15.5t-31.5 15t-21.5 27t-18.5 37q-35 68 -35 143q0 64 14.5 157t17.5 116q-23 0 -23 20q0 8 2.5 15.5l18.5 55.5q34 97 34 127zM277 274q-15 -23 -40 -23t-38.5 20t-13.5 53.5t13.5 57.5t36.5 24t40 -19.5t17 -54.5t-15 -58z" />
    <glyph glyph-name="Lslash" unicode="&#x141;" horiz-adv-x="396" 
d="M230 672l-4 25q0 4 2 4t10 -4q24 -16 44.5 -29t26.5 -40t6 -79.5t-31 -91.5q-11 -14 -17 -14q-12 0 -14.5 23t-12.5 23q-7 0 -8 -15q-3 -24 -3 -89q-1 -14 -3 -40q21 7 49 19q2 6 7 12.5t10 6.5q8 1 16 -16t7 -30.5t-5.5 -21.5t-16.5 -14t-19.5 -9t-28 -8.5t-27.5 -7.5
q-13 -95 -47 -169q28 -5 52 -5q87 0 140 52q9 12 15.5 12t6.5 -18q0 -51 -10 -94q-15 -63 -83 -63t-162 49q-35 -48 -65.5 -48t-77.5 47.5t-47 76.5q0 16 17.5 25t37.5 9t88 -22q28 53 38 118q-12 -3 -30 -11.5t-27 -10.5q-16 -4 -19.5 16.5t2.5 33t13 14.5q14 6 68 23
q8 70 27 197.5t24 165.5t14 38t37 -46v6zM51 83l-18 8q-3 0 -3 -10.5t8 -10.5q4 0 13 13z" />
    <glyph glyph-name="lslash" unicode="&#x142;" horiz-adv-x="241" 
d="M92 705l-5 30q0 12 13 12q5 0 13 -2q60 -12 60 -69q0 -14 -20.5 -140.5t-23.5 -151.5l21 12q7 20 15 21q8 0 18 -15t10 -34t-12 -29t-61 -30q-8 -90 -8 -167q0 -29 14 -29q5 0 11 6q70 88 81.5 107.5t17 19.5t5.5 -13.5t-5.5 -51t-6.5 -48t-4.5 -23.5t-6 -20.5t-10.5 -21
t-11 -17.5q-21 -28 -33.5 -43.5t-29 -15.5t-31.5 15t-21.5 27t-18.5 37q-35 68 -35 143q0 37 2 55q-26 -14 -32.5 -14t-12 9t-5.5 28.5t14 26.5q6 3 44 21q3 28 11.5 79.5t10.5 67.5q-23 0 -23 20q0 8 2.5 15.5l18.5 55.5q34 97 34 127z" />
    <glyph glyph-name="Nacute" unicode="&#x143;" horiz-adv-x="601" 
d="M308 22l2 -18q0 -21 -16.5 -36.5t-38.5 -15.5t-45.5 29.5t-23.5 50.5q0 25 13 51q1 7 7 70t31.5 212.5t32.5 203.5v10q0 24 -17.5 24t-35.5 -18q2 -4 2 -16t-27 -76.5t-77 -195.5q-15 -36 -40 -36t-45 30t-20 51.5t7 40.5q25 60 57 119.5t50.5 94.5t28 51t19.5 16t18 -2
q19 23 51 23t64.5 -20t32.5 -100q0 -28 -5 -80.5t-6 -66.5q81 231 144 289q11 11 31 11q45 0 56.5 -17.5t11.5 -64t-9 -100.5t-28 -136.5t-24.5 -109t-5.5 -51.5t3 -25q8 0 40.5 53.5t38.5 53.5t6 -19q0 -67 -15.5 -142t-44 -114t-51.5 -39q-10 0 -25 11.5t-18 14.5
q-33 36 -33 105q0 61 62 362q19 96 26 133q-75 -126 -116.5 -266.5t-64.5 -319.5zM372 768q0 55 82 134q14 14 19.5 20.5t5.5 15.5t6 9q24 0 37.5 -28t13.5 -42q0 -28 -22 -46q-10 -13 -59 -46.5t-61.5 -33.5t-17 6t-4.5 11z" />
    <glyph glyph-name="nacute" unicode="&#x144;" horiz-adv-x="351" 
d="M351 222q0 -49 -5 -85t-36 -96.5t-61 -60.5q-13 0 -25 14q-59 71 -59 135q0 19 13 87q18 102 18 113.5t-3.5 11.5t-7.5 -8q-26 -46 -42 -104.5t-21 -98.5t-11 -112q0 -25 -13 -25q-6 0 -20 11q-54 46 -54 126q0 34 6.5 94t7.5 83q11 139 27 139q9 0 13 -19.5t4 -44
t1.5 -44.5t7.5 -20t17 32t32.5 64.5t46.5 32.5t44 -11q43 -22 43 -92q0 -24 -6 -59t-10.5 -76.5t-4.5 -47t4 -5.5q8 0 40.5 40t44.5 40q9 0 9 -14zM137 502q0 55 82 134q14 14 19.5 20.5t5.5 15.5t6 9q24 0 37.5 -28t13.5 -42q0 -28 -22 -46q-10 -13 -59 -46.5t-61.5 -33.5
t-17 6t-4.5 11z" />
    <glyph glyph-name="Ncommaaccent" unicode="&#x145;" horiz-adv-x="601" 
d="M308 22l2 -18q0 -21 -16.5 -36.5t-38.5 -15.5t-45.5 29.5t-23.5 50.5q0 25 13 51q1 7 7 70t31.5 212.5t32.5 203.5v10q0 24 -17.5 24t-35.5 -18q2 -4 2 -16t-27 -76.5t-77 -195.5q-15 -36 -40 -36t-45 30t-20 51.5t7 40.5q25 60 57 119.5t50.5 94.5t28 51t19.5 16t18 -2
q19 23 51 23t64.5 -20t32.5 -100q0 -28 -5 -80.5t-6 -66.5q81 231 144 289q11 11 31 11q45 0 56.5 -17.5t11.5 -64t-9 -100.5t-28 -136.5t-24.5 -109t-5.5 -51.5t3 -25q8 0 40.5 53.5t38.5 53.5t6 -19q0 -67 -15.5 -142t-44 -114t-51.5 -39q-10 0 -25 11.5t-18 14.5
q-33 36 -33 105q0 61 62 362q19 96 26 133q-75 -126 -116.5 -266.5t-64.5 -319.5zM285.5 -258.5q-5.5 6.5 -5.5 15.5t24.5 48t24.5 63q-12 14 -12 24.5t16.5 19t33.5 8.5t30.5 -14t13.5 -34q0 -34 -44 -85.5t-67 -51.5q-9 0 -14.5 6.5z" />
    <glyph glyph-name="ncommaaccent" unicode="&#x146;" horiz-adv-x="351" 
d="M351 222q0 -49 -5 -85t-36 -96.5t-61 -60.5q-13 0 -25 14q-59 71 -59 135q0 19 13 87q18 102 18 113.5t-3.5 11.5t-7.5 -8q-26 -46 -42 -104.5t-21 -98.5t-11 -112q0 -25 -13 -25q-6 0 -20 11q-54 46 -54 126q0 34 6.5 94t7.5 83q11 139 27 139q9 0 13 -19.5t4 -44
t1.5 -44.5t7.5 -20t17 32t32.5 64.5t46.5 32.5t44 -11q43 -22 43 -92q0 -24 -6 -59t-10.5 -76.5t-4.5 -47t4 -5.5q8 0 40.5 40t44.5 40q9 0 9 -14zM75.5 -258.5q-5.5 6.5 -5.5 15.5t24.5 48t24.5 63q-12 14 -12 24.5t16.5 19t33.5 8.5t30.5 -14t13.5 -34q0 -34 -44 -85.5
t-67 -51.5q-9 0 -14.5 6.5z" />
    <glyph glyph-name="Ncaron" unicode="&#x147;" horiz-adv-x="601" 
d="M308 22l2 -18q0 -21 -16.5 -36.5t-38.5 -15.5t-45.5 29.5t-23.5 50.5q0 25 13 51q1 7 7 70t31.5 212.5t32.5 203.5v10q0 24 -17.5 24t-35.5 -18q2 -4 2 -16t-27 -76.5t-77 -195.5q-15 -36 -40 -36t-45 30t-20 51.5t7 40.5q25 60 57 119.5t50.5 94.5t28 51t19.5 16t18 -2
q19 23 51 23t64.5 -20t32.5 -100q0 -28 -5 -80.5t-6 -66.5q81 231 144 289q11 11 31 11q45 0 56.5 -17.5t11.5 -64t-9 -100.5t-28 -136.5t-24.5 -109t-5.5 -51.5t3 -25q8 0 40.5 53.5t38.5 53.5t6 -19q0 -67 -15.5 -142t-44 -114t-51.5 -39q-10 0 -25 11.5t-18 14.5
q-33 36 -33 105q0 61 62 362q19 96 26 133q-75 -126 -116.5 -266.5t-64.5 -319.5zM398 751q-30 0 -52 24q0 6 -1.5 9.5t-26 41t-47 73.5t-22.5 43t11.5 7t21 -3.5t19 -12t16.5 -15t17 -21t15 -21.5q20 -29 28 -45q36 53 67.5 82t43.5 29t26.5 -14.5t14.5 -22.5t-7.5 -18.5
t-25.5 -29.5t-27 -29.5t-23 -32.5t-24.5 -33t-23.5 -11z" />
    <glyph glyph-name="ncaron" unicode="&#x148;" horiz-adv-x="351" 
d="M351 222q0 -49 -5 -85t-36 -96.5t-61 -60.5q-13 0 -25 14q-59 71 -59 135q0 19 13 87q18 102 18 113.5t-3.5 11.5t-7.5 -8q-26 -46 -42 -104.5t-21 -98.5t-11 -112q0 -25 -13 -25q-6 0 -20 11q-54 46 -54 126q0 34 6.5 94t7.5 83q11 139 27 139q9 0 13 -19.5t4 -44
t1.5 -44.5t7.5 -20t17 32t32.5 64.5t46.5 32.5t44 -11q43 -22 43 -92q0 -24 -6 -59t-10.5 -76.5t-4.5 -47t4 -5.5q8 0 40.5 40t44.5 40q9 0 9 -14zM163 485q-30 0 -52 24q0 6 -1.5 9.5t-26 41t-47 73.5t-22.5 43t11.5 7t21 -3.5t19 -12t16.5 -15t17 -21t15 -21.5
q20 -29 28 -45q36 53 67.5 82t43.5 29t26.5 -14.5t14.5 -22.5t-7.5 -18.5t-25.5 -29.5t-27 -29.5t-23 -32.5t-24.5 -33t-23.5 -11z" />
    <glyph glyph-name="napostrophe" unicode="&#x149;" horiz-adv-x="351" 
d="M351 222q0 -49 -5 -85t-36 -96.5t-61 -60.5q-13 0 -25 14q-59 71 -59 135q0 19 13 87q18 102 18 113.5t-3.5 11.5t-7.5 -8q-26 -46 -42 -104.5t-21 -98.5t-11 -112q0 -25 -13 -25q-6 0 -20 11q-54 46 -54 126q0 34 6.5 94t7.5 83q11 139 27 139q9 0 13 -19.5t4 -44
t1.5 -44.5t7.5 -20t17 32t32.5 64.5t46.5 32.5t44 -11q43 -22 43 -92q0 -24 -6 -59t-10.5 -76.5t-4.5 -47t4 -5.5q8 0 40.5 40t44.5 40q9 0 9 -14zM52 573q-22 -52 -42.5 -52t-25.5 34q0 14 8 57.5t8 56.5t-7.5 31t-7.5 25q0 12 16 12q29 0 51 -26.5t22 -45.5q0 -40 -22 -92
z" />
    <glyph glyph-name="Eng" unicode="&#x14a;" horiz-adv-x="580" 
d="M303 28l2 -18q0 -21 -16.5 -36.5t-38.5 -15.5t-45.5 29.5t-23.5 50.5t6.5 35t7 18.5t3 35t12 82t14 85t21.5 126t25 149.5v10q0 24 -17.5 24t-35.5 -18q2 -4 2 -16t-27 -76.5t-77 -195.5q-15 -36 -40 -36t-45 30t-20 51.5t7 40.5q25 60 57 119.5t50.5 94.5t28 51t19.5 16
t18 -2q19 23 51 23t64.5 -20t32.5 -100q0 -28 -5 -80.5t-6 -66.5q81 231 144 289q11 11 31 11q47 0 61 -19.5t7 -65.5q-3 -18 -17 -131q-35 -286 -70.5 -454t-88.5 -286q-9 -21 -36 -36t-46 -15t-37.5 6.5t-23.5 16.5q-47 61 -61.5 87.5t-19.5 45.5q-11 31 5 31q8 0 33 -25
q6 -5 27 -12t28 -7q29 0 57 39t48 100q41 121 60 236q50 303 64 404q-142 -236 -186 -580z" />
    <glyph glyph-name="eng" unicode="&#x14b;" horiz-adv-x="296" 
d="M82 393l3 -64q0 -11 6 -11t17 32t32.5 64.5t46.5 32.5t44 -11q43 -22 43 -92q0 -170 -44 -386q-18 -88 -58 -176q-23 -51 -69 -51q-21 0 -34 23q-30 42 -61 153q-11 31 5 31q8 0 33 -25q24 -19 35 -19q26 0 46.5 25.5t32.5 69.5t20 89.5t11 101.5q5 92 5 126.5t-3 34.5
t-7 -8q-26 -46 -42.5 -104t-21.5 -99.5t-11 -111.5q0 -25 -13 -25q-6 0 -20 11q-54 46 -54 126q0 34 6.5 94t7.5 83q11 139 27 139q9 0 13 -19.5t4 -33.5z" />
    <glyph glyph-name="Omacron" unicode="&#x14c;" horiz-adv-x="427" 
d="M427 398q0 -81 -60 -137q-39 -146 -95 -232q-33 -49 -77 -49q-23 0 -54 18q-83 51 -97 118t-14 140q0 190 96 390q12 23 25 23q2 0 47 -18q25 58 102 58q40 0 59 -15q43 -34 43 -172q0 -46 -7 -107l24 48q8 -34 8 -65zM321 594q0 17 -7.5 33t-20.5 16t-22.5 -11
t-21.5 -31q-57 -92 -57 -223q0 -33 18.5 -68.5t48.5 -35.5q5 0 13 2q49 147 49 318zM254 228q-31 8 -57 28.5t-38 48.5q-22 58 -22 103t6 75q-43 -89 -43 -200.5t25 -193.5q9 -30 28 -30q13 0 24 18q43 60 77 151zM186 873l105 -5q43 0 68.5 7t31.5 7q10 0 16.5 -19t6.5 -32
t-8.5 -22.5t-27.5 -12.5q-24 -4 -58 -4l-132 -5q-12 0 -23 50v8q0 16 5 22t16 6z" />
    <glyph glyph-name="omacron" unicode="&#x14d;" horiz-adv-x="275" 
d="M257 236q0 -121 -70 -215q-25 -32 -55.5 -32t-48.5 15q-65 54 -65 185q0 91 49 232q4 10 7 12.5t10.5 2.5t18.5 10.5t36.5 10.5t51.5 -19t38 -51q28 -75 28 -151zM174 301q0 92 -23 92q-11 0 -20 -17q-40 -95 -40 -227q0 -33 1 -50q82 63 82 202zM59 621l105 -5
q43 0 68.5 7t31.5 7q10 0 16.5 -19t6.5 -32t-8.5 -22.5t-26.5 -12.5q-25 -4 -59 -4l-132 -5q-12 0 -23 50v8q0 16 5 22t16 6z" />
    <glyph glyph-name="Obreve" unicode="&#x14e;" horiz-adv-x="427" 
d="M427 398q0 -81 -60 -137q-39 -146 -95 -232q-33 -49 -77 -49q-23 0 -54 18q-83 51 -97 118t-14 140q0 190 96 390q12 23 25 23q2 0 47 -18q25 58 102 58q40 0 59 -15q43 -34 43 -172q0 -46 -7 -107l24 48q8 -34 8 -65zM321 594q0 17 -7.5 33t-20.5 16t-22.5 -11
t-21.5 -31q-57 -92 -57 -223q0 -33 18.5 -68.5t48.5 -35.5q5 0 13 2q49 147 49 318zM254 228q-31 8 -57 28.5t-38 48.5q-22 58 -22 103t6 75q-43 -89 -43 -200.5t25 -193.5q9 -30 28 -30q13 0 24 18q43 60 77 151zM142 925q27 0 57 -45q11 -16 29.5 -30t43 -14t44 14.5
t28.5 31.5q24 46 50 46q9 0 22.5 -14.5t13.5 -21.5q0 -32 -36 -83.5t-96.5 -51.5t-114.5 57t-54 93q0 18 13 18z" />
    <glyph glyph-name="obreve" unicode="&#x14f;" horiz-adv-x="275" 
d="M257 236q0 -121 -70 -215q-25 -32 -55.5 -32t-48.5 15q-65 54 -65 185q0 91 49 232q4 10 7 12.5t10.5 2.5t18.5 10.5t36.5 10.5t51.5 -19t38 -51q28 -75 28 -151zM174 301q0 92 -23 92q-11 0 -20 -17q-40 -95 -40 -227q0 -33 1 -50q82 63 82 202zM15 673q27 0 57 -45
q11 -16 29.5 -30t43 -14t44 14.5t28.5 31.5q24 46 50 46q9 0 22.5 -14.5t13.5 -21.5q0 -32 -36 -83.5t-96.5 -51.5t-114.5 57t-54 93q0 18 13 18z" />
    <glyph glyph-name="Ohungarumlaut" unicode="&#x150;" horiz-adv-x="427" 
d="M427 398q0 -81 -60 -137q-39 -146 -95 -232q-33 -49 -77 -49q-23 0 -54 18q-83 51 -97 118t-14 140q0 190 96 390q12 23 25 23q2 0 47 -18q25 58 102 58q40 0 59 -15q43 -34 43 -172q0 -46 -7 -107l24 48q8 -34 8 -65zM321 594q0 17 -7.5 33t-20.5 16t-22.5 -11
t-21.5 -31q-57 -92 -57 -223q0 -33 18.5 -68.5t48.5 -35.5q5 0 13 2q49 147 49 318zM254 228q-31 8 -57 28.5t-38 48.5q-22 58 -22 103t6 75q-43 -89 -43 -200.5t25 -193.5q9 -30 28 -30q13 0 24 18q43 60 77 151zM254 929l-1 9q0 6 14 6t30 -18q23 -27 23 -47.5t-14 -38.5
q-7 -15 -42.5 -54t-49.5 -39q-19 0 -19 33.5t31 87.5q4 7 9.5 17t8 14.5t5.5 10.5q5 10 5 19zM374 873q10 11 17 27t11 24.5t11 8.5q24 0 37.5 -28t13.5 -42q0 -28 -22 -46q-10 -13 -50.5 -41.5t-53 -28.5t-17 6t-4.5 11q0 48 57 109z" />
    <glyph glyph-name="ohungarumlaut" unicode="&#x151;" horiz-adv-x="275" 
d="M257 236q0 -121 -70 -215q-25 -32 -55.5 -32t-48.5 15q-65 54 -65 185q0 91 49 232q4 10 7 12.5t10.5 2.5t18.5 10.5t36.5 10.5t51.5 -19t38 -51q28 -75 28 -151zM174 301q0 92 -23 92q-11 0 -20 -17q-40 -95 -40 -227q0 -33 1 -50q82 63 82 202zM127 677l-1 9q0 6 14 6
t30 -18q23 -27 23 -47.5t-14 -38.5q-7 -15 -42.5 -54t-49.5 -39q-19 0 -19 33.5t31 87.5q4 7 9.5 17t8 14.5t5.5 10.5q5 10 5 19zM247 621q10 11 17 27t11 24.5t11 8.5q24 0 37.5 -28t13.5 -42q0 -28 -22 -46q-10 -13 -50.5 -41.5t-53 -28.5t-17 6t-4.5 11q0 48 57 109z" />
    <glyph glyph-name="OE" unicode="&#x152;" horiz-adv-x="703" 
d="M396 443q0 -34 139 -34h17q27 15 34 15q17 0 42.5 -27.5t25.5 -63.5q0 -12 -13 -12q-4 0 -37 6q-10 -3 -37.5 -11t-37.5 -11t-33 -11t-33.5 -13.5t-29 -15.5t-29.5 -21q-39 -37 -53 -58q-26 -36 -26 -74.5t18 -58t59.5 -19.5t99 20.5t57.5 59.5q0 13 -6 25.5t-19.5 12.5
t-82 -40.5t-72.5 -40.5t-4 6.5t7 22.5q26 49 74 78t99.5 29t87 -30t35.5 -68.5t-20 -64.5q-61 -80 -232 -80q-99 0 -150 71q-2 -2 -4 -6q-33 -49 -77 -49q-23 0 -54 18q-83 51 -97 118t-14 140q0 190 96 390q12 23 25 23q2 0 47 -18q25 58 107 58q36 -1 55 -15
q34 -28 34 -107q36 30 97.5 66t78 46.5t34.5 10.5t41 -27q12 2 17 2q23 0 33 -20q8 -19 8 -25q0 -36 -153 -97q-6 -2 -8 -2q-6 0 -6 8.5t10 38.5l-33 -16q-58 -30 -71 -44q-24 -29 -35 -53t-11 -32zM210 266q-31 17 -52 66.5t-21 85t6 65.5q-43 -89 -43 -200.5t25 -193.5
q9 -30 28 -30q13 0 24 18q69 98 106.5 239.5t37.5 277.5q0 17 -7.5 33t-20.5 16t-22.5 -11t-21.5 -31q-57 -92 -57 -223q0 -16 14 -64t8 -49q-1 0 -4 1zM383 395q-6 -38 -10 -58q29 15 66 28q-34 11 -56 30z" />
    <glyph glyph-name="oe" unicode="&#x153;" horiz-adv-x="518" 
d="M216 67q-35 -60 -60 -71q-14 -7 -34.5 -7t-38.5 15q-65 54 -65 185q0 91 49 232q4 10 7 12.5t10.5 2.5t18.5 10.5t36.5 10.5t51.5 -19q47 -34 60 -135q19 25 25 32q4 55 25 55q11 0 15 -13q21 19 51 37t54 18t49.5 -28t25.5 -57.5t-42 -80.5q-76 -96 -120 -96
q-32 0 -50 53q-1 -2 -9.5 -16.5t-12 -21.5t-8.5 -19q-11 -23 -11 -41q0 -41 41 -41q68 0 115.5 28.5t94.5 86.5q4 -44 4 -67q0 -152 -154 -152q-51 0 -80.5 22t-47.5 65zM174 301q0 92 -23 92q-11 0 -20 -17q-40 -95 -40 -227q0 -33 1 -50q82 63 82 202zM382.5 292
q31.5 39 31.5 53.5t-10.5 14.5t-36 -26t-40.5 -45q-2 -12 -2 -18q0 -18 10 -18q16 0 47.5 39z" />
    <glyph glyph-name="Racute" unicode="&#x154;" horiz-adv-x="460" 
d="M8 677l24 -4q11 0 31 6q108 34 168.5 34t109.5 -18.5t84 -58.5t35 -86t-18.5 -82.5t-51.5 -65.5q-58 -49 -135 -87q66 -35 66 -123l-1 -43q0 -69 36 -69q37 0 76 32q13 10 16 10q8 0 8 -12q0 -35 -44 -93q-26 -31 -59 -31q-45 0 -74.5 49t-29.5 97l2 53q0 67 -21 85
q-11 9 -29 18l-32 -15q-13 -97 -13 -156l1 -87q0 -37 -21 -37q-8 0 -24 9q-64 40 -86 144q-1 5 -1 8q0 9 14.5 9t25 -8.5t15.5 -17t8 -8.5q9 0 9 17l-4 47q3 155 25 321q7 44 10 56t3 17.5t-1 8.5q-39 -11 -54.5 -26.5t-27 -15.5t-18 2t-12 8.5t-8.5 9.5q-20 29 -20 51
q0 52 18 52zM380 566q0 25 -44.5 36.5t-78 11.5t-58.5 -4q-3 -12 -3 -68.5t-12 -157.5q120 45 190 162q6 12 6 20zM228 768q0 55 82 134q14 14 19.5 20.5t5.5 15.5t6 9q24 0 37.5 -28t13.5 -42q0 -28 -22 -46q-10 -13 -59 -46.5t-61.5 -33.5t-17 6t-4.5 11z" />
    <glyph glyph-name="racute" unicode="&#x155;" horiz-adv-x="307" 
d="M319 225q7 0 7 -41.5t-28 -83.5q-12 -24 -38.5 -55.5t-35.5 -38.5q-27 -19 -43.5 -19t-24.5 2t-15.5 8.5t-12 10t-11 14t-8.5 13.5t-9 16t-7 14q-19 35 -19 66.5t5.5 59t17.5 67.5t15 51q-15 -19 -40 -41q-10 -8 -21.5 -8t-19 10.5t-19.5 45.5t-12 47.5t16 39t19 35.5
q5 18 15 18q5 0 24 -10.5t25 -40.5q2 -12 9 -12q3 0 17.5 11t32 11t52.5 -32q12 -12 12 -34t-2.5 -31t-5.5 -12q-9 -7 -13.5 -19.5t-27 -94t-22.5 -89.5t6 -8q8 0 64 48t81 71q15 11 17 11zM115 507q0 55 82 135q14 13 19.5 19.5t5.5 15.5t6 9q24 0 37.5 -28t13.5 -42
q0 -28 -22 -46q-10 -13 -59 -46.5t-61.5 -33.5t-17 6t-4.5 11z" />
    <glyph glyph-name="Rcommaaccent" unicode="&#x156;" horiz-adv-x="460" 
d="M8 677l24 -4q11 0 31 6q108 34 168.5 34t109.5 -18.5t84 -58.5t35 -86t-18.5 -82.5t-51.5 -65.5q-58 -49 -135 -87q66 -35 66 -123l-1 -43q0 -69 36 -69q37 0 76 32q13 10 16 10q8 0 8 -12q0 -35 -44 -93q-26 -31 -59 -31q-45 0 -74.5 49t-29.5 97l2 53q0 67 -21 85
q-11 9 -29 18l-32 -15q-13 -97 -13 -156l1 -87q0 -37 -21 -37q-8 0 -24 9q-64 40 -86 144q-1 5 -1 8q0 9 14.5 9t25 -8.5t15.5 -17t8 -8.5q9 0 9 17l-4 47q3 155 25 321q7 44 10 56t3 17.5t-1 8.5q-39 -11 -54.5 -26.5t-27 -15.5t-18 2t-12 8.5t-8.5 9.5q-20 29 -20 51
q0 52 18 52zM380 566q0 25 -44.5 36.5t-78 11.5t-58.5 -4q-3 -12 -3 -68.5t-12 -157.5q120 45 190 162q6 12 6 20zM139.5 -258.5q-5.5 6.5 -5.5 15.5t24.5 48t24.5 63q-12 14 -12 24.5t16.5 19t33.5 8.5t30.5 -14t13.5 -34q0 -34 -44 -85.5t-67 -51.5q-9 0 -14.5 6.5z" />
    <glyph glyph-name="rcommaaccent" unicode="&#x157;" horiz-adv-x="307" 
d="M319 225q7 0 7 -41.5t-28 -83.5q-12 -24 -38.5 -55.5t-35.5 -38.5q-27 -19 -43.5 -19t-24.5 2t-15.5 8.5t-12 10t-11 14t-8.5 13.5t-9 16t-7 14q-19 35 -19 66.5t5.5 59t17.5 67.5t15 51q-15 -19 -40 -41q-10 -8 -21.5 -8t-19 10.5t-19.5 45.5t-12 47.5t16 39t19 35.5
q5 18 15 18q5 0 24 -10.5t25 -40.5q2 -12 9 -12q3 0 17.5 11t32 11t52.5 -32q12 -12 12 -34t-2.5 -31t-5.5 -12q-9 -7 -13.5 -19.5t-27 -94t-22.5 -89.5t6 -8q8 0 64 48t81 71q15 11 17 11zM43.5 -258.5q-5.5 6.5 -5.5 15.5t24.5 48t24.5 63q-12 14 -12 24.5t16.5 19
t33.5 8.5t30.5 -14t13.5 -34q0 -34 -44 -85.5t-67 -51.5q-9 0 -14.5 6.5z" />
    <glyph glyph-name="Rcaron" unicode="&#x158;" horiz-adv-x="460" 
d="M8 677l24 -4q11 0 31 6q108 34 168.5 34t109.5 -18.5t84 -58.5t35 -86t-18.5 -82.5t-51.5 -65.5q-58 -49 -135 -87q66 -35 66 -123l-1 -43q0 -69 36 -69q37 0 76 32q13 10 16 10q8 0 8 -12q0 -35 -44 -93q-26 -31 -59 -31q-45 0 -74.5 49t-29.5 97l2 53q0 67 -21 85
q-11 9 -29 18l-32 -15q-13 -97 -13 -156l1 -87q0 -37 -21 -37q-8 0 -24 9q-64 40 -86 144q-1 5 -1 8q0 9 14.5 9t25 -8.5t15.5 -17t8 -8.5q9 0 9 17l-4 47q3 155 25 321q7 44 10 56t3 17.5t-1 8.5q-39 -11 -54.5 -26.5t-27 -15.5t-18 2t-12 8.5t-8.5 9.5q-20 29 -20 51
q0 52 18 52zM380 566q0 25 -44.5 36.5t-78 11.5t-58.5 -4q-3 -12 -3 -68.5t-12 -157.5q120 45 190 162q6 12 6 20zM254 751q-30 0 -52 24q0 6 -1.5 9.5t-26 41t-47 73.5t-22.5 43t11.5 7t21 -3.5t19 -12t16.5 -15t17 -21t15 -21.5q20 -29 28 -45q36 53 67.5 82t43.5 29
t26.5 -14.5t14.5 -22.5t-7.5 -18.5t-25.5 -29.5t-27 -29.5t-23 -32.5t-24.5 -33t-23.5 -11z" />
    <glyph glyph-name="rcaron" unicode="&#x159;" horiz-adv-x="307" 
d="M319 225q7 0 7 -41.5t-28 -83.5q-12 -24 -38.5 -55.5t-35.5 -38.5q-27 -19 -43.5 -19t-24.5 2t-15.5 8.5t-12 10t-11 14t-8.5 13.5t-9 16t-7 14q-19 35 -19 66.5t5.5 59t17.5 67.5t15 51q-15 -19 -40 -41q-10 -8 -21.5 -8t-19 10.5t-19.5 45.5t-12 47.5t16 39t19 35.5
q5 18 15 18q5 0 24 -10.5t25 -40.5q2 -12 9 -12q3 0 17.5 11t32 11t52.5 -32q12 -12 12 -34t-2.5 -31t-5.5 -12q-9 -7 -13.5 -19.5t-27 -94t-22.5 -89.5t6 -8q8 0 64 48t81 71q15 11 17 11zM161 490q-30 0 -52 24q0 6 -1.5 9.5t-26 41t-47 73.5t-22.5 43t11.5 7t21 -3.5
t19 -12t16.5 -15t17 -21t15 -20.5q20 -30 28 -46q36 53 67.5 82t43.5 29t26.5 -14.5t14.5 -22.5t-7.5 -18.5t-25.5 -29.5t-27 -29.5t-23 -32.5t-24.5 -33t-23.5 -11z" />
    <glyph glyph-name="Sacute" unicode="&#x15a;" horiz-adv-x="419" 
d="M400 690q44 -52 44 -62t-10 -22q-47 -53 -110 -107q-14 -12 -21 -12q-10 0 -10 15.5t13.5 41.5t13.5 30t-3.5 4t-9.5 -2q-115 -41 -160 -129q-10 -20 -10 -33q0 -26 40 -49q6 -4 54 -29q97 -52 122 -84q40 -50 40 -98q0 -19 -10.5 -39.5t-26.5 -30.5q-169 -105 -301 -105
q-70 0 -70 64q0 21 14 40q-24 17 -24 36.5t27 39.5q64 48 206 48q15 0 36 -10.5t34 -22.5q25 14 25 25t-13 22q-19 14 -70.5 37t-65.5 31q-42 24 -64.5 69t-22.5 95.5t25.5 92t71.5 72.5q70 47 175 86q14 4 22 4q23 0 39 -18zM210 136q-10 2 -23 2t-50.5 -12t-37.5 -27
q0 -6 7 -6q27 0 104 43zM300 761q0 55 82 134q14 14 19.5 20.5t5.5 15.5t6 9q24 0 37.5 -28t13.5 -42q0 -28 -22 -46q-10 -13 -59 -46.5t-61.5 -33.5t-17 6t-4.5 11z" />
    <glyph glyph-name="sacute" unicode="&#x15b;" horiz-adv-x="322" 
d="M286 429.5q36 -20.5 36 -48t-21.5 -49.5t-48.5 -22q-41 0 -57 38q-2 6 -6.5 6t-33 -12t-38.5 -17t-10 -9.5t14 -11.5q178 -48 178 -147q0 -35 -27.5 -72.5t-77.5 -61.5t-96 -24t-64.5 25t-18.5 72t33 70q44 29 72 29q7 0 7 -3.5t-15.5 -12.5t-33 -26t-17.5 -27.5
t24 -10.5q64 0 126 36q14 7 14 16.5t-21 19.5t-70.5 29t-78 32.5t-28.5 44.5q0 9 4.5 25.5t5.5 22.5q5 35 31.5 48t114.5 54q15 7 41 7t62 -20.5zM174 505q0 55 82 135q14 13 19.5 19.5t5.5 15.5t6 9q24 0 37.5 -28t13.5 -42q0 -28 -22 -46q-10 -13 -59 -46.5t-61.5 -33.5
t-17 6t-4.5 11z" />
    <glyph glyph-name="Scircumflex" unicode="&#x15c;" horiz-adv-x="419" 
d="M400 690q44 -52 44 -62t-10 -22q-47 -53 -110 -107q-14 -12 -21 -12q-10 0 -10 15.5t13.5 41.5t13.5 30t-3.5 4t-9.5 -2q-115 -41 -160 -129q-10 -20 -10 -33q0 -26 40 -49q6 -4 54 -29q97 -52 122 -84q40 -50 40 -98q0 -19 -10.5 -39.5t-26.5 -30.5q-169 -105 -301 -105
q-70 0 -70 64q0 21 14 40q-24 17 -24 36.5t27 39.5q64 48 206 48q15 0 36 -10.5t34 -22.5q25 14 25 25t-13 22q-19 14 -70.5 37t-65.5 31q-42 24 -64.5 69t-22.5 95.5t25.5 92t71.5 72.5q70 47 175 86q14 4 22 4q23 0 39 -18zM210 136q-10 2 -23 2t-50.5 -12t-37.5 -27
q0 -6 7 -6q27 0 104 43zM461 756q0 -12 -14.5 -12t-29.5 6t-30.5 23.5t-21 24t-22.5 35t-18 29.5q-21 -32 -62.5 -71.5t-64.5 -39.5q-18 0 -18 23t45 71q22 25 38.5 50t26.5 36t30 11t40 -19.5t34.5 -50.5t16 -33.5t12.5 -17t18 -24.5q20 -27 20 -41z" />
    <glyph glyph-name="scircumflex" unicode="&#x15d;" horiz-adv-x="322" 
d="M286 429.5q36 -20.5 36 -48t-21.5 -49.5t-48.5 -22q-41 0 -57 38q-2 6 -6.5 6t-33 -12t-38.5 -17t-10 -9.5t14 -11.5q178 -48 178 -147q0 -35 -27.5 -72.5t-77.5 -61.5t-96 -24t-64.5 25t-18.5 72t33 70q44 29 72 29q7 0 7 -3.5t-15.5 -12.5t-33 -26t-17.5 -27.5
t24 -10.5q64 0 126 36q14 7 14 16.5t-21 19.5t-70.5 29t-78 32.5t-28.5 44.5q0 9 4.5 25.5t5.5 22.5q5 35 31.5 48t114.5 54q15 7 41 7t62 -20.5zM335 500q0 -12 -14.5 -12t-29.5 6t-30.5 23.5t-21 24t-22.5 35t-18 29.5q-21 -32 -62.5 -71.5t-64.5 -39.5q-18 0 -18 23
t44 72q23 24 39.5 49t26.5 36t30 11t40 -19.5t34.5 -50.5t16 -33.5t12.5 -17t18 -23.5q20 -28 20 -42z" />
    <glyph glyph-name="Scedilla" unicode="&#x15e;" horiz-adv-x="419" 
d="M227 -151q-5 15 -71 33q-24 6 -43.5 25t-19.5 40.5t4 34.5q-21 -3 -42 -3q-70 0 -70 64q0 21 14 40q-24 17 -24 36.5t27 39.5q64 48 206 48q15 0 36 -10.5t34 -22.5q25 14 25 25t-13 22q-19 14 -70.5 37t-65.5 31q-42 24 -64.5 69t-22.5 95.5t25.5 92t71.5 72.5
q70 47 175 86q14 4 22 4q23 0 39 -18q44 -52 44 -62t-10 -22q-47 -53 -110 -107q-14 -12 -21 -12q-10 0 -10 15.5t13.5 41.5t13.5 30t-3.5 4t-9.5 -2q-115 -41 -160 -129q-10 -20 -10 -33q0 -26 40 -49q6 -4 54 -29q97 -52 122 -84q40 -50 40 -98q0 -19 -10.5 -39.5
t-26.5 -30.5q-105 -66 -191 -89q-10 -16 -10 -28t21.5 -19t47.5 -12t47.5 -26.5t21.5 -58.5q0 -63 -41.5 -91.5t-106.5 -28.5q-21 0 -31.5 2t-19.5 15.5t-9 43.5t21 30q4 0 6.5 -4t4.5 -4q75 6 100 21q10 6 10 12v2zM210 136q-10 2 -23 2t-50.5 -12t-37.5 -27q0 -6 7 -6
q27 0 104 43z" />
    <glyph glyph-name="scedilla" unicode="&#x15f;" horiz-adv-x="322" 
d="M199 -141q-5 15 -71 33q-24 6 -43.5 25t-19.5 43.5t7 39.5q-57 11 -57 89q0 54 33 77q44 29 72 29q7 0 7 -3.5t-15.5 -12.5t-33 -26t-17.5 -27.5t24 -10.5q64 0 126 36q14 7 14 16.5t-21 19.5t-70.5 29t-78 32.5t-28.5 44.5q0 9 4.5 25.5t5.5 22.5q5 35 31.5 48t114.5 54
q15 7 41 7t62 -20.5t36 -48t-21.5 -49.5t-48.5 -22q-41 0 -57 38q-2 6 -6.5 6t-33 -12t-38.5 -17t-10 -9.5t14 -11.5q178 -48 178 -147q0 -35 -23 -66q-51 -69 -140 -87q-9 -13 -9 -26t21.5 -20t47.5 -12t47.5 -26.5t21.5 -58.5q0 -63 -41.5 -91.5t-106.5 -28.5
q-21 0 -31.5 2t-19.5 15.5t-9 43.5t21 30q4 0 6.5 -4t4.5 -4q75 6 100 21q10 6 10 12v2z" />
    <glyph glyph-name="Scaron" unicode="&#x160;" horiz-adv-x="419" 
d="M400 690q44 -52 44 -62t-10 -22q-47 -53 -110 -107q-14 -12 -21 -12q-10 0 -10 15.5t13.5 41.5t13.5 30t-3.5 4t-9.5 -2q-115 -41 -160 -129q-10 -20 -10 -33q0 -26 40 -49q6 -4 54 -29q97 -52 122 -84q40 -50 40 -98q0 -19 -10.5 -39.5t-26.5 -30.5q-169 -105 -301 -105
q-70 0 -70 64q0 21 14 40q-24 17 -24 36.5t27 39.5q64 48 206 48q15 0 36 -10.5t34 -22.5q25 14 25 25t-13 22q-19 14 -70.5 37t-65.5 31q-42 24 -64.5 69t-22.5 95.5t25.5 92t71.5 72.5q70 47 175 86q14 4 22 4q23 0 39 -18zM210 136q-10 2 -23 2t-50.5 -12t-37.5 -27
q0 -6 7 -6q27 0 104 43zM326 744q-30 0 -52 24q0 6 -1.5 9.5t-26 41t-47 73.5t-22.5 43t11.5 7t21 -3.5t19 -12t16.5 -15t17 -21t15 -21.5q20 -29 28 -45q36 53 67.5 82t43.5 29t26.5 -14.5t14.5 -22.5t-7.5 -18.5t-25.5 -29.5t-27 -29.5t-23 -32.5t-24.5 -33t-23.5 -11z
" />
    <glyph glyph-name="scaron" unicode="&#x161;" horiz-adv-x="322" 
d="M286 429.5q36 -20.5 36 -48t-21.5 -49.5t-48.5 -22q-41 0 -57 38q-2 6 -6.5 6t-33 -12t-38.5 -17t-10 -9.5t14 -11.5q178 -48 178 -147q0 -35 -27.5 -72.5t-77.5 -61.5t-96 -24t-64.5 25t-18.5 72t33 70q44 29 72 29q7 0 7 -3.5t-15.5 -12.5t-33 -26t-17.5 -27.5
t24 -10.5q64 0 126 36q14 7 14 16.5t-21 19.5t-70.5 29t-78 32.5t-28.5 44.5q0 9 4.5 25.5t5.5 22.5q5 35 31.5 48t114.5 54q15 7 41 7t62 -20.5zM200 488q-30 0 -52 24q0 6 -1.5 9.5t-26 41t-47 73.5t-22.5 43t11.5 7t21 -3.5t19 -12t16.5 -15t17 -21t14 -20.5
q21 -30 29 -46q36 53 67.5 82t43.5 29t26.5 -14.5t14.5 -22.5t-7.5 -18.5t-25.5 -29.5t-27 -29.5t-23 -32.5t-24.5 -33t-23.5 -11z" />
    <glyph glyph-name="Tcommaaccent" unicode="&#x162;" horiz-adv-x="381" 
d="M176 132l-3 79q0 188 60 355q-43 5 -52 5q-40 0 -65.5 -15.5t-51.5 -36.5q-38 -32 -79 -32q-17 0 -26 7.5t-11 15.5t-3 24t-3 25t-2 18t15 22q86 76 257 76q33 0 66 -3l8 18q5 -7 13 -19h19q94 0 206 38q8 2 11 2q16 0 16 -17t-18 -35q-89 -98 -237 -96q-25 -97 -34 -237
t-11 -159t-2 -33t9 -55t9 -47q0 -29 -30 -29q-46 0 -96 102q-10 18 -10 34.5t8 16.5t19.5 -16t14.5 -16t3 8zM130.5 -258.5q-5.5 6.5 -5.5 15.5t24.5 48t24.5 63q-12 14 -12 24.5t16.5 19t33.5 8.5t30.5 -14t13.5 -34q0 -34 -44 -85.5t-67 -51.5q-9 0 -14.5 6.5z" />
    <glyph glyph-name="tcommaaccent" unicode="&#x163;" horiz-adv-x="269" 
d="M164 440l79 4q31 0 31 -40q0 -20 -13 -30q-32 -29 -110 -40q-10 -95 -10 -158t9 -63q6 0 42 32t40 32q17 0 17 -51.5t-19 -101.5t-54 -50q-15 0 -30 10.5t-22.5 21t-21 31.5t-16.5 25q-27 37 -29.5 73.5t-2.5 85.5t6 106q-31 1 -51.5 22t-32 50.5t-11.5 33.5q0 13 15 13
l96 -6q5 31 16 86q17 80 17 93l-2 19q0 16 18 16t44 -18t26 -34q0 -7 -7 -28q-9 -32 -24 -134zM74.5 -258.5q-5.5 6.5 -5.5 15.5t24.5 48t24.5 63q-12 14 -12 24.5t16.5 19t33.5 8.5t30.5 -14t13.5 -34q0 -34 -44 -85.5t-67 -51.5q-9 0 -14.5 6.5z" />
    <glyph glyph-name="Tcaron" unicode="&#x164;" horiz-adv-x="381" 
d="M176 132l-3 79q0 188 60 355q-43 5 -52 5q-40 0 -65.5 -15.5t-51.5 -36.5q-38 -32 -79 -32q-17 0 -26 7.5t-11 15.5t-3 24t-3 25t-2 18t15 22q86 76 257 76q33 0 66 -3l8 18q5 -7 13 -19h19q94 0 206 38q8 2 11 2q16 0 16 -17t-18 -35q-89 -98 -237 -96q-25 -97 -34 -237
t-11 -159t-2 -33t9 -55t9 -47q0 -29 -30 -29q-46 0 -96 102q-10 18 -10 34.5t8 16.5t19.5 -16t14.5 -16t3 8zM284 711q-30 0 -52 24q0 6 -1.5 9.5t-26 41t-47 73.5t-22.5 43t11.5 7t21 -3.5t19 -12t16.5 -15t17 -21t15 -21.5q20 -29 28 -45q36 53 67.5 82t43.5 29
t26.5 -14.5t14.5 -22.5t-7.5 -18.5t-25.5 -29.5t-27 -29.5t-23 -32.5t-24.5 -33t-23.5 -11z" />
    <glyph glyph-name="tcaron" unicode="&#x165;" horiz-adv-x="269" 
d="M164 440l79 4q31 0 31 -40q0 -20 -13 -30q-32 -29 -110 -40q-10 -95 -10 -158t9 -63q6 0 42 32t40 32q17 0 17 -51.5t-19 -101.5t-54 -50q-15 0 -30 10.5t-22.5 21t-21 31.5t-16.5 25q-27 37 -29.5 73.5t-2.5 85.5t6 106q-31 1 -51.5 22t-32 50.5t-11.5 33.5q0 13 15 13
l96 -6q5 31 16 86q17 80 17 93l-2 19q0 16 18 16t44 -18t26 -34q0 -7 -7 -28q-9 -32 -24 -134zM232 526l8 88q0 22 -12 45.5t-12 28.5q0 12 26.5 12t54.5 -25.5t28 -58.5t-27.5 -79.5t-47.5 -46.5q-18 0 -18 36z" />
    <glyph glyph-name="Tbar" unicode="&#x166;" horiz-adv-x="381" 
d="M86 411l104 -4q16 84 43 159q-43 5 -52 5q-40 0 -65.5 -15.5t-51.5 -36.5q-38 -32 -79 -32q-17 0 -26 7.5t-11 15.5t-3 24t-3 25t-2 18t15 22q86 76 257 76q33 0 66 -3l8 18q5 -7 13 -19h19q94 0 206 38q8 2 11 2q16 0 16 -16q0 -13 -18 -36q-93 -98 -237 -96
q-17 -64 -27 -157q41 2 72 8t42.5 6t20.5 -19t9 -32t-12 -22t-35 -13q-31 -4 -88 -4h-17q-2 -26 -5.5 -86t-5 -77.5t-1.5 -32t9 -55.5t9 -47q0 -29 -30 -29q-51 0 -96 102q-10 18 -10 34.5t8 16.5t19.5 -16t14.5 -16t3 8l-3 79q0 59 6 116q-56 -2 -76 -2t-24.5 3.5
t-8.5 10.5t-6 12q-8 20 -8 24v8q0 16 7 22t23 6z" />
    <glyph glyph-name="tbar" unicode="&#x167;" horiz-adv-x="269" 
d="M166 448l79 4q31 0 31 -40q0 -20 -13 -30q-32 -29 -110 -40q-1 -9 -3.5 -31t-3.5 -35q23 2 41.5 7.5t24.5 5.5q10 0 16.5 -19t6.5 -32t-8.5 -22.5t-26.5 -12.5q-25 -4 -59 -4v-38q0 -48 9 -48q6 0 42 25t40 25q17 0 17 -50.5t-19 -94.5t-54 -44q-15 0 -30 10.5t-22.5 21
t-21 31.5t-16.5 25q-27 37 -29.5 69.5t-2.5 63.5q-14 -1 -45 -1q-12 0 -23 50v8q0 16 5 22t22 6t43 -2q1 6 2 18q2 21 4 39q-31 1 -51.5 22t-32 50.5t-11.5 33.5q0 13 15 13l96 -6q5 31 16 84q15 73 15 87l-2 19q0 16 18 16t44 -18t26 -34q0 -7 -7 -28q-8 -27 -22 -126z" />
    <glyph glyph-name="Utilde" unicode="&#x168;" horiz-adv-x="563" 
d="M486 648q-56 -171 -56 -354t28 -183q6 0 11 5q58 60 64 136q0 20 5 20t15 -16.5t10 -59.5t-34.5 -111t-77.5 -68q-24 0 -44 19t-27 49.5t-12.5 71t-10.5 90.5t-9 77q-7 -27 -26 -109t-30 -122q-27 -92 -85 -92q-28 0 -49 16.5t-26 43.5q-12 56 -12 134.5t18.5 162.5
t38 145.5t19.5 72.5t-5 11t-16 -12t-25.5 -34.5t-22 -38t-21.5 -47.5t-20 -44q-14 -29 -36.5 -29t-36 27t-13.5 50t17 42q64 72 133 193l14 -11q23 7 28.5 7t12.5 -2.5t25 -7.5t24.5 -7.5t18.5 -9t16 -13.5q12 -23 12 -50t-6 -51.5t-46 -168t-49 -221.5v-9q0 -17 6 -17
t12 16q74 180 159 440q6 20 6 30l-7 30q0 11 11 17q16 11 44.5 23t44.5 12t16 -16.5t-6 -36.5zM320.5 858.5q35.5 -28.5 47.5 -28.5t21.5 12t16.5 24.5t19 12.5t22 -18.5t10 -34.5q0 -33 -22.5 -54t-50.5 -21t-66.5 29.5t-51 29.5t-21 -15t-17.5 -30t-21 -15t-19 13.5
t-7 28.5q0 37 27 66t52 29t60.5 -28.5z" />
    <glyph glyph-name="utilde" unicode="&#x169;" horiz-adv-x="338" 
d="M42 455l48 9q23 0 43 -17q2 -2 12.5 -10t16.5 -13q16 -15 16 -25.5t-18 -60.5t-38 -106q-26 -69 -26 -76t5 -7q8 0 60 95t79 149q10 19 28 19q42 0 42 -35q0 -20 -26 -113q-33 -123 -33 -133.5t5.5 -10.5t22.5 52.5t24 52.5q4 0 10 -9q25 -52 25 -96t-31 -101
q-14 -27 -39 -27q-16 0 -23 8q-20 23 -24 31q-19 24 -31 86q-7 -13 -18 -37q-23 -53 -42 -77q-12 -17 -30.5 -17t-40.5 26q-33 45 -33.5 101t11 105t35.5 119l3 12q0 8 -7 8l-23 -6q-17 0 -24 20q-16 36 -16 78q0 12 10 12zM210.5 618.5q35.5 -28.5 47.5 -28.5t21.5 12
t16.5 24.5t19 12.5t22 -18.5t10 -34.5q0 -33 -22.5 -54t-50.5 -21t-66.5 29.5t-51 29.5t-21 -15t-17.5 -30t-21 -15t-19 13.5t-7 28.5q0 37 27 66t52 29t60.5 -28.5z" />
    <glyph glyph-name="Umacron" unicode="&#x16a;" horiz-adv-x="563" 
d="M486 648q-56 -171 -56 -354t28 -183q6 0 11 5q58 60 64 136q0 20 5 20t15 -16.5t10 -59.5t-34.5 -111t-77.5 -68q-24 0 -44 19t-27 49.5t-12.5 71t-10.5 90.5t-9 77q-7 -27 -26 -109t-30 -122q-27 -92 -85 -92q-28 0 -49 16.5t-26 43.5q-12 56 -12 134.5t18.5 162.5
t38 145.5t19.5 72.5t-5 11t-16 -12t-25.5 -34.5t-22 -38t-21.5 -47.5t-20 -44q-14 -29 -36.5 -29t-36 27t-13.5 50t17 42q64 72 133 193l14 -11q23 7 28.5 7t12.5 -2.5t25 -7.5t24.5 -7.5t18.5 -9t16 -13.5q12 -23 12 -50t-6 -51.5t-46 -168t-49 -221.5v-9q0 -17 6 -17
t12 16q74 180 159 440q6 20 6 30l-7 30q0 11 11 17q16 11 44.5 23t44.5 12t16 -16.5t-6 -36.5zM220 861l105 -5q43 0 68.5 7t31.5 7q10 0 16.5 -19t6.5 -32t-8.5 -22.5t-27.5 -12.5q-24 -4 -58 -4l-132 -5q-12 0 -23 50v8q0 16 5 22t16 6z" />
    <glyph glyph-name="umacron" unicode="&#x16b;" horiz-adv-x="338" 
d="M42 455l48 9q23 0 43 -17q2 -2 12.5 -10t16.5 -13q16 -15 16 -25.5t-18 -60.5t-38 -106q-26 -69 -26 -76t5 -7q8 0 60 95t79 149q10 19 28 19q42 0 42 -35q0 -20 -26 -113q-33 -123 -33 -133.5t5.5 -10.5t22.5 52.5t24 52.5q4 0 10 -9q25 -52 25 -96t-31 -101
q-14 -27 -39 -27q-16 0 -23 8q-20 23 -24 31q-19 24 -31 86q-7 -13 -18 -37q-23 -53 -42 -77q-12 -17 -30.5 -17t-40.5 26q-33 45 -33.5 101t11 105t35.5 119l3 12q0 8 -7 8l-23 -6q-17 0 -24 20q-16 36 -16 78q0 12 10 12zM110 621l105 -5q43 0 68.5 7t31.5 7
q10 0 16.5 -19t6.5 -32t-8.5 -22.5t-27.5 -12.5q-24 -4 -58 -4l-132 -5q-12 0 -23 50v8q0 16 5 22t16 6z" />
    <glyph glyph-name="Ubreve" unicode="&#x16c;" horiz-adv-x="563" 
d="M486 648q-56 -171 -56 -354t28 -183q6 0 11 5q58 60 64 136q0 20 5 20t15 -16.5t10 -59.5t-34.5 -111t-77.5 -68q-24 0 -44 19t-27 49.5t-12.5 71t-10.5 90.5t-9 77q-7 -27 -26 -109t-30 -122q-27 -92 -85 -92q-28 0 -49 16.5t-26 43.5q-12 56 -12 134.5t18.5 162.5
t38 145.5t19.5 72.5t-5 11t-16 -12t-25.5 -34.5t-22 -38t-21.5 -47.5t-20 -44q-14 -29 -36.5 -29t-36 27t-13.5 50t17 42q64 72 133 193l14 -11q23 7 28.5 7t12.5 -2.5t25 -7.5t24.5 -7.5t18.5 -9t16 -13.5q12 -23 12 -50t-6 -51.5t-46 -168t-49 -221.5v-9q0 -17 6 -17
t12 16q74 180 159 440q6 20 6 30l-7 30q0 11 11 17q16 11 44.5 23t44.5 12t16 -16.5t-6 -36.5zM176 913q27 0 57 -45q11 -16 29.5 -30t43 -14t44 14.5t28.5 31.5q24 46 50 46q9 0 22.5 -14.5t13.5 -21.5q0 -32 -36 -83.5t-96.5 -51.5t-114.5 57t-54 93q0 18 13 18z" />
    <glyph glyph-name="ubreve" unicode="&#x16d;" horiz-adv-x="338" 
d="M42 455l48 9q23 0 43 -17q2 -2 12.5 -10t16.5 -13q16 -15 16 -25.5t-18 -60.5t-38 -106q-26 -69 -26 -76t5 -7q8 0 60 95t79 149q10 19 28 19q42 0 42 -35q0 -20 -26 -113q-33 -123 -33 -133.5t5.5 -10.5t22.5 52.5t24 52.5q4 0 10 -9q25 -52 25 -96t-31 -101
q-14 -27 -39 -27q-16 0 -23 8q-20 23 -24 31q-19 24 -31 86q-7 -13 -18 -37q-23 -53 -42 -77q-12 -17 -30.5 -17t-40.5 26q-33 45 -33.5 101t11 105t35.5 119l3 12q0 8 -7 8l-23 -6q-17 0 -24 20q-16 36 -16 78q0 12 10 12zM66 673q27 0 57 -45q11 -16 29.5 -30t43 -14
t44 14.5t28.5 31.5q24 46 50 46q9 0 22.5 -14.5t13.5 -21.5q0 -32 -36 -83.5t-96.5 -51.5t-114.5 57t-54 93q0 18 13 18z" />
    <glyph glyph-name="Uring" unicode="&#x16e;" horiz-adv-x="563" 
d="M486 648q-56 -171 -56 -354t28 -183q6 0 11 5q58 60 64 136q0 20 5 20t15 -16.5t10 -59.5t-34.5 -111t-77.5 -68q-24 0 -44 19t-27 49.5t-12.5 71t-10.5 90.5t-9 77q-7 -27 -26 -109t-30 -122q-27 -92 -85 -92q-28 0 -49 16.5t-26 43.5q-12 56 -12 134.5t18.5 162.5
t38 145.5t19.5 72.5t-5 11t-16 -12t-25.5 -34.5t-22 -38t-21.5 -47.5t-20 -44q-14 -29 -36.5 -29t-36 27t-13.5 50t17 42q64 72 133 193l14 -11q23 7 28.5 7t12.5 -2.5t25 -7.5t24.5 -7.5t18.5 -9t16 -13.5q12 -23 12 -50t-6 -51.5t-46 -168t-49 -221.5v-9q0 -17 6 -17
t12 16q74 180 159 440q6 20 6 30l-7 30q0 11 11 17q16 11 44.5 23t44.5 12t16 -16.5t-6 -36.5zM355 981q41 0 71 -32.5t30 -78.5q0 -39 -27 -87q-14 -25 -42.5 -41.5t-65.5 -16.5q-59 0 -88.5 44t-29.5 86q0 77 94 114v1q0 11 58 11zM318 916q-17 0 -33.5 -17t-16.5 -42
q0 -55 51 -55q31 0 49 19t18 44q0 15 -6 21t-9.5 9t-11.5 6.5t-12 4.5q-18 7 -29 10z" />
    <glyph glyph-name="uring" unicode="&#x16f;" horiz-adv-x="338" 
d="M42 455l48 9q23 0 43 -17q2 -2 12.5 -10t16.5 -13q16 -15 16 -25.5t-18 -60.5t-38 -106q-26 -69 -26 -76t5 -7q8 0 60 95t79 149q10 19 28 19q42 0 42 -35q0 -20 -26 -113q-33 -123 -33 -133.5t5.5 -10.5t22.5 52.5t24 52.5q4 0 10 -9q25 -52 25 -96t-31 -101
q-14 -27 -39 -27q-16 0 -23 8q-20 23 -24 31q-19 24 -31 86q-7 -13 -18 -37q-23 -53 -42 -77q-12 -17 -30.5 -17t-40.5 26q-33 45 -33.5 101t11 105t35.5 119l3 12q0 8 -7 8l-23 -6q-17 0 -24 20q-16 36 -16 78q0 12 10 12zM245 741q41 0 71 -32.5t30 -78.5q0 -39 -27 -87
q-14 -25 -42.5 -41.5t-65.5 -16.5q-59 0 -88.5 44t-29.5 86q0 77 94 114v1q0 11 58 11zM208 676q-17 0 -33.5 -17t-16.5 -42q0 -55 51 -55q31 0 49 19t18 44q0 15 -6 21t-9.5 9t-11.5 6.5t-12 4.5q-18 7 -29 10z" />
    <glyph glyph-name="Uhungarumlaut" unicode="&#x170;" horiz-adv-x="563" 
d="M486 648q-56 -171 -56 -354t28 -183q6 0 11 5q58 60 64 136q0 20 5 20t15 -16.5t10 -59.5t-34.5 -111t-77.5 -68q-24 0 -44 19t-27 49.5t-12.5 71t-10.5 90.5t-9 77q-7 -27 -26 -109t-30 -122q-27 -92 -85 -92q-28 0 -49 16.5t-26 43.5q-12 56 -12 134.5t18.5 162.5
t38 145.5t19.5 72.5t-5 11t-16 -12t-25.5 -34.5t-22 -38t-21.5 -47.5t-20 -44q-14 -29 -36.5 -29t-36 27t-13.5 50t17 42q64 72 133 193l14 -11q23 7 28.5 7t12.5 -2.5t25 -7.5t24.5 -7.5t18.5 -9t16 -13.5q12 -23 12 -50t-6 -51.5t-46 -168t-49 -221.5v-9q0 -17 6 -17
t12 16q74 180 159 440q6 20 6 30l-7 30q0 11 11 17q16 11 44.5 23t44.5 12t16 -16.5t-6 -36.5zM288 917l-1 9q0 6 14 6t30 -18q23 -27 23 -47.5t-14 -38.5q-7 -15 -42.5 -54t-49.5 -39q-19 0 -19 33.5t31 87.5q4 7 9.5 17t8 14.5t5.5 10.5q5 10 5 19zM408 861q10 11 17 27
t11 24.5t11 8.5q24 0 37.5 -28t13.5 -42q0 -28 -22 -46q-10 -13 -50.5 -41.5t-53 -28.5t-17 6t-4.5 11q0 48 57 109z" />
    <glyph glyph-name="uhungarumlaut" unicode="&#x171;" horiz-adv-x="338" 
d="M42 455l48 9q23 0 43 -17q2 -2 12.5 -10t16.5 -13q16 -15 16 -25.5t-18 -60.5t-38 -106q-26 -69 -26 -76t5 -7q8 0 60 95t79 149q10 19 28 19q42 0 42 -35q0 -20 -26 -113q-33 -123 -33 -133.5t5.5 -10.5t22.5 52.5t24 52.5q4 0 10 -9q25 -52 25 -96t-31 -101
q-14 -27 -39 -27q-16 0 -23 8q-20 23 -24 31q-19 24 -31 86q-7 -13 -18 -37q-23 -53 -42 -77q-12 -17 -30.5 -17t-40.5 26q-33 45 -33.5 101t11 105t35.5 119l3 12q0 8 -7 8l-23 -6q-17 0 -24 20q-16 36 -16 78q0 12 10 12zM178 677l-1 9q0 6 14 6t30 -18q23 -27 23 -47.5
t-14 -38.5q-7 -15 -42.5 -54t-49.5 -39q-19 0 -19 33.5t31 87.5q4 7 9.5 17t8 14.5t5.5 10.5q5 10 5 19zM298 621q10 11 17 27t11 24.5t11 8.5q24 0 37.5 -28t13.5 -42q0 -28 -22 -46q-10 -13 -50.5 -41.5t-53 -28.5t-17 6t-4.5 11q0 48 57 109z" />
    <glyph glyph-name="Uogonek" unicode="&#x172;" horiz-adv-x="563" 
d="M486 648q-56 -176 -56 -356.5t28 -180.5q6 0 11 5q58 60 64 136q0 20 5 20t15 -16.5t10 -53.5t-25 -89.5t-64 -89.5q-16 -15 -29 -51t-13 -59t14 -31q32 0 77.5 21.5t57.5 21.5q8 0 15 -20t7 -32q-9 -38 -46 -61.5t-96 -23.5q-27 0 -62.5 34.5t-35.5 70.5t13.5 77.5
t32.5 63.5q-22 18 -29 50t-12.5 72.5t-10.5 90.5t-9 77q-7 -27 -26 -109t-30 -122q-27 -92 -85 -92q-28 0 -48.5 16.5t-26.5 43.5q-12 63 -12 138t18.5 159t38 145.5t19.5 72.5t-6 11t-13 -9t-17.5 -23.5t-17 -25.5t-16 -30.5t-13.5 -27.5q-15 -30 -27 -60q-15 -29 -37 -29
t-35.5 27t-13.5 50t17 42q64 72 133 193l14 -11q23 7 28.5 7t12.5 -2.5t25 -7.5t24.5 -7.5t18.5 -9t16 -13.5q12 -23 12 -50t-6 -52.5t-46 -167t-49 -219.5v-11q0 -17 6 -17q8 0 12 16q4 8 60 155q61 170 99 285q6 20 6 30l-7 30q0 11 11 17q16 11 44.5 23t44.5 12t16 -19
t-6 -34z" />
    <glyph glyph-name="uogonek" unicode="&#x173;" horiz-adv-x="338" 
d="M42 455l48 9q23 0 43 -17q2 -2 12.5 -10t16.5 -13q16 -15 16 -29t-81 -230q-1 -2 -1 -9t5 -7q8 0 60 95t79 149q10 19 28 19q42 0 42 -35q0 -20 -26 -113q-33 -123 -33 -133.5t5.5 -10.5t22.5 52.5t24 52.5q4 0 10 -9q25 -52 25 -101q0 -43 -32 -83l-16 -20
q-12 -15 -21 -26.5t-20.5 -42t-11.5 -52t14 -29.5q32 0 77.5 21.5t57.5 21.5q8 0 15 -20t7 -32q-9 -38 -46 -61.5t-96 -23.5q-27 0 -62.5 34.5t-35.5 74.5q0 76 58 148q-16 16 -21 33q-10 34 -15 59q-7 -13 -18 -37q-23 -53 -42 -77q-12 -17 -30.5 -17t-40.5 26
q-33 45 -33 93v9q-1 55 10.5 104t35.5 119l3 12q0 8 -7 8l-23 -6q-17 0 -24 20q-16 36 -16 78q0 12 10 12z" />
    <glyph glyph-name="Wcircumflex" unicode="&#x174;" horiz-adv-x="611" 
d="M505 702q81 -146 81 -313t-92 -324q-32 -55 -90 -55q-63 0 -87 73q-11 33 -17.5 72.5t-8.5 49.5q-8 -16 -28.5 -66.5t-34.5 -76.5q-21 -42 -60 -42q-29 0 -52 22q-19 20 -24 78q-1 19 -2.5 35t-1.5 30t3 34t6.5 38t11.5 43t14 42.5t17.5 45.5t17.5 42.5t19.5 43.5
t18.5 40q13 31 33 71q-65 -69 -139 -95q-21 -7 -42.5 -7t-34.5 17t-13 48t38.5 67t86.5 57t86.5 21t72 -25t33.5 -66q0 -15 -11.5 -46t-44.5 -112q-72 -179 -96 -282q-2 -8 -2 -15.5t7 -7.5q30 0 120 271q-7 9 -7 18q0 13 24 13q49 0 66 -2t17 -11t-7 -14q-11 -117 -11 -157
t8 -103t25 -63q15 0 30 37q67 147 67 288.5t-74 261.5q-11 16 -11 31q0 24 35 24t53 -31zM165 645q-67 -11 -100 -44q-11 -11 -11 -20t12 -9q33 0 99 73zM511 779q0 -12 -14.5 -12t-29.5 6t-30.5 23.5t-21 24t-22.5 35t-18 29.5q-21 -32 -62.5 -71.5t-64.5 -39.5
q-18 0 -18 23t45 71q22 25 38.5 50t26.5 36t30 11t40 -19.5t34.5 -50.5t16 -33.5t12.5 -17t18 -24.5q20 -27 20 -41z" />
    <glyph glyph-name="wcircumflex" unicode="&#x175;" horiz-adv-x="411" 
d="M214 323h15t12 -0.5t9 -1t7.5 -2t6.5 -4t4 -5.5q5 -5 5 -13t-5 -55t-5 -75q0 -80 11 -80q4 0 10 12q30 61 30 166q0 103 -9.5 123t-18.5 27.5t-16.5 13.5t-7.5 9q0 10 17 10h15q22 -1 37 -33q62 -131 62 -250q0 -55 -12 -100q-23 -83 -80 -83q-22 0 -46 17.5t-36.5 45.5
t-20.5 73q-11 -36 -36 -80.5t-47 -44.5q-8 0 -16 6q-62 46 -62 162q0 63 17 117q6 17 23 63q-38 -25 -55.5 -25t-27.5 22q-14 30 -14 80q0 12 10 12l14 -2q10 0 43 16t45 16q28 0 46 -34.5t18 -57t-5 -46t-24 -92.5q-27 -99 -27 -110.5t4 -11.5t11 10q40 62 70 181
q6 24 29 24zM351 507q0 -12 -14.5 -12t-29.5 6t-30.5 23.5t-21 24t-22.5 35t-18 29.5q-21 -32 -62.5 -71.5t-64.5 -39.5q-18 0 -18 23t44 71q23 25 39.5 50t26.5 36t30 11t40 -19.5t34.5 -50.5t16 -33.5t12.5 -17t18 -24.5q20 -27 20 -41z" />
    <glyph glyph-name="Ycircumflex" unicode="&#x176;" horiz-adv-x="517" 
d="M522 727q65 0 65 -22q0 -9 -9 -25q-123 -215 -155 -480q-11 -86 -11 -120q0 -17 12 -17q4 0 7 10t6 10q7 0 19.5 -22.5t12.5 -33.5q0 -29 -47 -132q-17 -39 -37 -39q-4 0 -12 4q-42 25 -42 134.5t30 295.5q-8 -10 -28 -38.5t-33.5 -45t-34.5 -36.5q-41 -41 -86 -41
t-75 32q-9 10 -27.5 48.5t-18.5 83t20.5 93.5t41.5 86.5t36 61.5q28 41 87 127q6 10 6 16q0 14 -23.5 14t-43.5 -9t-23 -13t-5 -14l1 -13q0 -23 -17.5 -40.5t-37.5 -32t-45 -14.5t-34.5 4.5t-14.5 14.5q-6 14 -6 44t23 46q3 2 28 18.5t32.5 21.5t30 17.5t35.5 16.5
q42 15 76.5 15t65.5 -25.5t31 -67.5q0 -27 -17.5 -66.5t-69 -116t-66.5 -101.5q-39 -71 -39 -110t18 -39q17 0 49 28.5t49 47.5t40.5 52t34 50t33.5 55t36 59q55 93 89 157q-2 10 -2 17q0 34 45 34zM558 778q0 -12 -14.5 -12t-29.5 6t-30.5 23.5t-21 24t-22.5 35t-18 29.5
q-21 -32 -62.5 -71.5t-64.5 -39.5q-18 0 -18 23t45 71q22 25 38.5 50t26.5 36t30 11t40 -19.5t34.5 -50.5t16 -33.5t12.5 -17t18 -24.5q20 -27 20 -41z" />
    <glyph glyph-name="ycircumflex" unicode="&#x177;" horiz-adv-x="379" 
d="M-2 407q0 15 20 13h15t38 9.5t46 9.5t32.5 -13.5t28.5 -34.5t13 -43.5t-43.5 -119t-43.5 -103.5t8 -7q16 0 67 58q11 13 24.5 34.5t20.5 32.5t19.5 38t16.5 35q19 40 33 76q8 17 24 17t30 -19t14 -38q0 -33 -52 -278t-57.5 -272t-10.5 -122q0 -31 -21 -31q-7 0 -13 3
q-73 30 -73 128v67q0 21 13 21q12 0 25.5 -17t14.5 -19l54 267q-45 -54 -71 -72.5t-62.5 -18.5t-58.5 34t-22 77q0 89 63 210q-28 -7 -45.5 -7t-25.5 18q-4 8 -12.5 34.5t-8.5 32.5zM372 487q0 -12 -14.5 -12t-29.5 6t-30.5 23.5t-21 24t-22.5 35t-18 29.5
q-21 -32 -62.5 -71.5t-64.5 -39.5q-18 0 -18 23t45 71q22 25 38.5 50t26.5 36t30 11t40 -19.5t34.5 -50.5t16 -33.5t12.5 -17t18 -24.5q20 -27 20 -41z" />
    <glyph glyph-name="Ydieresis" unicode="&#x178;" horiz-adv-x="517" 
d="M522 727q65 0 65 -22q0 -9 -9 -25q-123 -215 -155 -480q-11 -86 -11 -120q0 -17 12 -17q4 0 7 10t6 10q7 0 19.5 -22.5t12.5 -33.5q0 -29 -47 -132q-17 -39 -37 -39q-4 0 -12 4q-42 25 -42 134.5t30 295.5q-8 -10 -28 -38.5t-33.5 -45t-34.5 -36.5q-41 -41 -86 -41
t-75 32q-9 10 -27.5 48.5t-18.5 83t20.5 93.5t41.5 86.5t36 61.5q28 41 87 127q6 10 6 16q0 14 -23.5 14t-43.5 -9t-23 -13t-5 -14l1 -13q0 -23 -17.5 -40.5t-37.5 -32t-45 -14.5t-34.5 4.5t-14.5 14.5q-6 14 -6 44t23 46q3 2 28 18.5t32.5 21.5t30 17.5t35.5 16.5
q42 15 76.5 15t65.5 -25.5t31 -67.5q0 -27 -17.5 -66.5t-69 -116t-66.5 -101.5q-39 -71 -39 -110t18 -39q17 0 49 28.5t49 47.5t40.5 52t34 50t33.5 55t36 59q55 93 89 157q-2 10 -2 17q0 34 45 34zM547 878q3 -10 3 -27.5t-16 -36t-40.5 -18.5t-39.5 15.5t-15 38.5t14 44.5
t48 21.5t46 -38zM338 919q18 0 34.5 -17.5t16.5 -43t-14 -44t-35 -18.5t-35 19.5t-14 47.5q0 56 47 56z" />
    <glyph glyph-name="Zacute" unicode="&#x179;" horiz-adv-x="436" 
d="M292 671l29 1q105 0 139 -87q6 -17 6 -34q0 -47 -42 -90.5t-120.5 -110.5t-110.5 -98q-75 -72 -75 -118q0 -28 37 -28q74 0 236 27l9 1q13 0 13 -13t-6 -29q-26 -86 -195 -86q-58 0 -95 14t-57 60q-12 26 -12 55q0 58 49.5 117t141.5 156.5t118 128t26 38.5q0 17 -71 17
q-37 0 -107 -6q-57 -34 -147 -34q-25 0 -36.5 7.5t-11.5 35.5t7.5 46t38 31.5t98 37.5t81.5 24t19.5 -7.5t11.5 -24.5l7 -17q6 -14 19 -14zM254 786q0 55 82 134q14 14 19.5 20.5t5.5 15.5t6 9q24 0 37.5 -28t13.5 -42q0 -28 -22 -46q-10 -13 -59 -46.5t-61.5 -33.5t-17 6
t-4.5 11z" />
    <glyph glyph-name="zacute" unicode="&#x17a;" horiz-adv-x="303" 
d="M144 428l20 1q51 0 78 -16t51 -61q10 -17 10 -35.5t-14 -32.5q-33 -35 -103.5 -93t-84.5 -70l95 4q30 0 42 -4.5t16 -14t4 -31.5t-19 -25q-31 -6 -122 -39q-19 -7 -39 -7t-34 21q-29 52 -29 78t17 48q31 38 98 102.5t77 75.5q-128 -21 -144 -21t-25 3.5t-14 13.5
q-14 28 -14 54q0 42 82 75q6 3 13 3q13 0 15 -16q3 -13 24 -13zM154 512q0 55 82 134q14 14 19.5 20.5t5.5 15.5t6 9q24 0 37.5 -28t13.5 -42q0 -28 -22 -46q-10 -13 -59 -46.5t-61.5 -33.5t-17 6t-4.5 11z" />
    <glyph glyph-name="Zdotaccent" unicode="&#x17b;" horiz-adv-x="436" 
d="M292 671l29 1q105 0 139 -87q6 -17 6 -34q0 -47 -42 -90.5t-120.5 -110.5t-110.5 -98q-75 -72 -75 -118q0 -28 37 -28q74 0 236 27l9 1q13 0 13 -13t-6 -29q-26 -86 -195 -86q-58 0 -95 14t-57 60q-12 26 -12 55q0 58 49.5 117t141.5 156.5t118 128t26 38.5q0 17 -71 17
q-37 0 -107 -6q-57 -34 -147 -34q-25 0 -36.5 7.5t-11.5 35.5t7.5 46t38 31.5t98 37.5t81.5 24t19.5 -7.5t11.5 -24.5l7 -17q6 -14 19 -14zM224.5 906q15.5 19 43.5 19t46.5 -21.5t18.5 -50.5t-15.5 -46.5t-44.5 -17.5t-46.5 22t-17.5 49t15.5 46z" />
    <glyph glyph-name="zdotaccent" unicode="&#x17c;" horiz-adv-x="303" 
d="M144 428l20 1q51 0 78 -16t51 -61q10 -17 10 -35.5t-14 -32.5q-33 -35 -103.5 -93t-84.5 -70l95 4q30 0 42 -4.5t16 -14t4 -31.5t-19 -25q-31 -6 -122 -39q-19 -7 -39 -7t-34 21q-29 52 -29 78t17 48q31 38 98 102.5t77 75.5q-128 -21 -144 -21t-25 3.5t-14 13.5
q-14 28 -14 54q0 42 82 75q6 3 13 3q13 0 15 -16q3 -13 24 -13zM124.5 632q15.5 19 43.5 19t46.5 -21.5t18.5 -50.5t-15.5 -46.5t-44.5 -17.5t-46.5 22t-17.5 49t15.5 46z" />
    <glyph glyph-name="Zcaron" unicode="&#x17d;" horiz-adv-x="436" 
d="M292 671l29 1q105 0 139 -87q6 -17 6 -34q0 -47 -42 -90.5t-120.5 -110.5t-110.5 -98q-75 -72 -75 -118q0 -28 37 -28q74 0 236 27l9 1q13 0 13 -13t-6 -29q-26 -86 -195 -86q-58 0 -95 14t-57 60q-12 26 -12 55q0 58 49.5 117t141.5 156.5t118 128t26 38.5q0 17 -71 17
q-37 0 -107 -6q-57 -34 -147 -34q-25 0 -36.5 7.5t-11.5 35.5t7.5 46t38 31.5t98 37.5t81.5 24t19.5 -7.5t11.5 -24.5l7 -17q6 -14 19 -14zM290 769q-30 0 -52 24q0 6 -1.5 9.5t-26 41t-47 73.5t-22.5 43t11.5 7t21 -3.5t19 -12t16.5 -15t17 -21t15 -21.5q20 -29 28 -45
q36 53 67.5 82t43.5 29t26.5 -14.5t14.5 -22.5t-7.5 -18.5t-25.5 -29.5t-27 -29.5t-23 -32.5t-24.5 -33t-23.5 -11z" />
    <glyph glyph-name="zcaron" unicode="&#x17e;" horiz-adv-x="303" 
d="M144 428l20 1q51 0 78 -16t51 -61q10 -17 10 -35.5t-14 -32.5q-33 -35 -103.5 -93t-84.5 -70l95 4q30 0 42 -4.5t16 -14t4 -31.5t-19 -25q-31 -6 -122 -39q-19 -7 -39 -7t-34 21q-29 52 -29 78t17 48q31 38 98 102.5t77 75.5q-128 -21 -144 -21t-25 3.5t-14 13.5
q-14 28 -14 54q0 42 82 75q6 3 13 3q13 0 15 -16q3 -13 24 -13zM180 495q-30 0 -52 24q0 6 -1.5 9.5t-26 41t-47 73.5t-22.5 43t11.5 7t21 -3.5t19 -12t16.5 -15t17 -21t14 -21.5q21 -29 29 -45q36 53 67.5 82t43.5 29t26.5 -14.5t14.5 -22.5t-7.5 -18.5t-25.5 -29.5
t-27 -29.5t-23 -32.5t-24.5 -33t-23.5 -11z" />
    <glyph glyph-name="florin" unicode="&#x192;" horiz-adv-x="378" 
d="M71 419l83 -5q56 314 137 314q12 0 31 -16.5t23.5 -19t11 -6.5t8.5 -6t6 -6.5t5.5 -8.5t3.5 -11q3 -10 3 -45t-6.5 -72t-20.5 -37q-11 10 -25.5 44t-18.5 40q-40 0 -77 -173q40 0 76 6q19 0 28.5 -17t9.5 -34q0 -24 -65 -24q-31 0 -61 3q-22 -128 -38 -286t-18.5 -174
t-25.5 -40.5t-35.5 -24.5t-25.5 6.5t-20 13.5q-9 11 -31 39q-49 55 -49 73t3 17.5t21 -11.5q44 -30 65 -30q10 1 20 56t26 175.5t28 190.5l-64 -2q-26 0 -26 33q0 14 6.5 26t11.5 12z" />
    <glyph glyph-name="AEacute" unicode="&#x1fc;" horiz-adv-x="873" 
d="M231 290l90 -2h3q2 8 5.5 31t5.5 31q38 186 38 281v26q0 17 8.5 25.5t18 10t38 1.5t60 -21t31.5 -57q0 -7 -2.5 -26.5t-6.5 -58.5q12 29 37.5 51t55 41t70.5 42.5t57 34t34 10.5t41 -27q12 2 17 2q23 0 33 -20q8 -19 8 -25q0 -36 -153 -97q-6 -2 -8 -2q-6 0 -6 8.5
t10 38.5l-33 -16q-58 -30 -71 -44q-24 -29 -35 -53t-11 -32q0 -34 139 -34h17q27 15 34 15q17 0 42.5 -27.5t25.5 -63.5q0 -12 -13 -12q-4 0 -37 6q-10 -3 -37.5 -11t-37.5 -11t-33 -11t-33.5 -13.5t-29 -15.5t-29.5 -21q-39 -37 -53 -58q-26 -36 -26 -74.5t18 -58
t59.5 -19.5t99 20.5t57.5 59.5q0 13 -6 25.5t-19.5 12.5t-82 -40.5t-72.5 -40.5t-4 6.5t7 22.5q26 49 74 78t99.5 29t87 -30t35.5 -68.5t-20 -64.5q-61 -80 -232 -80q-106 0 -157 82q-28 43 -28 80.5t19 86.5q-24 -4 -56 -4q-20 -92 -34 -142t-51.5 -86.5t-92.5 -36.5
q-16 0 -38 5q-129 35 -176 163q-12 33 -12 58q0 60 50 82q84 38 211 38zM301 208h-64q-118 0 -195 -18q-41 -8 -41 -29q0 -17 27 -44t70 -41.5t72 -14.5t48.5 10t31 21t22.5 36q14 31 29 80zM450 298q-3 77 -8 279q-8 -46 -24.5 -143.5t-24.5 -143.5q38 4 57 8zM514 460
q-8 -137 -5 -143q33 24 100 48q-81 26 -95 95zM569 762q0 55 82 134q14 14 19.5 20.5t5.5 15.5t6 9q24 0 37.5 -28t13.5 -42q0 -28 -22 -46q-10 -13 -59 -46.5t-61.5 -33.5t-17 6t-4.5 11z" />
    <glyph glyph-name="aeacute" unicode="&#x1fd;" horiz-adv-x="524" 
d="M504 132q0 -152 -154 -152q-58 0 -88 27.5t-49 82.5q-62 -105 -101 -105q-31 0 -56 38q-7 10 -15 31.5t-19.5 39.5t-11.5 48.5t12 54.5q82 162 173 222q12 9 28 9t40 -18q14 -14 17 -24q5 -22 5 -27q6 31 22 31q11 0 15 -13q21 19 51 37t54 18t49.5 -28t25.5 -57.5
t-42 -80.5q-76 -96 -120 -96q-32 0 -50 53q-1 -2 -9.5 -16.5t-12 -21.5t-8.5 -19q-11 -23 -11 -41q0 -41 41 -41q68 0 115.5 28.5t94.5 86.5q4 -44 4 -67zM246 363q-126 -115 -160 -263q101 87 160 263zM388.5 292q31.5 39 31.5 53.5t-10.5 14.5t-36 -26t-40.5 -45
q-2 -12 -2 -18q0 -18 10 -18q16 0 47.5 39zM305 487q0 55 82 135q14 13 19.5 19.5t5.5 15.5t6 9q24 0 37.5 -28t13.5 -42q0 -28 -22 -46q-10 -13 -59 -46.5t-61.5 -33.5t-17 6t-4.5 11z" />
    <glyph glyph-name="Oslashacute" unicode="&#x1fe;" horiz-adv-x="417" 
d="M446 776h4q3 0 3 -1t1 -3l2 -4q2 -10 6 -21t4 -22q0 -32 -67 -143q3 -30 3 -60q0 -114 -34.5 -257t-95.5 -236q-33 -49 -77 -49q-23 0 -57 20t-56 43q-31 -78 -39 -144l-1 -13q0 -11 -14 -11t-26 23q-18 33 -18 63t60 155q-14 64 -14 140q0 190 96 390q12 23 25 23
q2 0 47 -18q25 58 102 58h5q51 -1 71 -35q30 46 57 90q6 12 13 12zM116 122q10 -63 37 -63q13 0 24 18q103 145 134 369q-144 -217 -195 -324zM176 378q-42 10 -37 74q1 13 4 31q-43 -89 -43 -207q0 -33 1 -49q80 144 220 362v5q0 17 -7.5 33t-22.5 16q-26 0 -58.5 -65
t-43 -107t-13.5 -93zM269 764q0 55 82 134q14 14 19.5 20.5t5.5 15.5t6 9q24 0 37.5 -28t13.5 -42q0 -28 -22 -46q-10 -13 -59 -46.5t-61.5 -33.5t-17 6t-4.5 11z" />
    <glyph glyph-name="oslashacute" unicode="&#x1ff;" horiz-adv-x="261" 
d="M173 21q-25 -32 -63.5 -32t-67.5 45q-38 -90 -33 -130q3 -22 -9 -20q-13 1 -31 29.5t-18 44t15 46.5t48 96q-10 43 -10 89q0 91 49 232q4 10 7 12.5t10.5 2.5t18.5 10.5t29 10.5q45 0 74 -34q26 47 51 90q12 25 22 -21q8 -39 3 -50q-22 -33 -47 -73q22 -68 22 -133
q0 -121 -70 -215zM75 215l85 152q-6 31 -23 31q-43 0 -62 -183zM74 79q90 61 92 199q-57 -97 -94 -174q0 -19 2 -25zM92 512q0 55 82 134q14 14 19.5 20.5t5.5 15.5t6 9q24 0 37.5 -28t13.5 -42q0 -28 -22 -46q-10 -13 -59 -46.5t-61.5 -33.5t-17 6t-4.5 11z" />
    <glyph glyph-name="dotlessj" unicode="&#x237;" horiz-adv-x="184" 
d="M153 76q10 0 10 -12.5t-10.5 -46t-11.5 -39.5q-11 -38 -49 -52q-39 -186 -96 -308q-23 -51 -69 -51q-33 0 -59 29q-57 60 -100 195q-8 26 -8 43.5t12 30.5q86 94 268 170q43 179 60 412q2 21 14 21q18 0 30.5 -19.5t12.5 -37t-1 -25.5q-17 -187 -39 -321q33 11 36 11z
M3 -102q-44 -17 -105 -60t-61 -64q0 -14 26.5 -29t43.5 -15t31 22q36 54 65 146z" />
    <glyph glyph-name="circumflex" unicode="&#x2c6;" 
d="M370 507q0 -12 -14.5 -12t-29.5 6t-30.5 23.5t-21 24t-22.5 35t-18 29.5q-21 -32 -62.5 -71.5t-64.5 -39.5q-18 0 -18 23t45 71q22 25 38.5 50t26.5 36t30 11t40 -19.5t34.5 -50.5t16 -33.5t12.5 -17t18 -24.5q20 -27 20 -41z" />
    <glyph glyph-name="caron" unicode="&#x2c7;" 
d="M239 495q-30 0 -52 24q0 6 -1.5 9.5t-26 41t-47 73.5t-22.5 43t11.5 7t21 -3.5t19 -12t16.5 -15t17 -21t15 -21.5q20 -29 28 -45q36 53 67.5 82t43.5 29t26.5 -14.5t14.5 -22.5t-7.5 -18.5t-25.5 -29.5t-27 -29.5t-23 -32.5t-24.5 -33t-23.5 -11z" />
    <glyph glyph-name="breve" unicode="&#x2d8;" 
d="M92 673q27 0 57 -45q11 -16 29.5 -30t43 -14t44 14.5t28.5 31.5q24 46 50 46q9 0 22.5 -14.5t13.5 -21.5q0 -32 -36 -83.5t-96.5 -51.5t-114.5 57t-54 93q0 18 13 18z" />
    <glyph glyph-name="dotaccent" unicode="&#x2d9;" 
d="M183.5 632q15.5 19 43.5 19t46.5 -21.5t18.5 -50.5t-15.5 -46.5t-44.5 -17.5t-46.5 22t-17.5 49t15.5 46z" />
    <glyph glyph-name="ring" unicode="&#x2da;" 
d="M255 741q41 0 71 -32.5t30 -78.5q0 -39 -27 -87q-14 -25 -42.5 -41.5t-65.5 -16.5q-59 0 -88.5 44t-29.5 86q0 77 94 114v1q0 11 58 11zM218 676q-17 0 -33.5 -17t-16.5 -42q0 -55 51 -55q31 0 49 19t18 44q0 15 -6 21t-9.5 9t-11.5 6.5t-12 4.5q-18 7 -29 10z" />
    <glyph glyph-name="ogonek" unicode="&#x2db;" 
d="M158 -242q-27 0 -62.5 34.5t-35.5 77t23.5 96.5t49.5 54t35 -1.5t9 -7.5t-24 -56t-24 -72.5t14 -30.5q32 0 77.5 21.5t57.5 21.5q8 0 15 -20t7 -32q-9 -38 -46 -61.5t-96 -23.5z" />
    <glyph glyph-name="tilde" unicode="&#x2dc;" 
d="M231.5 618.5q35.5 -28.5 47.5 -28.5t21.5 12t16.5 24.5t19 12.5t22 -18.5t10 -34.5q0 -33 -22.5 -54t-50.5 -21t-66.5 29.5t-51 29.5t-21 -15t-17.5 -30t-21 -15t-19 13.5t-7 28.5q0 37 27 66t52 29t60.5 -28.5z" />
    <glyph glyph-name="hungarumlaut" unicode="&#x2dd;" 
d="M164 677l-1 9q0 6 14 6t30 -18q23 -27 23 -47.5t-14 -38.5q-7 -15 -42.5 -54t-49.5 -39q-19 0 -19 33.5t31 87.5q4 7 9.5 17t8 14.5t5.5 10.5q5 10 5 19zM284 621q10 11 17 27t11 24.5t11 8.5q24 0 37.5 -28t13.5 -42q0 -28 -22 -46q-10 -13 -50.5 -41.5t-53 -28.5t-17 6
t-4.5 11q0 48 57 109z" />
    <glyph glyph-name="uni0312" unicode="&#x312;" 
d="M238 678q14 0 22.5 -9t8.5 -22t-8.5 -44t-8.5 -43t13 -25t13 -21q0 -19 -28.5 -19t-51.5 20.5t-23 52.5t22.5 71t40.5 39z" />
    <glyph glyph-name="uni0315" unicode="&#x315;" horiz-adv-x="90" 
d="M68 491q-22 -52 -42.5 -52t-25.5 34q0 14 8 57.5t8 56.5t-7.5 31t-7.5 25q0 12 16 12q29 0 51 -26.5t22 -45.5q0 -40 -22 -92z" />
    <glyph glyph-name="commaaccent" unicode="&#x326;" 
d="M95.5 -258.5q-5.5 6.5 -5.5 15.5t24.5 48t24.5 63q-12 14 -12 24.5t16.5 19t33.5 8.5t30.5 -14t13.5 -34q0 -34 -44 -85.5t-67 -51.5q-9 0 -14.5 6.5z" />
    <glyph glyph-name="micro" unicode="&#x3bc;" horiz-adv-x="338" 
d="M45 459l43 2q23 0 43 -17q2 -2 12.5 -10t16.5 -13q16 -15 16 -24.5t-31.5 -125.5t-23.5 -134q35 33 94 191q22 58 26 66.5t8 10t13.5 -1t23.5 -4.5t19 -6.5t5 -13t-14 -51.5q-43 -135 -45 -198q0 -10 5.5 -10t15 22.5t19 50t12.5 32.5q3 0 12 -14q23 -48 23 -91.5
t-31 -100.5q-14 -27 -34.5 -27t-32 8.5t-18.5 26t-10.5 30t-7 34.5t-4.5 26q-34 -84 -54 -107.5t-35 -23.5t-31 65q-9 -74 -9 -127.5t1.5 -64.5t7.5 -13.5t6 -10.5t-15 -27t-27 -19q-32 0 -32 150q0 209 63 414q-11 2 -21.5 0t-21.5 3q-27 11 -27 93q0 12 10 12z" />
    <glyph glyph-name="Wgrave" unicode="&#x1e80;" horiz-adv-x="611" 
d="M505 702q81 -146 81 -313t-92 -324q-32 -55 -90 -55q-63 0 -87 73q-11 33 -17.5 72.5t-8.5 49.5q-8 -16 -28.5 -66.5t-34.5 -76.5q-21 -42 -60 -42q-29 0 -52 22q-19 20 -24 78q-1 19 -2.5 35t-1.5 30t3 34t6.5 38t11.5 43t14 42.5t17.5 45.5t17.5 42.5t19.5 43.5
t18.5 40q13 31 33 71q-65 -69 -139 -95q-21 -7 -42.5 -7t-34.5 17t-13 48t38.5 67t86.5 57t86.5 21t72 -25t33.5 -66q0 -15 -11.5 -46t-44.5 -112q-72 -179 -96 -282q-2 -8 -2 -15.5t7 -7.5q30 0 120 271q-7 9 -7 18q0 13 24 13q49 0 66 -2t17 -11t-7 -14q-11 -117 -11 -157
t8 -103t25 -63q15 0 30 37q67 147 67 288.5t-74 261.5q-11 16 -11 31q0 24 35 24t53 -31zM165 645q-67 -11 -100 -44q-11 -11 -11 -20t12 -9q33 0 99 73zM295 810q-8 12 -20 27.5t-37 39.5t-37 35.5t-12 18.5q0 10 21 22t34 12t17 -1t8.5 -4.5t7.5 -6.5t8 -11t9.5 -15
t13 -21t12.5 -20.5t23 -34.5q38 -58 38 -71t-12 -13t-22 2.5t-16.5 5t-13.5 9.5l-11 11q-3 3 -11 15z" />
    <glyph glyph-name="wgrave" unicode="&#x1e81;" horiz-adv-x="411" 
d="M214 323h15t12 -0.5t9 -1t7.5 -2t6.5 -4t4 -5.5q5 -5 5 -13t-5 -55t-5 -75q0 -80 11 -80q4 0 10 12q30 61 30 166q0 103 -9.5 123t-18.5 27.5t-16.5 13.5t-7.5 9q0 10 17 10h15q22 -1 37 -33q62 -131 62 -250q0 -55 -12 -100q-23 -83 -80 -83q-22 0 -46 17.5t-36.5 45.5
t-20.5 73q-11 -36 -36 -80.5t-47 -44.5q-8 0 -16 6q-62 46 -62 162q0 63 17 117q6 17 23 63q-38 -25 -55.5 -25t-27.5 22q-14 30 -14 80q0 12 10 12l14 -2q10 0 43 16t45 16q28 0 46 -34.5t18 -57t-5 -46t-24 -92.5q-27 -99 -27 -110.5t4 -11.5t11 10q40 62 70 181
q6 24 29 24zM155 538q-8 12 -20 27.5t-37 39.5t-37 35.5t-12 18.5q0 10 21 22t34 12t17 -1t8.5 -4.5t7.5 -6.5t8 -11t9.5 -15t13 -21t12.5 -20.5t22 -34.5q39 -58 39 -71t-12 -13t-22 2.5t-16.5 5t-14.5 9.5l-10 11q-3 3 -11 15z" />
    </font>
</defs>
</svg>
